M48
METRIC,LZ,000.000
;FILE_FORMAT=3:3
;TYPE=PLATED
;Layer: PTH_Through_Via
;EasyEDA v6.5.50, 2025-05-11 21:30:58
;57ce2a779753491496e961f97abc4982,bfcb7ea688f34dc99dffbe5811d057cf,10
;Gerber Generator version 0.2
;Holesize 1 = 0.310 mm
T01C0.310
%
G05
G90
T01
X080264Y063754
X077343Y072009
X074168Y067691
X061341Y057150
X076114Y051802
X070444Y054102
X042545Y078867
X030925Y079212
X064433Y053213
X061678Y047371
X059944Y051308
X059690Y054991
X057829Y059690
X046863Y064643
X051054Y061468
X031252Y062603
X016129Y066250
X062914Y068594
X034290Y083058
X020066Y069315
X045212Y071120
X032766Y071247
X021844Y073787
X023495Y055245
X018415Y051308
X021336Y054610
X031251Y061333
X023368Y050336
X027305Y047498
X027178Y050336
X048251Y056253
X018542Y052324
X012954Y049276
X014942Y060960
X020955Y055499
X022635Y053721
X080264Y061087
X080264Y050615
X068011Y031095
X078152Y040259
X086175Y031877
X087039Y025527
X084516Y015220
X083483Y008509
X079422Y035433
X079422Y027686
X068011Y021951
X068011Y012553
X057404Y038017
X067818Y038100
X068961Y010053
X056896Y015792
X068961Y010053
X068961Y019451
X056896Y023285
X057150Y030397
X068961Y028595
X048641Y027552
X048641Y023615
X047327Y015748
X049591Y025915
X042992Y033789
X047564Y033789
X043942Y031489
X048514Y031489
X088138Y010077
X083631Y012656
X044765Y025280
X068265Y035667
X038564Y019812
X034229Y033861
X038608Y035375
X053213Y033147
X056007Y032385
X038652Y038481
X017823Y060960
X031115Y035248
X046228Y030099
X046228Y028194
X053765Y065786
X026670Y033655
X023368Y031681
X023180Y028939
X035731Y018034
X044323Y018542
X048768Y018542
X019304Y053848
X051562Y040005
X014268Y044704
X080264Y053652
X082122Y036383
M30
