G04 Layer: BottomLayer*
G04 EasyEDA v6.5.50, 2025-05-11 21:30:58*
G04 57ce2a779753491496e961f97abc4982,bfcb7ea688f34dc99dffbe5811d057cf,10*
G04 Gerber Generator version 0.2*
G04 Scale: 100 percent, Rotated: No, Reflected: No *
G04 Dimensions in millimeters *
G04 leading zeros omitted , absolute positions ,4 integer and 5 decimal *
%FSLAX45Y45*%
%MOMM*%

%AMMACRO1*21,1,$1,$2,0,0,$3*%
%ADD10C,0.5000*%
%ADD11C,1.0000*%
%ADD12C,0.6000*%
%ADD13C,0.3000*%
%ADD14C,0.8000*%
%ADD15C,2.0000*%
%ADD16O,1.7999964X1.7999964*%
%ADD17R,1.8000X1.8000*%
%ADD18MACRO1,2.0015X2.4994X-90.0000*%
%ADD19O,2.4999949999999997X1.9999959999999999*%
%ADD20O,1.499997X3.6999926000000003*%
%ADD21O,3.7999924X1.499997*%
%ADD22R,2.8000X2.0000*%
%ADD23O,2.7999944X1.9999959999999999*%
%ADD24C,0.6150*%
%ADD25C,0.6200*%
%ADD26C,0.0150*%

%LPD*%
D10*
X3856385Y1981200D02*
G01*
X4403178Y2527993D01*
X4476488Y2527993D01*
X4476501Y2528062D02*
G01*
X4686300Y2318257D01*
X4686300Y2057400D01*
X4521200Y1892300D01*
X4521200Y1092200D01*
X4978400Y635000D01*
X8636000Y635000D01*
X8902700Y901700D01*
X8902700Y1168400D01*
X8572500Y1498600D01*
X8572500Y1638300D01*
X8496300Y1714500D01*
X8362950Y1714500D01*
X8362950Y1265684D01*
X8813800Y1007722D02*
G01*
X8555385Y749300D01*
X8293100Y749300D01*
X8204200Y838200D01*
X6883400Y838200D01*
X6438900Y1282700D01*
X5829300Y1282700D01*
X5626100Y1079500D01*
X4686300Y1079500D01*
X4610100Y1155700D01*
X4610100Y1841500D01*
X4864100Y2095500D01*
X4864100Y2361498D01*
X4394200Y3148898D02*
G01*
X4851400Y3148898D01*
D11*
X4299198Y3378893D02*
G01*
X4756398Y3378893D01*
D12*
X4959088Y2591493D02*
G01*
X4953000Y2585405D01*
X4953000Y2070100D01*
X4732685Y1849777D01*
X4732685Y1574800D01*
D10*
X4864100Y2361498D02*
G01*
X4864100Y2755198D01*
D12*
X5689600Y2328522D02*
G01*
X6072992Y1945134D01*
X6896100Y1945134D01*
X5715000Y3039722D02*
G01*
X5895192Y2859534D01*
X6896100Y2859534D01*
X5689600Y1579222D02*
G01*
X5884514Y1384300D01*
X6502400Y1384300D01*
X6881365Y1005334D01*
X6896100Y1005334D01*
X6781800Y3810000D02*
G01*
X6773522Y3801722D01*
X5740400Y3801722D01*
X8348314Y850900D02*
G01*
X8451601Y954173D01*
X8451601Y1521965D01*
X7815323Y4025900D02*
G01*
X7408923Y3619500D01*
X7226300Y3619500D01*
X6883400Y3276600D01*
X6881365Y3109465D01*
X6801098Y3109465D01*
X8617458Y3187700D02*
G01*
X8703914Y3101235D01*
X8703914Y2552700D01*
D11*
X8026400Y6108700D02*
G01*
X8026400Y5061457D01*
D12*
X1494284Y6096000D02*
G01*
X1722884Y5867400D01*
X2019300Y5867400D01*
X2095500Y5791200D01*
X2095500Y5549900D01*
X1295400Y4927600D02*
G01*
X1426814Y4796177D01*
X1426814Y4470400D01*
D11*
X1612900Y6624977D02*
G01*
X1977542Y6260337D01*
X3125215Y6260337D01*
D12*
X4686300Y6464300D02*
G01*
X5003800Y6146800D01*
X5105400Y6146800D01*
X6167785Y4737100D02*
G01*
X5994400Y4910477D01*
X5994400Y5130800D01*
X5782914Y5969000D02*
G01*
X5969000Y5782922D01*
X5969000Y5499100D01*
X4254500Y7886700D02*
G01*
X4254500Y6743700D01*
X3111500Y3524757D02*
G01*
X3079241Y3492500D01*
X2755900Y3492500D01*
X2667000Y3403600D01*
X2667000Y3365500D01*
X2336800Y3168142D02*
G01*
X2317998Y3149345D01*
X2317998Y2893926D01*
X3573114Y1803400D02*
G01*
X3217514Y2159000D01*
X2806700Y2159000D01*
X2317998Y2647695D01*
X2317998Y2893926D01*
X6801098Y1255265D02*
G01*
X6557777Y1498600D01*
X5981700Y1498600D01*
X5626100Y1854200D01*
X4876800Y1854200D01*
X3573114Y1803400D02*
G01*
X3700114Y1676400D01*
X4330700Y1676400D01*
X4432300Y1778000D01*
X4432300Y1854200D01*
X1930400Y5384800D02*
G01*
X1854200Y5308600D01*
X1854200Y5232400D01*
D13*
X2349500Y5524500D02*
G01*
X2324100Y5524500D01*
X1917700Y5118100D01*
X1841500Y5118100D01*
X1841500Y5130800D01*
D12*
X3865219Y3848097D02*
G01*
X4081122Y4064000D01*
X4889500Y4064000D01*
X4953000Y4000500D01*
X5156200Y4000500D01*
X3865219Y3848097D02*
G01*
X3759200Y3954117D01*
X3759200Y4127500D01*
X3568700Y4318000D01*
X2387600Y4318000D01*
X1485900Y5219700D01*
X1485900Y5867400D01*
X1384300Y5969000D01*
X1384300Y6108700D01*
X1397000Y6121400D01*
X1397000Y6248400D01*
X1473200Y6324600D01*
X1701800Y6324600D01*
X1782318Y6244081D01*
X1782318Y6095997D01*
X7942201Y2768600D02*
G01*
X7493000Y2319398D01*
X7493000Y1981200D01*
X6934200Y1422400D01*
X6934200Y1270000D01*
X6934200Y1270000D02*
G01*
X6919465Y1255265D01*
X6801098Y1255265D01*
X6801098Y2195065D02*
G01*
X7518400Y2912361D01*
X7518400Y3263900D01*
X7797800Y3543300D01*
X7942201Y3543300D01*
X4622800Y3009900D02*
G01*
X3556000Y3009900D01*
X3111500Y3454400D01*
X3111500Y3524757D01*
X3422898Y3386076D02*
G01*
X3574293Y3537457D01*
X3860800Y3537457D01*
X6801098Y3109465D02*
G01*
X6672077Y3238500D01*
X5600700Y3238500D01*
X2336800Y5033622D02*
G01*
X2620627Y4749800D01*
X2730500Y4749800D01*
D13*
X2336800Y5033622D02*
G01*
X2324100Y5046322D01*
X2324100Y5311520D01*
X2263520Y5372100D01*
D12*
X4622800Y2819400D02*
G01*
X4648200Y2844800D01*
X5207000Y2844800D01*
X5588000Y2463800D01*
X6184900Y2463800D01*
X6453634Y2195065D01*
X6801098Y2195065D01*
X2133600Y5461000D02*
G01*
X2273300Y5600700D01*
X2273300Y5892800D01*
X2513794Y6133299D01*
X3125094Y6133299D01*
D11*
X8026400Y6375400D02*
G01*
X8026400Y6908800D01*
X7734300Y7200900D01*
X8953500Y6829044D02*
G01*
X8386572Y6829044D01*
X8026400Y6829044D01*
X8026400Y5365242D02*
G01*
X8619997Y5365242D01*
X8940800Y5686044D01*
X9359900Y2692400D02*
G01*
X9232900Y2692400D01*
X9093200Y2832100D01*
X9093200Y4368800D01*
X8737600Y4724400D01*
X8610600Y4724400D01*
X8280400Y5054600D01*
X8039100Y5054600D01*
D12*
X8212198Y3638295D02*
G01*
X8388604Y3638295D01*
X8623300Y3403600D01*
X8623300Y3213100D01*
D14*
X6443215Y5321300D02*
G01*
X6443215Y5257800D01*
X5448300Y5257800D01*
X3441700Y7264400D01*
X3441700Y7734300D01*
X3254758Y7921246D01*
X3092450Y7921246D01*
X2717800Y5033622D02*
G01*
X2941985Y5257800D01*
X4152900Y5257800D01*
X4520394Y5625299D01*
X4825105Y5625299D01*
X3429000Y8305800D02*
G01*
X2438400Y8305800D01*
X2006600Y7874000D01*
X2006600Y6931545D01*
X2184400Y7378700D02*
G01*
X2438400Y7124700D01*
X3276600Y7124700D01*
X6291323Y6859270D02*
G01*
X6153150Y6997700D01*
X4800600Y6997700D01*
X4686300Y7112000D01*
X4521200Y7112000D01*
X6291323Y6859270D02*
G01*
X6830319Y6859270D01*
X6830319Y6858000D01*
X7416800Y6769100D02*
G01*
X7340600Y6769100D01*
X7251700Y6858000D01*
X6832600Y6858000D01*
D12*
X7416800Y6769100D02*
G01*
X7340600Y6692900D01*
X7340600Y5308600D01*
X7467600Y5181600D01*
X7620000Y5181600D01*
X3860800Y3537457D02*
G01*
X3893058Y3505200D01*
X5054600Y3505200D01*
X5245100Y3314700D01*
X5321300Y3314700D01*
X5105400Y6146800D02*
G01*
X5105400Y6307477D01*
X5376514Y6578600D01*
D11*
X6134100Y5715000D02*
G01*
X6172200Y5676900D01*
X7044436Y5676900D01*
X7044436Y5410200D01*
D15*
G01*
X8940800Y5185155D03*
G01*
X8940800Y5686044D03*
G01*
X8953500Y6328155D03*
G01*
X8953500Y6829044D03*
G01*
X8928100Y7585455D03*
G01*
X8928100Y8086344D03*
D16*
G01*
X4762500Y6743700D03*
G01*
X4508500Y6743700D03*
D17*
G01*
X4254500Y6743700D03*
D18*
G01*
X4610100Y7886700D03*
D19*
G01*
X4610100Y7378700D03*
G01*
X4610100Y7632700D03*
D20*
G01*
X6028563Y7366762D03*
D21*
G01*
X6493636Y7716773D03*
G01*
X6493636Y7116826D03*
D22*
G01*
X9359900Y2692400D03*
D23*
G01*
X9359900Y2946400D03*
G01*
X9359900Y3200400D03*
G01*
X9359900Y3454400D03*
G01*
X9359900Y3708400D03*
G01*
X9359900Y3962400D03*
G01*
X9359900Y4216400D03*
G01*
X9359900Y4470400D03*
D24*
G01*
X8026400Y6375400D03*
G01*
X7734300Y7200900D03*
G01*
X7416800Y6769100D03*
G01*
X6134100Y5715000D03*
G01*
X7611389Y5180203D03*
G01*
X7044410Y5410200D03*
G01*
X4254500Y7886700D03*
G01*
X3092500Y7921193D03*
G01*
X6443319Y5321300D03*
G01*
X6167780Y4737100D03*
G01*
X5994400Y5130800D03*
G01*
X5969000Y5499100D03*
G01*
X5782919Y5969000D03*
G01*
X4686300Y6464300D03*
G01*
X5105400Y6146800D03*
G01*
X3125215Y6260337D03*
G01*
X1612900Y6624980D03*
G01*
X6291402Y6859396D03*
G01*
X3429000Y8305800D03*
G01*
X2006600Y6931533D03*
G01*
X4521200Y7112000D03*
G01*
X3276600Y7124700D03*
G01*
X2184400Y7378700D03*
G01*
X2349500Y5524500D03*
G01*
X1841500Y5130800D03*
G01*
X2133600Y5461000D03*
G01*
X3125088Y6133287D03*
G01*
X2336800Y5033619D03*
G01*
X2730500Y4749800D03*
G01*
X2717800Y5033619D03*
G01*
X4825111Y5625287D03*
G01*
X1854200Y5232400D03*
G01*
X1295400Y4927600D03*
G01*
X1494180Y6096000D03*
G01*
X2095500Y5549900D03*
G01*
X2263520Y5372100D03*
G01*
X8026400Y6108700D03*
G01*
X8026400Y5061457D03*
G01*
X6801104Y3109468D03*
G01*
X7815199Y4025900D03*
G01*
X8617458Y3187700D03*
G01*
X8703919Y2552700D03*
G01*
X8451595Y1521968D03*
G01*
X8348319Y850900D03*
G01*
X7942199Y3543300D03*
G01*
X7942199Y2768600D03*
G01*
X6801104Y2195068D03*
G01*
X6801104Y1255268D03*
G01*
X5740400Y3801719D03*
G01*
X6781800Y3810000D03*
G01*
X6896100Y1005331D03*
G01*
X5689600Y1579219D03*
G01*
X6896100Y1005331D03*
G01*
X6896100Y1945131D03*
G01*
X5689600Y2328519D03*
G01*
X5715000Y3039719D03*
G01*
X6896100Y2859531D03*
G01*
X4864100Y2755188D03*
G01*
X4864100Y2361488D03*
G01*
X4732680Y1574800D03*
G01*
X4959095Y2591485D03*
G01*
X4299204Y3378885D03*
G01*
X4756404Y3378885D03*
G01*
X4394200Y3148888D03*
G01*
X4851400Y3148888D03*
G01*
X8813800Y1007719D03*
G01*
X8363051Y1265580D03*
G01*
X4476495Y2527985D03*
G01*
X6826504Y3566668D03*
G01*
X3856380Y1981200D03*
G01*
X3422904Y3386073D03*
G01*
X3860800Y3537457D03*
G01*
X5321300Y3314700D03*
G01*
X5600700Y3238500D03*
G01*
X3865219Y3848100D03*
G01*
X1782318Y6096000D03*
G01*
X3111500Y3524757D03*
G01*
X4622800Y3009900D03*
G01*
X4622800Y2819400D03*
G01*
X5376519Y6578600D03*
G01*
X2667000Y3365500D03*
G01*
X2336800Y3168142D03*
G01*
X2318004Y2893923D03*
G01*
X3573119Y1803400D03*
G01*
X4432300Y1854200D03*
G01*
X4876800Y1854200D03*
G01*
X1930400Y5384800D03*
G01*
X5156200Y4000500D03*
G01*
X1426819Y4470400D03*
D25*
G01*
X8026400Y5365242D03*
G01*
X8212200Y3638295D03*
M02*
