G04 Layer: TopSilkscreenLayer*
G04 EasyEDA v6.5.50, 2025-05-11 21:30:58*
G04 57ce2a779753491496e961f97abc4982,bfcb7ea688f34dc99dffbe5811d057cf,10*
G04 Gerber Generator version 0.2*
G04 Scale: 100 percent, Rotated: No, Reflected: No *
G04 Dimensions in millimeters *
G04 leading zeros omitted , absolute positions ,4 integer and 5 decimal *
%FSLAX45Y45*%
%MOMM*%

%ADD10C,0.2032*%
%ADD11C,0.1524*%
%ADD12C,0.2540*%
%ADD13C,0.1520*%
%ADD14C,0.2000*%
%ADD15C,0.4000*%
%ADD16C,0.2400*%
%ADD17C,0.0133*%

%LPD*%
D10*
X622300Y1436878D02*
G01*
X622300Y1243076D01*
X622300Y1436878D02*
G01*
X705357Y1436878D01*
X733044Y1427734D01*
X742442Y1418589D01*
X751586Y1400047D01*
X751586Y1381505D01*
X742442Y1362963D01*
X733044Y1353820D01*
X705357Y1344676D01*
X622300Y1344676D02*
G01*
X705357Y1344676D01*
X733044Y1335278D01*
X742442Y1326134D01*
X751586Y1307592D01*
X751586Y1279905D01*
X742442Y1261363D01*
X733044Y1252220D01*
X705357Y1243076D01*
X622300Y1243076D01*
X812545Y1436878D02*
G01*
X812545Y1243076D01*
X812545Y1436878D02*
G01*
X886460Y1243076D01*
X960373Y1436878D02*
G01*
X886460Y1243076D01*
X960373Y1436878D02*
G01*
X960373Y1243076D01*
X1150620Y1409192D02*
G01*
X1132078Y1427734D01*
X1104392Y1436878D01*
X1067562Y1436878D01*
X1039876Y1427734D01*
X1021334Y1409192D01*
X1021334Y1390650D01*
X1030478Y1372362D01*
X1039876Y1362963D01*
X1058163Y1353820D01*
X1113789Y1335278D01*
X1132078Y1326134D01*
X1141476Y1316989D01*
X1150620Y1298447D01*
X1150620Y1270762D01*
X1132078Y1252220D01*
X1104392Y1243076D01*
X1067562Y1243076D01*
X1039876Y1252220D01*
X1021334Y1270762D01*
X1353820Y1372362D02*
G01*
X1390650Y1243076D01*
X1427734Y1372362D02*
G01*
X1390650Y1243076D01*
X1427734Y1372362D02*
G01*
X1464563Y1243076D01*
X1501647Y1372362D02*
G01*
X1464563Y1243076D01*
X1562607Y1436878D02*
G01*
X1571752Y1427734D01*
X1581150Y1436878D01*
X1571752Y1446276D01*
X1562607Y1436878D01*
X1571752Y1372362D02*
G01*
X1571752Y1243076D01*
X1669795Y1436878D02*
G01*
X1669795Y1279905D01*
X1678939Y1252220D01*
X1697481Y1243076D01*
X1715770Y1243076D01*
X1642110Y1372362D02*
G01*
X1706626Y1372362D01*
X1776729Y1436878D02*
G01*
X1776729Y1243076D01*
X1776729Y1335278D02*
G01*
X1804670Y1362963D01*
X1822957Y1372362D01*
X1850644Y1372362D01*
X1869186Y1362963D01*
X1878329Y1335278D01*
X1878329Y1243076D01*
X2081529Y1436878D02*
G01*
X2081529Y1243076D01*
X2081529Y1436878D02*
G01*
X2201672Y1436878D01*
X2081529Y1344676D02*
G01*
X2155443Y1344676D01*
X2081529Y1243076D02*
G01*
X2201672Y1243076D01*
X2391918Y1409192D02*
G01*
X2373629Y1427734D01*
X2345690Y1436878D01*
X2308859Y1436878D01*
X2281174Y1427734D01*
X2262631Y1409192D01*
X2262631Y1390650D01*
X2272029Y1372362D01*
X2281174Y1362963D01*
X2299715Y1353820D01*
X2355088Y1335278D01*
X2373629Y1326134D01*
X2382774Y1316989D01*
X2391918Y1298447D01*
X2391918Y1270762D01*
X2373629Y1252220D01*
X2345690Y1243076D01*
X2308859Y1243076D01*
X2281174Y1252220D01*
X2262631Y1270762D01*
X2452877Y1436878D02*
G01*
X2452877Y1243076D01*
X2452877Y1436878D02*
G01*
X2536190Y1436878D01*
X2563875Y1427734D01*
X2573020Y1418589D01*
X2582163Y1400047D01*
X2582163Y1372362D01*
X2573020Y1353820D01*
X2563875Y1344676D01*
X2536190Y1335278D01*
X2452877Y1335278D01*
X2661665Y1436878D02*
G01*
X2763265Y1436878D01*
X2707893Y1362963D01*
X2735579Y1362963D01*
X2754122Y1353820D01*
X2763265Y1344676D01*
X2772409Y1316989D01*
X2772409Y1298447D01*
X2763265Y1270762D01*
X2744724Y1252220D01*
X2717038Y1243076D01*
X2689352Y1243076D01*
X2661665Y1252220D01*
X2652522Y1261363D01*
X2643124Y1279905D01*
X2842768Y1390650D02*
G01*
X2842768Y1400047D01*
X2851911Y1418589D01*
X2861309Y1427734D01*
X2879597Y1436878D01*
X2916681Y1436878D01*
X2934970Y1427734D01*
X2944368Y1418589D01*
X2953511Y1400047D01*
X2953511Y1381505D01*
X2944368Y1362963D01*
X2925825Y1335278D01*
X2833370Y1243076D01*
X2962909Y1243076D01*
X698500Y1005078D02*
G01*
X698500Y811276D01*
X698500Y1005078D02*
G01*
X781557Y1005078D01*
X809244Y995934D01*
X818642Y986789D01*
X827786Y968247D01*
X827786Y949705D01*
X818642Y931163D01*
X809244Y922020D01*
X781557Y912876D01*
X698500Y912876D02*
G01*
X781557Y912876D01*
X809244Y903478D01*
X818642Y894334D01*
X827786Y875792D01*
X827786Y848105D01*
X818642Y829563D01*
X809244Y820420D01*
X781557Y811276D01*
X698500Y811276D01*
X888745Y1005078D02*
G01*
X962660Y912876D01*
X962660Y811276D01*
X1036573Y1005078D02*
G01*
X962660Y912876D01*
X1369060Y977392D02*
G01*
X1350518Y995934D01*
X1322831Y1005078D01*
X1286002Y1005078D01*
X1258315Y995934D01*
X1239773Y977392D01*
X1239773Y958850D01*
X1248918Y940562D01*
X1258315Y931163D01*
X1276604Y922020D01*
X1332229Y903478D01*
X1350518Y894334D01*
X1359915Y885189D01*
X1369060Y866647D01*
X1369060Y838962D01*
X1350518Y820420D01*
X1322831Y811276D01*
X1286002Y811276D01*
X1258315Y820420D01*
X1239773Y838962D01*
X1430020Y1005078D02*
G01*
X1430020Y811276D01*
X1490979Y1005078D02*
G01*
X1564894Y811276D01*
X1638807Y1005078D02*
G01*
X1564894Y811276D01*
X1773681Y1005078D02*
G01*
X1699768Y811276D01*
X1773681Y1005078D02*
G01*
X1847595Y811276D01*
X1727454Y875792D02*
G01*
X1819910Y875792D01*
X2050795Y1005078D02*
G01*
X2050795Y811276D01*
X2180081Y1005078D02*
G01*
X2180081Y811276D01*
X2050795Y912876D02*
G01*
X2180081Y912876D01*
X9667747Y8039100D02*
G01*
X9676891Y8020558D01*
X9704577Y7992871D01*
X9510775Y7992871D01*
X9658350Y7922768D02*
G01*
X9667747Y7922768D01*
X9686290Y7913370D01*
X9695434Y7904226D01*
X9704577Y7885684D01*
X9704577Y7848854D01*
X9695434Y7830312D01*
X9686290Y7821168D01*
X9667747Y7811770D01*
X9649206Y7811770D01*
X9630663Y7821168D01*
X9602977Y7839710D01*
X9510775Y7931912D01*
X9510775Y7802626D01*
X9704577Y7741665D02*
G01*
X9510775Y7667752D01*
X9704577Y7593837D02*
G01*
X9510775Y7667752D01*
X9641077Y6658355D02*
G01*
X9641077Y6750558D01*
X9558020Y6759955D01*
X9567163Y6750558D01*
X9576561Y6722871D01*
X9576561Y6695186D01*
X9567163Y6667500D01*
X9548875Y6648958D01*
X9521190Y6639813D01*
X9502647Y6639813D01*
X9474961Y6648958D01*
X9456420Y6667500D01*
X9447275Y6695186D01*
X9447275Y6722871D01*
X9456420Y6750558D01*
X9465563Y6759955D01*
X9484106Y6769100D01*
X9641077Y6578854D02*
G01*
X9447275Y6504939D01*
X9641077Y6431026D02*
G01*
X9447275Y6504939D01*
X9641077Y5632957D02*
G01*
X9641077Y5531357D01*
X9567163Y5586729D01*
X9567163Y5559044D01*
X9558020Y5540755D01*
X9548875Y5531357D01*
X9521190Y5522213D01*
X9502647Y5522213D01*
X9474961Y5531357D01*
X9456420Y5549900D01*
X9447275Y5577586D01*
X9447275Y5605271D01*
X9456420Y5632957D01*
X9465563Y5642355D01*
X9484106Y5651500D01*
X9493250Y5452110D02*
G01*
X9484106Y5461254D01*
X9474961Y5452110D01*
X9484106Y5442712D01*
X9493250Y5452110D01*
X9641077Y5363210D02*
G01*
X9641077Y5261610D01*
X9567163Y5317236D01*
X9567163Y5289550D01*
X9558020Y5271007D01*
X9548875Y5261610D01*
X9521190Y5252465D01*
X9502647Y5252465D01*
X9474961Y5261610D01*
X9456420Y5280152D01*
X9447275Y5307837D01*
X9447275Y5335523D01*
X9456420Y5363210D01*
X9465563Y5372607D01*
X9484106Y5381752D01*
X9641077Y5191505D02*
G01*
X9447275Y5117592D01*
X9641077Y5043678D02*
G01*
X9447275Y5117592D01*
X9435591Y5136642D02*
G01*
X9269475Y5136642D01*
X9352534Y5219700D02*
G01*
X9352534Y5053329D01*
X9473691Y6305042D02*
G01*
X9307575Y6305042D01*
X9390634Y6388100D02*
G01*
X9390634Y6221729D01*
X9460991Y7587742D02*
G01*
X9294875Y7587742D01*
X9377934Y7670800D02*
G01*
X9377934Y7504429D01*
X9365234Y8166100D02*
G01*
X9365234Y7999729D01*
X9339834Y6908800D02*
G01*
X9339834Y6742429D01*
X9339834Y5791200D02*
G01*
X9339834Y5624829D01*
X9854691Y4450842D02*
G01*
X9688575Y4450842D01*
X9771634Y4533900D02*
G01*
X9771634Y4367529D01*
X9784334Y2717800D02*
G01*
X9784334Y2551429D01*
X9895077Y4051300D02*
G01*
X9701275Y4051300D01*
X9895077Y4051300D02*
G01*
X9895077Y3968242D01*
X9885934Y3940555D01*
X9876790Y3931157D01*
X9858247Y3922013D01*
X9839706Y3922013D01*
X9821163Y3931157D01*
X9812020Y3940555D01*
X9802875Y3968242D01*
X9802875Y4051300D02*
G01*
X9802875Y3968242D01*
X9793477Y3940555D01*
X9784334Y3931157D01*
X9765791Y3922013D01*
X9738106Y3922013D01*
X9719563Y3931157D01*
X9710420Y3940555D01*
X9701275Y3968242D01*
X9701275Y4051300D01*
X9830561Y3750310D02*
G01*
X9701275Y3750310D01*
X9802875Y3750310D02*
G01*
X9821163Y3768597D01*
X9830561Y3787139D01*
X9830561Y3814826D01*
X9821163Y3833368D01*
X9802875Y3851910D01*
X9775190Y3861054D01*
X9756647Y3861054D01*
X9728961Y3851910D01*
X9710420Y3833368D01*
X9701275Y3814826D01*
X9701275Y3787139D01*
X9710420Y3768597D01*
X9728961Y3750310D01*
X9895077Y3661410D02*
G01*
X9738106Y3661410D01*
X9710420Y3652265D01*
X9701275Y3633723D01*
X9701275Y3615436D01*
X9830561Y3689350D02*
G01*
X9830561Y3624579D01*
X9895077Y3526789D02*
G01*
X9738106Y3526789D01*
X9710420Y3517392D01*
X9701275Y3498850D01*
X9701275Y3480562D01*
X9830561Y3554476D02*
G01*
X9830561Y3489705D01*
X9775190Y3419602D02*
G01*
X9775190Y3308604D01*
X9793477Y3308604D01*
X9812020Y3318002D01*
X9821163Y3327145D01*
X9830561Y3345687D01*
X9830561Y3373373D01*
X9821163Y3391915D01*
X9802875Y3410204D01*
X9775190Y3419602D01*
X9756647Y3419602D01*
X9728961Y3410204D01*
X9710420Y3391915D01*
X9701275Y3373373D01*
X9701275Y3345687D01*
X9710420Y3327145D01*
X9728961Y3308604D01*
X9830561Y3247644D02*
G01*
X9701275Y3247644D01*
X9775190Y3247644D02*
G01*
X9802875Y3238500D01*
X9821163Y3219957D01*
X9830561Y3201670D01*
X9830561Y3173729D01*
X9830561Y3103626D02*
G01*
X9701275Y3048254D01*
X9830561Y2992881D02*
G01*
X9701275Y3048254D01*
X9664191Y3066795D01*
X9645650Y3085084D01*
X9636506Y3103626D01*
X9636506Y3112770D01*
X7124700Y8334247D02*
G01*
X7143241Y8343392D01*
X7170927Y8371078D01*
X7170927Y8177276D01*
X7241031Y8324850D02*
G01*
X7241031Y8334247D01*
X7250429Y8352789D01*
X7259574Y8361934D01*
X7278115Y8371078D01*
X7314945Y8371078D01*
X7333488Y8361934D01*
X7342631Y8352789D01*
X7352029Y8334247D01*
X7352029Y8315705D01*
X7342631Y8297163D01*
X7324090Y8269478D01*
X7231888Y8177276D01*
X7361174Y8177276D01*
X7422134Y8371078D02*
G01*
X7496047Y8177276D01*
X7569961Y8371078D02*
G01*
X7496047Y8177276D01*
X7241286Y8038592D02*
G01*
X7222743Y8057134D01*
X7195058Y8066278D01*
X7158227Y8066278D01*
X7130541Y8057134D01*
X7112000Y8038592D01*
X7112000Y8020050D01*
X7121143Y8001762D01*
X7130541Y7992363D01*
X7148829Y7983220D01*
X7204456Y7964678D01*
X7222743Y7955534D01*
X7232141Y7946389D01*
X7241286Y7927847D01*
X7241286Y7900162D01*
X7222743Y7881620D01*
X7195058Y7872476D01*
X7158227Y7872476D01*
X7130541Y7881620D01*
X7112000Y7900162D01*
X7302245Y8001762D02*
G01*
X7302245Y7909305D01*
X7311390Y7881620D01*
X7329931Y7872476D01*
X7357618Y7872476D01*
X7376159Y7881620D01*
X7403845Y7909305D01*
X7403845Y8001762D02*
G01*
X7403845Y7872476D01*
X7464806Y8001762D02*
G01*
X7464806Y7807705D01*
X7464806Y7974076D02*
G01*
X7483347Y7992363D01*
X7501890Y8001762D01*
X7529575Y8001762D01*
X7547863Y7992363D01*
X7566406Y7974076D01*
X7575550Y7946389D01*
X7575550Y7927847D01*
X7566406Y7900162D01*
X7547863Y7881620D01*
X7529575Y7872476D01*
X7501890Y7872476D01*
X7483347Y7881620D01*
X7464806Y7900162D01*
X7636509Y8001762D02*
G01*
X7636509Y7807705D01*
X7636509Y7974076D02*
G01*
X7655052Y7992363D01*
X7673593Y8001762D01*
X7701279Y8001762D01*
X7719822Y7992363D01*
X7738109Y7974076D01*
X7747508Y7946389D01*
X7747508Y7927847D01*
X7738109Y7900162D01*
X7719822Y7881620D01*
X7701279Y7872476D01*
X7673593Y7872476D01*
X7655052Y7881620D01*
X7636509Y7900162D01*
X7808468Y8066278D02*
G01*
X7808468Y7872476D01*
X7878572Y8001762D02*
G01*
X7933943Y7872476D01*
X7989570Y8001762D02*
G01*
X7933943Y7872476D01*
X7915656Y7835392D01*
X7897113Y7816850D01*
X7878572Y7807705D01*
X7869427Y7807705D01*
X8192770Y8066278D02*
G01*
X8192770Y7872476D01*
X8253729Y8001762D02*
G01*
X8253729Y7872476D01*
X8253729Y7964678D02*
G01*
X8281415Y7992363D01*
X8299704Y8001762D01*
X8327390Y8001762D01*
X8345931Y7992363D01*
X8355329Y7964678D01*
X8355329Y7872476D01*
X8416290Y8001762D02*
G01*
X8416290Y7807705D01*
X8416290Y7974076D02*
G01*
X8434577Y7992363D01*
X8453120Y8001762D01*
X8480806Y8001762D01*
X8499347Y7992363D01*
X8517890Y7974076D01*
X8527034Y7946389D01*
X8527034Y7927847D01*
X8517890Y7900162D01*
X8499347Y7881620D01*
X8480806Y7872476D01*
X8453120Y7872476D01*
X8434577Y7881620D01*
X8416290Y7900162D01*
X8587993Y8001762D02*
G01*
X8587993Y7909305D01*
X8597138Y7881620D01*
X8615679Y7872476D01*
X8643365Y7872476D01*
X8661908Y7881620D01*
X8689593Y7909305D01*
X8689593Y8001762D02*
G01*
X8689593Y7872476D01*
X8778240Y8066278D02*
G01*
X8778240Y7909305D01*
X8787384Y7881620D01*
X8805925Y7872476D01*
X8824468Y7872476D01*
X8750554Y8001762D02*
G01*
X8815070Y8001762D01*
D11*
X7050277Y4763007D02*
G01*
X7044943Y4773421D01*
X7034529Y4783836D01*
X7024370Y4788915D01*
X7003541Y4788915D01*
X6993127Y4783836D01*
X6982713Y4773421D01*
X6977379Y4763007D01*
X6972300Y4747260D01*
X6972300Y4721352D01*
X6977379Y4705857D01*
X6982713Y4695444D01*
X6993127Y4685029D01*
X7003541Y4679950D01*
X7024370Y4679950D01*
X7034529Y4685029D01*
X7044943Y4695444D01*
X7050277Y4705857D01*
X7089647Y4763007D02*
G01*
X7089647Y4768087D01*
X7094981Y4778502D01*
X7100061Y4783836D01*
X7110475Y4788915D01*
X7131304Y4788915D01*
X7141718Y4783836D01*
X7146797Y4778502D01*
X7152131Y4768087D01*
X7152131Y4757673D01*
X7146797Y4747260D01*
X7136384Y4731765D01*
X7084568Y4679950D01*
X7157211Y4679950D01*
X7050277Y5080507D02*
G01*
X7044943Y5090921D01*
X7034529Y5101336D01*
X7024370Y5106415D01*
X7003541Y5106415D01*
X6993127Y5101336D01*
X6982713Y5090921D01*
X6977379Y5080507D01*
X6972300Y5064760D01*
X6972300Y5038852D01*
X6977379Y5023357D01*
X6982713Y5012944D01*
X6993127Y5002529D01*
X7003541Y4997450D01*
X7024370Y4997450D01*
X7034529Y5002529D01*
X7044943Y5012944D01*
X7050277Y5023357D01*
X7094981Y5106415D02*
G01*
X7152131Y5106415D01*
X7120890Y5064760D01*
X7136384Y5064760D01*
X7146797Y5059679D01*
X7152131Y5054600D01*
X7157211Y5038852D01*
X7157211Y5028437D01*
X7152131Y5012944D01*
X7141718Y5002529D01*
X7125970Y4997450D01*
X7110475Y4997450D01*
X7094981Y5002529D01*
X7089647Y5007610D01*
X7084568Y5018023D01*
X8268208Y4824221D02*
G01*
X8278622Y4829555D01*
X8289036Y4839970D01*
X8294115Y4850129D01*
X8294115Y4870957D01*
X8289036Y4881371D01*
X8278622Y4891786D01*
X8268208Y4897120D01*
X8252459Y4902200D01*
X8226552Y4902200D01*
X8211058Y4897120D01*
X8200643Y4891786D01*
X8190229Y4881371D01*
X8185150Y4870957D01*
X8185150Y4850129D01*
X8190229Y4839970D01*
X8200643Y4829555D01*
X8211058Y4824221D01*
X8294115Y4738115D02*
G01*
X8221472Y4789931D01*
X8221472Y4711954D01*
X8294115Y4738115D02*
G01*
X8185150Y4738115D01*
X8268208Y5446521D02*
G01*
X8278622Y5451855D01*
X8289036Y5462270D01*
X8294115Y5472429D01*
X8294115Y5493257D01*
X8289036Y5503671D01*
X8278622Y5514086D01*
X8268208Y5519420D01*
X8252459Y5524500D01*
X8226552Y5524500D01*
X8211058Y5519420D01*
X8200643Y5514086D01*
X8190229Y5503671D01*
X8185150Y5493257D01*
X8185150Y5472429D01*
X8190229Y5462270D01*
X8200643Y5451855D01*
X8211058Y5446521D01*
X8294115Y5350002D02*
G01*
X8294115Y5401818D01*
X8247379Y5407152D01*
X8252459Y5401818D01*
X8257793Y5386323D01*
X8257793Y5370829D01*
X8252459Y5355081D01*
X8242300Y5344668D01*
X8226552Y5339587D01*
X8216138Y5339587D01*
X8200643Y5344668D01*
X8190229Y5355081D01*
X8185150Y5370829D01*
X8185150Y5386323D01*
X8190229Y5401818D01*
X8195309Y5407152D01*
X8205724Y5412231D01*
X8180577Y7455408D02*
G01*
X8175243Y7465821D01*
X8164829Y7476236D01*
X8154670Y7481315D01*
X8133841Y7481315D01*
X8123427Y7476236D01*
X8113013Y7465821D01*
X8107679Y7455408D01*
X8102600Y7439660D01*
X8102600Y7413752D01*
X8107679Y7398258D01*
X8113013Y7387844D01*
X8123427Y7377429D01*
X8133841Y7372350D01*
X8154670Y7372350D01*
X8164829Y7377429D01*
X8175243Y7387844D01*
X8180577Y7398258D01*
X8277097Y7465821D02*
G01*
X8272018Y7476236D01*
X8256270Y7481315D01*
X8246109Y7481315D01*
X8230361Y7476236D01*
X8219947Y7460487D01*
X8214868Y7434579D01*
X8214868Y7408671D01*
X8219947Y7387844D01*
X8230361Y7377429D01*
X8246109Y7372350D01*
X8251190Y7372350D01*
X8266684Y7377429D01*
X8277097Y7387844D01*
X8282431Y7403337D01*
X8282431Y7408671D01*
X8277097Y7424165D01*
X8266684Y7434579D01*
X8251190Y7439660D01*
X8246109Y7439660D01*
X8230361Y7434579D01*
X8219947Y7424165D01*
X8214868Y7408671D01*
X7405877Y7442708D02*
G01*
X7400543Y7453121D01*
X7390129Y7463536D01*
X7379970Y7468615D01*
X7359141Y7468615D01*
X7348727Y7463536D01*
X7338313Y7453121D01*
X7332979Y7442708D01*
X7327900Y7426960D01*
X7327900Y7401052D01*
X7332979Y7385558D01*
X7338313Y7375144D01*
X7348727Y7364729D01*
X7359141Y7359650D01*
X7379970Y7359650D01*
X7390129Y7364729D01*
X7400543Y7375144D01*
X7405877Y7385558D01*
X7512811Y7468615D02*
G01*
X7460995Y7359650D01*
X7440168Y7468615D02*
G01*
X7512811Y7468615D01*
X8342122Y4101592D02*
G01*
X8347456Y4091178D01*
X8357870Y4080763D01*
X8368029Y4075684D01*
X8388858Y4075684D01*
X8399272Y4080763D01*
X8409686Y4091178D01*
X8415020Y4101592D01*
X8420100Y4117339D01*
X8420100Y4143247D01*
X8415020Y4158742D01*
X8409686Y4169155D01*
X8399272Y4179570D01*
X8388858Y4184650D01*
X8368029Y4184650D01*
X8357870Y4179570D01*
X8347456Y4169155D01*
X8342122Y4158742D01*
X8281924Y4075684D02*
G01*
X8297418Y4080763D01*
X8302752Y4091178D01*
X8302752Y4101592D01*
X8297418Y4112005D01*
X8287004Y4117339D01*
X8266429Y4122420D01*
X8250681Y4127500D01*
X8240268Y4137913D01*
X8235188Y4148328D01*
X8235188Y4164076D01*
X8240268Y4174489D01*
X8245602Y4179570D01*
X8261095Y4184650D01*
X8281924Y4184650D01*
X8297418Y4179570D01*
X8302752Y4174489D01*
X8307831Y4164076D01*
X8307831Y4148328D01*
X8302752Y4137913D01*
X8292338Y4127500D01*
X8276590Y4122420D01*
X8256015Y4117339D01*
X8245602Y4112005D01*
X8240268Y4101592D01*
X8240268Y4091178D01*
X8245602Y4080763D01*
X8261095Y4075684D01*
X8281924Y4075684D01*
X8040877Y3124707D02*
G01*
X8035543Y3135121D01*
X8025129Y3145536D01*
X8014970Y3150615D01*
X7994141Y3150615D01*
X7983727Y3145536D01*
X7973313Y3135121D01*
X7967979Y3124707D01*
X7962900Y3108960D01*
X7962900Y3083052D01*
X7967979Y3067557D01*
X7973313Y3057144D01*
X7983727Y3046729D01*
X7994141Y3041650D01*
X8014970Y3041650D01*
X8025129Y3046729D01*
X8035543Y3057144D01*
X8040877Y3067557D01*
X8142731Y3114294D02*
G01*
X8137397Y3098800D01*
X8126984Y3088386D01*
X8111490Y3083052D01*
X8106409Y3083052D01*
X8090661Y3088386D01*
X8080247Y3098800D01*
X8075168Y3114294D01*
X8075168Y3119373D01*
X8080247Y3135121D01*
X8090661Y3145536D01*
X8106409Y3150615D01*
X8111490Y3150615D01*
X8126984Y3145536D01*
X8137397Y3135121D01*
X8142731Y3114294D01*
X8142731Y3088386D01*
X8137397Y3062223D01*
X8126984Y3046729D01*
X8111490Y3041650D01*
X8101075Y3041650D01*
X8085581Y3046729D01*
X8080247Y3057144D01*
X8231377Y3023107D02*
G01*
X8226043Y3033521D01*
X8215629Y3043936D01*
X8205470Y3049015D01*
X8184641Y3049015D01*
X8174227Y3043936D01*
X8163813Y3033521D01*
X8158479Y3023107D01*
X8153400Y3007360D01*
X8153400Y2981452D01*
X8158479Y2965957D01*
X8163813Y2955544D01*
X8174227Y2945129D01*
X8184641Y2940050D01*
X8205470Y2940050D01*
X8215629Y2945129D01*
X8226043Y2955544D01*
X8231377Y2965957D01*
X8265668Y3028187D02*
G01*
X8276081Y3033521D01*
X8291575Y3049015D01*
X8291575Y2940050D01*
X8357108Y3049015D02*
G01*
X8341359Y3043936D01*
X8331200Y3028187D01*
X8325865Y3002279D01*
X8325865Y2986786D01*
X8331200Y2960623D01*
X8341359Y2945129D01*
X8357108Y2940050D01*
X8367522Y2940050D01*
X8383015Y2945129D01*
X8393429Y2960623D01*
X8398509Y2986786D01*
X8398509Y3002279D01*
X8393429Y3028187D01*
X8383015Y3043936D01*
X8367522Y3049015D01*
X8357108Y3049015D01*
X8546591Y2084578D02*
G01*
X8536177Y2079244D01*
X8525763Y2068829D01*
X8520684Y2058670D01*
X8520684Y2037842D01*
X8525763Y2027428D01*
X8536177Y2017013D01*
X8546591Y2011679D01*
X8562340Y2006600D01*
X8588247Y2006600D01*
X8603741Y2011679D01*
X8614156Y2017013D01*
X8624570Y2027428D01*
X8629650Y2037842D01*
X8629650Y2058670D01*
X8624570Y2068829D01*
X8614156Y2079244D01*
X8603741Y2084578D01*
X8541511Y2118868D02*
G01*
X8536177Y2129281D01*
X8520684Y2144776D01*
X8629650Y2144776D01*
X8541511Y2179065D02*
G01*
X8536177Y2189479D01*
X8520684Y2204973D01*
X8629650Y2204973D01*
X3506977Y1537207D02*
G01*
X3501643Y1547621D01*
X3491229Y1558036D01*
X3481070Y1563115D01*
X3460241Y1563115D01*
X3449827Y1558036D01*
X3439413Y1547621D01*
X3434079Y1537207D01*
X3429000Y1521460D01*
X3429000Y1495552D01*
X3434079Y1480057D01*
X3439413Y1469644D01*
X3449827Y1459229D01*
X3460241Y1454150D01*
X3481070Y1454150D01*
X3491229Y1459229D01*
X3501643Y1469644D01*
X3506977Y1480057D01*
X3541268Y1542287D02*
G01*
X3551681Y1547621D01*
X3567175Y1563115D01*
X3567175Y1454150D01*
X3606800Y1537207D02*
G01*
X3606800Y1542287D01*
X3611879Y1552702D01*
X3616959Y1558036D01*
X3627374Y1563115D01*
X3648202Y1563115D01*
X3658615Y1558036D01*
X3663950Y1552702D01*
X3669029Y1542287D01*
X3669029Y1531873D01*
X3663950Y1521460D01*
X3653536Y1505965D01*
X3601465Y1454150D01*
X3674109Y1454150D01*
X2082291Y3532378D02*
G01*
X2071877Y3527044D01*
X2061463Y3516629D01*
X2056384Y3506470D01*
X2056384Y3485642D01*
X2061463Y3475228D01*
X2071877Y3464813D01*
X2082291Y3459479D01*
X2098040Y3454400D01*
X2123947Y3454400D01*
X2139441Y3459479D01*
X2149856Y3464813D01*
X2160270Y3475228D01*
X2165350Y3485642D01*
X2165350Y3506470D01*
X2160270Y3516629D01*
X2149856Y3527044D01*
X2139441Y3532378D01*
X2077211Y3566668D02*
G01*
X2071877Y3577081D01*
X2056384Y3592576D01*
X2165350Y3592576D01*
X2056384Y3637279D02*
G01*
X2056384Y3694429D01*
X2098040Y3663187D01*
X2098040Y3678936D01*
X2103120Y3689350D01*
X2108200Y3694429D01*
X2123947Y3699510D01*
X2134361Y3699510D01*
X2149856Y3694429D01*
X2160270Y3684015D01*
X2165350Y3668521D01*
X2165350Y3652773D01*
X2160270Y3637279D01*
X2155190Y3632200D01*
X2144775Y3626865D01*
X2946908Y3605021D02*
G01*
X2957322Y3610355D01*
X2967736Y3620770D01*
X2972815Y3630929D01*
X2972815Y3651757D01*
X2967736Y3662171D01*
X2957322Y3672586D01*
X2946908Y3677920D01*
X2931159Y3683000D01*
X2905252Y3683000D01*
X2889758Y3677920D01*
X2879343Y3672586D01*
X2868929Y3662171D01*
X2863850Y3651757D01*
X2863850Y3630929D01*
X2868929Y3620770D01*
X2879343Y3610355D01*
X2889758Y3605021D01*
X2951988Y3570731D02*
G01*
X2957322Y3560318D01*
X2972815Y3544823D01*
X2863850Y3544823D01*
X2972815Y3458463D02*
G01*
X2900172Y3510534D01*
X2900172Y3432555D01*
X2972815Y3458463D02*
G01*
X2863850Y3458463D01*
X3886708Y2970021D02*
G01*
X3897122Y2975355D01*
X3907536Y2985770D01*
X3912615Y2995929D01*
X3912615Y3016757D01*
X3907536Y3027171D01*
X3897122Y3037586D01*
X3886708Y3042920D01*
X3870959Y3048000D01*
X3845052Y3048000D01*
X3829558Y3042920D01*
X3819143Y3037586D01*
X3808729Y3027171D01*
X3803650Y3016757D01*
X3803650Y2995929D01*
X3808729Y2985770D01*
X3819143Y2975355D01*
X3829558Y2970021D01*
X3891788Y2935731D02*
G01*
X3897122Y2925318D01*
X3912615Y2909823D01*
X3803650Y2909823D01*
X3912615Y2813050D02*
G01*
X3912615Y2865120D01*
X3865879Y2870200D01*
X3870959Y2865120D01*
X3876293Y2849626D01*
X3876293Y2833878D01*
X3870959Y2818384D01*
X3860800Y2807970D01*
X3845052Y2802889D01*
X3834638Y2802889D01*
X3819143Y2807970D01*
X3808729Y2818384D01*
X3803650Y2833878D01*
X3803650Y2849626D01*
X3808729Y2865120D01*
X3813809Y2870200D01*
X3824224Y2875534D01*
X1817878Y4648707D02*
G01*
X1812544Y4659121D01*
X1802129Y4669536D01*
X1791970Y4674615D01*
X1771142Y4674615D01*
X1760728Y4669536D01*
X1750313Y4659121D01*
X1744979Y4648707D01*
X1739900Y4632960D01*
X1739900Y4607052D01*
X1744979Y4591557D01*
X1750313Y4581144D01*
X1760728Y4570729D01*
X1771142Y4565650D01*
X1791970Y4565650D01*
X1802129Y4570729D01*
X1812544Y4581144D01*
X1817878Y4591557D01*
X1852168Y4653787D02*
G01*
X1862581Y4659121D01*
X1878076Y4674615D01*
X1878076Y4565650D01*
X1974850Y4659121D02*
G01*
X1969515Y4669536D01*
X1954022Y4674615D01*
X1943608Y4674615D01*
X1927860Y4669536D01*
X1917700Y4653787D01*
X1912365Y4627879D01*
X1912365Y4601971D01*
X1917700Y4581144D01*
X1927860Y4570729D01*
X1943608Y4565650D01*
X1948688Y4565650D01*
X1964436Y4570729D01*
X1974850Y4581144D01*
X1979929Y4596637D01*
X1979929Y4601971D01*
X1974850Y4617465D01*
X1964436Y4627879D01*
X1948688Y4632960D01*
X1943608Y4632960D01*
X1927860Y4627879D01*
X1917700Y4617465D01*
X1912365Y4601971D01*
X1030478Y5626607D02*
G01*
X1025144Y5637021D01*
X1014729Y5647436D01*
X1004570Y5652515D01*
X983742Y5652515D01*
X973328Y5647436D01*
X962913Y5637021D01*
X957579Y5626607D01*
X952500Y5610860D01*
X952500Y5584952D01*
X957579Y5569457D01*
X962913Y5559044D01*
X973328Y5548629D01*
X983742Y5543550D01*
X1004570Y5543550D01*
X1014729Y5548629D01*
X1025144Y5559044D01*
X1030478Y5569457D01*
X1064768Y5631687D02*
G01*
X1075181Y5637021D01*
X1090676Y5652515D01*
X1090676Y5543550D01*
X1197610Y5652515D02*
G01*
X1145794Y5543550D01*
X1124965Y5652515D02*
G01*
X1197610Y5652515D01*
X1005078Y5334507D02*
G01*
X999744Y5344921D01*
X989329Y5355336D01*
X979170Y5360415D01*
X958342Y5360415D01*
X947928Y5355336D01*
X937513Y5344921D01*
X932179Y5334507D01*
X927100Y5318760D01*
X927100Y5292852D01*
X932179Y5277357D01*
X937513Y5266944D01*
X947928Y5256529D01*
X958342Y5251450D01*
X979170Y5251450D01*
X989329Y5256529D01*
X999744Y5266944D01*
X1005078Y5277357D01*
X1039368Y5339587D02*
G01*
X1049781Y5344921D01*
X1065276Y5360415D01*
X1065276Y5251450D01*
X1125473Y5360415D02*
G01*
X1109979Y5355336D01*
X1104900Y5344921D01*
X1104900Y5334507D01*
X1109979Y5324094D01*
X1120394Y5318760D01*
X1141221Y5313679D01*
X1156715Y5308600D01*
X1167129Y5298186D01*
X1172210Y5287771D01*
X1172210Y5272023D01*
X1167129Y5261610D01*
X1162050Y5256529D01*
X1146302Y5251450D01*
X1125473Y5251450D01*
X1109979Y5256529D01*
X1104900Y5261610D01*
X1099565Y5272023D01*
X1099565Y5287771D01*
X1104900Y5298186D01*
X1115060Y5308600D01*
X1130807Y5313679D01*
X1151636Y5318760D01*
X1162050Y5324094D01*
X1167129Y5334507D01*
X1167129Y5344921D01*
X1162050Y5355336D01*
X1146302Y5360415D01*
X1125473Y5360415D01*
X2275077Y4115307D02*
G01*
X2269743Y4125721D01*
X2259329Y4136136D01*
X2249170Y4141215D01*
X2228341Y4141215D01*
X2217927Y4136136D01*
X2207513Y4125721D01*
X2202179Y4115307D01*
X2197100Y4099560D01*
X2197100Y4073652D01*
X2202179Y4058157D01*
X2207513Y4047744D01*
X2217927Y4037329D01*
X2228341Y4032250D01*
X2249170Y4032250D01*
X2259329Y4037329D01*
X2269743Y4047744D01*
X2275077Y4058157D01*
X2309368Y4120387D02*
G01*
X2319781Y4125721D01*
X2335275Y4141215D01*
X2335275Y4032250D01*
X2437129Y4104894D02*
G01*
X2432050Y4089400D01*
X2421636Y4078986D01*
X2405888Y4073652D01*
X2400808Y4073652D01*
X2385059Y4078986D01*
X2374900Y4089400D01*
X2369565Y4104894D01*
X2369565Y4109973D01*
X2374900Y4125721D01*
X2385059Y4136136D01*
X2400808Y4141215D01*
X2405888Y4141215D01*
X2421636Y4136136D01*
X2432050Y4125721D01*
X2437129Y4104894D01*
X2437129Y4078986D01*
X2432050Y4052823D01*
X2421636Y4037329D01*
X2405888Y4032250D01*
X2395474Y4032250D01*
X2379979Y4037329D01*
X2374900Y4047744D01*
X5540438Y5015712D02*
G01*
X5540438Y4906746D01*
X5540438Y5015712D02*
G01*
X5576760Y5015712D01*
X5592508Y5010632D01*
X5602668Y5000218D01*
X5608002Y4989804D01*
X5613082Y4974056D01*
X5613082Y4948148D01*
X5608002Y4932654D01*
X5602668Y4922240D01*
X5592508Y4911826D01*
X5576760Y4906746D01*
X5540438Y4906746D01*
X5647372Y4994884D02*
G01*
X5657786Y5000218D01*
X5673534Y5015712D01*
X5673534Y4906746D01*
X5597461Y4026687D02*
G01*
X5597461Y4135653D01*
X5597461Y4026687D02*
G01*
X5561139Y4026687D01*
X5545391Y4031767D01*
X5535231Y4042181D01*
X5529897Y4052595D01*
X5524817Y4068343D01*
X5524817Y4094251D01*
X5529897Y4109745D01*
X5535231Y4120159D01*
X5545391Y4130573D01*
X5561139Y4135653D01*
X5597461Y4135653D01*
X5485193Y4052595D02*
G01*
X5485193Y4047515D01*
X5480113Y4037101D01*
X5474779Y4031767D01*
X5464365Y4026687D01*
X5443791Y4026687D01*
X5433377Y4031767D01*
X5428043Y4037101D01*
X5422963Y4047515D01*
X5422963Y4057929D01*
X5428043Y4068343D01*
X5438457Y4083837D01*
X5490527Y4135653D01*
X5417629Y4135653D01*
X1154684Y7390079D02*
G01*
X1263650Y7390079D01*
X1154684Y7390079D02*
G01*
X1154684Y7426401D01*
X1159763Y7442149D01*
X1170178Y7452309D01*
X1180592Y7457643D01*
X1196339Y7462723D01*
X1222247Y7462723D01*
X1237742Y7457643D01*
X1248155Y7452309D01*
X1258570Y7442149D01*
X1263650Y7426401D01*
X1263650Y7390079D01*
X1154684Y7507427D02*
G01*
X1154684Y7564577D01*
X1196339Y7533589D01*
X1196339Y7549083D01*
X1201420Y7559497D01*
X1206500Y7564577D01*
X1222247Y7569911D01*
X1232662Y7569911D01*
X1248155Y7564577D01*
X1258570Y7554163D01*
X1263650Y7538669D01*
X1263650Y7523175D01*
X1258570Y7507427D01*
X1253489Y7502347D01*
X1243076Y7497013D01*
X5627420Y672084D02*
G01*
X5627420Y781050D01*
X5627420Y672084D02*
G01*
X5591098Y672084D01*
X5575350Y677163D01*
X5565190Y687578D01*
X5559856Y697992D01*
X5554776Y713739D01*
X5554776Y739647D01*
X5559856Y755142D01*
X5565190Y765555D01*
X5575350Y775970D01*
X5591098Y781050D01*
X5627420Y781050D01*
X5468416Y672084D02*
G01*
X5520486Y744728D01*
X5442508Y744728D01*
X5468416Y672084D02*
G01*
X5468416Y781050D01*
X1639315Y7951520D02*
G01*
X1530350Y7951520D01*
X1639315Y7951520D02*
G01*
X1639315Y7915198D01*
X1634236Y7899450D01*
X1623821Y7889290D01*
X1613407Y7883956D01*
X1597660Y7878876D01*
X1571752Y7878876D01*
X1556257Y7883956D01*
X1545844Y7889290D01*
X1535429Y7899450D01*
X1530350Y7915198D01*
X1530350Y7951520D01*
X1639315Y7782102D02*
G01*
X1639315Y7834172D01*
X1592579Y7839252D01*
X1597660Y7834172D01*
X1602994Y7818424D01*
X1602994Y7802930D01*
X1597660Y7787436D01*
X1587500Y7777022D01*
X1571752Y7771688D01*
X1561337Y7771688D01*
X1545844Y7777022D01*
X1535429Y7787436D01*
X1530350Y7802930D01*
X1530350Y7818424D01*
X1535429Y7834172D01*
X1540510Y7839252D01*
X1550923Y7844586D01*
X8319008Y5411723D02*
G01*
X8427974Y5411723D01*
X8319008Y5411723D02*
G01*
X8319008Y5458460D01*
X8324088Y5473954D01*
X8329422Y5479287D01*
X8339836Y5484368D01*
X8355329Y5484368D01*
X8365743Y5479287D01*
X8370824Y5473954D01*
X8376158Y5458460D01*
X8376158Y5411723D01*
X8339836Y5518657D02*
G01*
X8334502Y5529071D01*
X8319008Y5544820D01*
X8427974Y5544820D01*
X8331708Y6554723D02*
G01*
X8440674Y6554723D01*
X8331708Y6554723D02*
G01*
X8331708Y6601460D01*
X8336788Y6616954D01*
X8342122Y6622287D01*
X8352536Y6627368D01*
X8368029Y6627368D01*
X8378443Y6622287D01*
X8383524Y6616954D01*
X8388858Y6601460D01*
X8388858Y6554723D01*
X8357615Y6666992D02*
G01*
X8352536Y6666992D01*
X8342122Y6672071D01*
X8336788Y6677405D01*
X8331708Y6687820D01*
X8331708Y6708394D01*
X8336788Y6718808D01*
X8342122Y6724142D01*
X8352536Y6729221D01*
X8362950Y6729221D01*
X8373363Y6724142D01*
X8388858Y6713728D01*
X8440674Y6661658D01*
X8440674Y6734555D01*
X8306308Y7812023D02*
G01*
X8415274Y7812023D01*
X8306308Y7812023D02*
G01*
X8306308Y7858760D01*
X8311388Y7874254D01*
X8316722Y7879587D01*
X8327136Y7884668D01*
X8342629Y7884668D01*
X8353043Y7879587D01*
X8358124Y7874254D01*
X8363458Y7858760D01*
X8363458Y7812023D01*
X8306308Y7929371D02*
G01*
X8306308Y7986521D01*
X8347963Y7955534D01*
X8347963Y7971028D01*
X8353043Y7981442D01*
X8358124Y7986521D01*
X8373872Y7991855D01*
X8384286Y7991855D01*
X8399779Y7986521D01*
X8410193Y7976108D01*
X8415274Y7960613D01*
X8415274Y7945120D01*
X8410193Y7929371D01*
X8405113Y7924292D01*
X8394700Y7918958D01*
X4501641Y7163815D02*
G01*
X4491227Y7158736D01*
X4480813Y7148321D01*
X4475479Y7137908D01*
X4470400Y7122160D01*
X4470400Y7096252D01*
X4475479Y7080758D01*
X4480813Y7070344D01*
X4491227Y7059929D01*
X4501641Y7054850D01*
X4522470Y7054850D01*
X4532629Y7059929D01*
X4543043Y7070344D01*
X4548377Y7080758D01*
X4553458Y7096252D01*
X4553458Y7122160D01*
X4548377Y7137908D01*
X4543043Y7148321D01*
X4532629Y7158736D01*
X4522470Y7163815D01*
X4501641Y7163815D01*
X4517136Y7075423D02*
G01*
X4548377Y7044436D01*
X4650231Y7163815D02*
G01*
X4598161Y7163815D01*
X4593081Y7117079D01*
X4598161Y7122160D01*
X4613909Y7127494D01*
X4629404Y7127494D01*
X4644897Y7122160D01*
X4655311Y7112000D01*
X4660645Y7096252D01*
X4660645Y7085837D01*
X4655311Y7070344D01*
X4644897Y7059929D01*
X4629404Y7054850D01*
X4613909Y7054850D01*
X4598161Y7059929D01*
X4593081Y7065010D01*
X4587747Y7075423D01*
X2947441Y7540612D02*
G01*
X2942361Y7551026D01*
X2931947Y7561440D01*
X2921533Y7566774D01*
X2905785Y7571854D01*
X2879877Y7571854D01*
X2864383Y7566774D01*
X2853969Y7561440D01*
X2843555Y7551026D01*
X2838475Y7540612D01*
X2838475Y7519784D01*
X2843555Y7509624D01*
X2853969Y7499210D01*
X2864383Y7493876D01*
X2879877Y7488796D01*
X2905785Y7488796D01*
X2921533Y7493876D01*
X2931947Y7499210D01*
X2942361Y7509624D01*
X2947441Y7519784D01*
X2947441Y7540612D01*
X2859049Y7525118D02*
G01*
X2828061Y7493876D01*
X2947441Y7444092D02*
G01*
X2947441Y7386942D01*
X2905785Y7418184D01*
X2905785Y7402436D01*
X2900705Y7392022D01*
X2895625Y7386942D01*
X2879877Y7381608D01*
X2869463Y7381608D01*
X2853969Y7386942D01*
X2843555Y7397356D01*
X2838475Y7412850D01*
X2838475Y7428344D01*
X2843555Y7444092D01*
X2848635Y7449172D01*
X2859049Y7454506D01*
X2926613Y7347318D02*
G01*
X2931947Y7336904D01*
X2947441Y7321410D01*
X2838475Y7321410D01*
X5352541Y8065515D02*
G01*
X5342127Y8060436D01*
X5331713Y8050021D01*
X5326379Y8039608D01*
X5321300Y8023860D01*
X5321300Y7997952D01*
X5326379Y7982458D01*
X5331713Y7972044D01*
X5342127Y7961629D01*
X5352541Y7956550D01*
X5373370Y7956550D01*
X5383529Y7961629D01*
X5393943Y7972044D01*
X5399277Y7982458D01*
X5404358Y7997952D01*
X5404358Y8023860D01*
X5399277Y8039608D01*
X5393943Y8050021D01*
X5383529Y8060436D01*
X5373370Y8065515D01*
X5352541Y8065515D01*
X5368036Y7977123D02*
G01*
X5399277Y7946136D01*
X5490718Y8065515D02*
G01*
X5438647Y7992871D01*
X5516625Y7992871D01*
X5490718Y8065515D02*
G01*
X5490718Y7956550D01*
X6526784Y1542542D02*
G01*
X6531863Y1532128D01*
X6542277Y1521713D01*
X6552691Y1516379D01*
X6568440Y1511300D01*
X6594347Y1511300D01*
X6609841Y1516379D01*
X6620256Y1521713D01*
X6630670Y1532128D01*
X6635750Y1542542D01*
X6635750Y1563370D01*
X6630670Y1573529D01*
X6620256Y1583944D01*
X6609841Y1589278D01*
X6594347Y1594357D01*
X6568440Y1594357D01*
X6552691Y1589278D01*
X6542277Y1583944D01*
X6531863Y1573529D01*
X6526784Y1563370D01*
X6526784Y1542542D01*
X6615175Y1558036D02*
G01*
X6646163Y1589278D01*
X6542277Y1691131D02*
G01*
X6531863Y1685797D01*
X6526784Y1670304D01*
X6526784Y1659889D01*
X6531863Y1644395D01*
X6547611Y1633981D01*
X6573520Y1628647D01*
X6599427Y1628647D01*
X6620256Y1633981D01*
X6630670Y1644395D01*
X6635750Y1659889D01*
X6635750Y1664970D01*
X6630670Y1680718D01*
X6620256Y1691131D01*
X6604761Y1696212D01*
X6599427Y1696212D01*
X6583934Y1691131D01*
X6573520Y1680718D01*
X6568440Y1664970D01*
X6568440Y1659889D01*
X6573520Y1644395D01*
X6583934Y1633981D01*
X6599427Y1628647D01*
X6558279Y2543810D02*
G01*
X6563359Y2533395D01*
X6573774Y2522981D01*
X6584188Y2517647D01*
X6599936Y2512568D01*
X6625843Y2512568D01*
X6641338Y2517647D01*
X6651752Y2522981D01*
X6662165Y2533395D01*
X6667245Y2543810D01*
X6667245Y2564637D01*
X6662165Y2574797D01*
X6651752Y2585212D01*
X6641338Y2590545D01*
X6625843Y2595626D01*
X6599936Y2595626D01*
X6584188Y2590545D01*
X6573774Y2585212D01*
X6563359Y2574797D01*
X6558279Y2564637D01*
X6558279Y2543810D01*
X6646672Y2559304D02*
G01*
X6677659Y2590545D01*
X6558279Y2702813D02*
G01*
X6667245Y2650744D01*
X6558279Y2629915D02*
G01*
X6558279Y2702813D01*
X6628384Y3269742D02*
G01*
X6633463Y3259328D01*
X6643877Y3248913D01*
X6654291Y3243579D01*
X6670040Y3238500D01*
X6695947Y3238500D01*
X6711441Y3243579D01*
X6721856Y3248913D01*
X6732270Y3259328D01*
X6737350Y3269742D01*
X6737350Y3290570D01*
X6732270Y3300729D01*
X6721856Y3311144D01*
X6711441Y3316478D01*
X6695947Y3321557D01*
X6670040Y3321557D01*
X6654291Y3316478D01*
X6643877Y3311144D01*
X6633463Y3300729D01*
X6628384Y3290570D01*
X6628384Y3269742D01*
X6716775Y3285236D02*
G01*
X6747763Y3316478D01*
X6628384Y3382010D02*
G01*
X6633463Y3366262D01*
X6643877Y3361181D01*
X6654291Y3361181D01*
X6664706Y3366262D01*
X6670040Y3376676D01*
X6675120Y3397504D01*
X6680200Y3412997D01*
X6690613Y3423412D01*
X6701027Y3428745D01*
X6716775Y3428745D01*
X6727190Y3423412D01*
X6732270Y3418331D01*
X6737350Y3402584D01*
X6737350Y3382010D01*
X6732270Y3366262D01*
X6727190Y3361181D01*
X6716775Y3355847D01*
X6701027Y3355847D01*
X6690613Y3361181D01*
X6680200Y3371595D01*
X6675120Y3387089D01*
X6670040Y3407918D01*
X6664706Y3418331D01*
X6654291Y3423412D01*
X6643877Y3423412D01*
X6633463Y3418331D01*
X6628384Y3402584D01*
X6628384Y3382010D01*
X6501384Y564642D02*
G01*
X6506463Y554228D01*
X6516877Y543813D01*
X6527291Y538479D01*
X6543040Y533400D01*
X6568947Y533400D01*
X6584441Y538479D01*
X6594856Y543813D01*
X6605270Y554228D01*
X6610350Y564642D01*
X6610350Y585470D01*
X6605270Y595629D01*
X6594856Y606044D01*
X6584441Y611378D01*
X6568947Y616457D01*
X6543040Y616457D01*
X6527291Y611378D01*
X6516877Y606044D01*
X6506463Y595629D01*
X6501384Y585470D01*
X6501384Y564642D01*
X6589775Y580136D02*
G01*
X6620763Y611378D01*
X6537706Y718312D02*
G01*
X6553200Y713231D01*
X6563613Y702818D01*
X6568947Y687070D01*
X6568947Y681989D01*
X6563613Y666495D01*
X6553200Y656081D01*
X6537706Y650747D01*
X6532625Y650747D01*
X6516877Y656081D01*
X6506463Y666495D01*
X6501384Y681989D01*
X6501384Y687070D01*
X6506463Y702818D01*
X6516877Y713231D01*
X6537706Y718312D01*
X6563613Y718312D01*
X6589775Y713231D01*
X6605270Y702818D01*
X6610350Y687070D01*
X6610350Y676910D01*
X6605270Y661162D01*
X6594856Y656081D01*
X6539484Y3574542D02*
G01*
X6544563Y3564128D01*
X6554977Y3553713D01*
X6565391Y3548379D01*
X6581140Y3543300D01*
X6607047Y3543300D01*
X6622541Y3548379D01*
X6632956Y3553713D01*
X6643370Y3564128D01*
X6648450Y3574542D01*
X6648450Y3595370D01*
X6643370Y3605529D01*
X6632956Y3615944D01*
X6622541Y3621278D01*
X6607047Y3626357D01*
X6581140Y3626357D01*
X6565391Y3621278D01*
X6554977Y3615944D01*
X6544563Y3605529D01*
X6539484Y3595370D01*
X6539484Y3574542D01*
X6627875Y3590036D02*
G01*
X6658863Y3621278D01*
X6560311Y3660647D02*
G01*
X6554977Y3671062D01*
X6539484Y3686810D01*
X6648450Y3686810D01*
X6539484Y3752087D02*
G01*
X6544563Y3736594D01*
X6560311Y3726179D01*
X6586220Y3721100D01*
X6601713Y3721100D01*
X6627875Y3726179D01*
X6643370Y3736594D01*
X6648450Y3752087D01*
X6648450Y3762502D01*
X6643370Y3778250D01*
X6627875Y3788410D01*
X6601713Y3793744D01*
X6586220Y3793744D01*
X6560311Y3788410D01*
X6544563Y3778250D01*
X6539484Y3762502D01*
X6539484Y3752087D01*
X6577584Y2901442D02*
G01*
X6582663Y2891028D01*
X6593077Y2880613D01*
X6603491Y2875279D01*
X6619240Y2870200D01*
X6645147Y2870200D01*
X6660641Y2875279D01*
X6671056Y2880613D01*
X6681470Y2891028D01*
X6686550Y2901442D01*
X6686550Y2922270D01*
X6681470Y2932429D01*
X6671056Y2942844D01*
X6660641Y2948178D01*
X6645147Y2953257D01*
X6619240Y2953257D01*
X6603491Y2948178D01*
X6593077Y2942844D01*
X6582663Y2932429D01*
X6577584Y2922270D01*
X6577584Y2901442D01*
X6665975Y2916936D02*
G01*
X6696963Y2948178D01*
X6598411Y2987547D02*
G01*
X6593077Y2997962D01*
X6577584Y3013710D01*
X6686550Y3013710D01*
X6598411Y3048000D02*
G01*
X6593077Y3058160D01*
X6577584Y3073907D01*
X6686550Y3073907D01*
X6514084Y1872742D02*
G01*
X6519163Y1862328D01*
X6529577Y1851913D01*
X6539991Y1846579D01*
X6555740Y1841500D01*
X6581647Y1841500D01*
X6597141Y1846579D01*
X6607556Y1851913D01*
X6617970Y1862328D01*
X6623050Y1872742D01*
X6623050Y1893570D01*
X6617970Y1903729D01*
X6607556Y1914144D01*
X6597141Y1919478D01*
X6581647Y1924557D01*
X6555740Y1924557D01*
X6539991Y1919478D01*
X6529577Y1914144D01*
X6519163Y1903729D01*
X6514084Y1893570D01*
X6514084Y1872742D01*
X6602475Y1888236D02*
G01*
X6633463Y1919478D01*
X6534911Y1958847D02*
G01*
X6529577Y1969262D01*
X6514084Y1985010D01*
X6623050Y1985010D01*
X6539991Y2024379D02*
G01*
X6534911Y2024379D01*
X6524497Y2029460D01*
X6519163Y2034794D01*
X6514084Y2045207D01*
X6514084Y2066036D01*
X6519163Y2076450D01*
X6524497Y2081529D01*
X6534911Y2086610D01*
X6545325Y2086610D01*
X6555740Y2081529D01*
X6571234Y2071115D01*
X6623050Y2019300D01*
X6623050Y2091944D01*
X6526784Y1021842D02*
G01*
X6531863Y1011428D01*
X6542277Y1001013D01*
X6552691Y995679D01*
X6568440Y990600D01*
X6594347Y990600D01*
X6609841Y995679D01*
X6620256Y1001013D01*
X6630670Y1011428D01*
X6635750Y1021842D01*
X6635750Y1042670D01*
X6630670Y1052829D01*
X6620256Y1063244D01*
X6609841Y1068578D01*
X6594347Y1073657D01*
X6568440Y1073657D01*
X6552691Y1068578D01*
X6542277Y1063244D01*
X6531863Y1052829D01*
X6526784Y1042670D01*
X6526784Y1021842D01*
X6615175Y1037336D02*
G01*
X6646163Y1068578D01*
X6547611Y1107947D02*
G01*
X6542277Y1118362D01*
X6526784Y1134110D01*
X6635750Y1134110D01*
X6526784Y1178560D02*
G01*
X6526784Y1235710D01*
X6568440Y1204721D01*
X6568440Y1220215D01*
X6573520Y1230629D01*
X6578600Y1235710D01*
X6594347Y1241044D01*
X6604761Y1241044D01*
X6620256Y1235710D01*
X6630670Y1225550D01*
X6635750Y1209802D01*
X6635750Y1194307D01*
X6630670Y1178560D01*
X6625590Y1173479D01*
X6615175Y1168400D01*
X8088884Y1428242D02*
G01*
X8093963Y1417828D01*
X8104377Y1407413D01*
X8114791Y1402079D01*
X8130540Y1397000D01*
X8156447Y1397000D01*
X8171941Y1402079D01*
X8182356Y1407413D01*
X8192770Y1417828D01*
X8197850Y1428242D01*
X8197850Y1449070D01*
X8192770Y1459229D01*
X8182356Y1469644D01*
X8171941Y1474978D01*
X8156447Y1480057D01*
X8130540Y1480057D01*
X8114791Y1474978D01*
X8104377Y1469644D01*
X8093963Y1459229D01*
X8088884Y1449070D01*
X8088884Y1428242D01*
X8177275Y1443736D02*
G01*
X8208263Y1474978D01*
X8109711Y1514347D02*
G01*
X8104377Y1524762D01*
X8088884Y1540510D01*
X8197850Y1540510D01*
X8088884Y1626615D02*
G01*
X8161527Y1574800D01*
X8161527Y1652523D01*
X8088884Y1626615D02*
G01*
X8197850Y1626615D01*
X9117584Y1440942D02*
G01*
X9122663Y1430528D01*
X9133077Y1420113D01*
X9143491Y1414779D01*
X9159240Y1409700D01*
X9185147Y1409700D01*
X9200641Y1414779D01*
X9211056Y1420113D01*
X9221470Y1430528D01*
X9226550Y1440942D01*
X9226550Y1461770D01*
X9221470Y1471929D01*
X9211056Y1482344D01*
X9200641Y1487678D01*
X9185147Y1492757D01*
X9159240Y1492757D01*
X9143491Y1487678D01*
X9133077Y1482344D01*
X9122663Y1471929D01*
X9117584Y1461770D01*
X9117584Y1440942D01*
X9205975Y1456436D02*
G01*
X9236963Y1487678D01*
X9138411Y1527047D02*
G01*
X9133077Y1537462D01*
X9117584Y1553210D01*
X9226550Y1553210D01*
X9117584Y1649729D02*
G01*
X9117584Y1597660D01*
X9164320Y1592579D01*
X9159240Y1597660D01*
X9153906Y1613407D01*
X9153906Y1628902D01*
X9159240Y1644650D01*
X9169400Y1654810D01*
X9185147Y1660144D01*
X9195561Y1660144D01*
X9211056Y1654810D01*
X9221470Y1644650D01*
X9226550Y1628902D01*
X9226550Y1613407D01*
X9221470Y1597660D01*
X9216390Y1592579D01*
X9205975Y1587500D01*
X4234941Y1385315D02*
G01*
X4224527Y1380236D01*
X4214113Y1369821D01*
X4208779Y1359407D01*
X4203700Y1343660D01*
X4203700Y1317752D01*
X4208779Y1302257D01*
X4214113Y1291844D01*
X4224527Y1281429D01*
X4234941Y1276350D01*
X4255770Y1276350D01*
X4265929Y1281429D01*
X4276343Y1291844D01*
X4281677Y1302257D01*
X4286758Y1317752D01*
X4286758Y1343660D01*
X4281677Y1359407D01*
X4276343Y1369821D01*
X4265929Y1380236D01*
X4255770Y1385315D01*
X4234941Y1385315D01*
X4250436Y1296923D02*
G01*
X4281677Y1265936D01*
X4326381Y1359407D02*
G01*
X4326381Y1364487D01*
X4331461Y1374902D01*
X4336795Y1380236D01*
X4347209Y1385315D01*
X4367784Y1385315D01*
X4378197Y1380236D01*
X4383531Y1374902D01*
X4388611Y1364487D01*
X4388611Y1354073D01*
X4383531Y1343660D01*
X4373118Y1328165D01*
X4321047Y1276350D01*
X4393945Y1276350D01*
X4459224Y1385315D02*
G01*
X4443729Y1380236D01*
X4433315Y1364487D01*
X4428236Y1338579D01*
X4428236Y1323086D01*
X4433315Y1296923D01*
X4443729Y1281429D01*
X4459224Y1276350D01*
X4469638Y1276350D01*
X4485386Y1281429D01*
X4495800Y1296923D01*
X4500879Y1323086D01*
X4500879Y1338579D01*
X4495800Y1364487D01*
X4485386Y1380236D01*
X4469638Y1385315D01*
X4459224Y1385315D01*
X2637287Y2007758D02*
G01*
X2632207Y2018172D01*
X2621793Y2028586D01*
X2611379Y2033920D01*
X2595631Y2039000D01*
X2569723Y2039000D01*
X2554229Y2033920D01*
X2543815Y2028586D01*
X2533401Y2018172D01*
X2528321Y2007758D01*
X2528321Y1986930D01*
X2533401Y1976770D01*
X2543815Y1966356D01*
X2554229Y1961022D01*
X2569723Y1955942D01*
X2595631Y1955942D01*
X2611379Y1961022D01*
X2621793Y1966356D01*
X2632207Y1976770D01*
X2637287Y1986930D01*
X2637287Y2007758D01*
X2548895Y1992264D02*
G01*
X2517907Y1961022D01*
X2616459Y1921652D02*
G01*
X2621793Y1911238D01*
X2637287Y1895490D01*
X2528321Y1895490D01*
X2621793Y1798970D02*
G01*
X2632207Y1804050D01*
X2637287Y1819798D01*
X2637287Y1830212D01*
X2632207Y1845706D01*
X2616459Y1856120D01*
X2590551Y1861200D01*
X2564643Y1861200D01*
X2543815Y1856120D01*
X2533401Y1845706D01*
X2528321Y1830212D01*
X2528321Y1824878D01*
X2533401Y1809384D01*
X2543815Y1798970D01*
X2559309Y1793890D01*
X2564643Y1793890D01*
X2580137Y1798970D01*
X2590551Y1809384D01*
X2595631Y1824878D01*
X2595631Y1830212D01*
X2590551Y1845706D01*
X2580137Y1856120D01*
X2564643Y1861200D01*
X2112512Y2818241D02*
G01*
X2117592Y2807827D01*
X2128006Y2797413D01*
X2138420Y2792079D01*
X2154168Y2786999D01*
X2180076Y2786999D01*
X2195570Y2792079D01*
X2205984Y2797413D01*
X2216398Y2807827D01*
X2221478Y2818241D01*
X2221478Y2839069D01*
X2216398Y2849229D01*
X2205984Y2859643D01*
X2195570Y2864977D01*
X2180076Y2870057D01*
X2154168Y2870057D01*
X2138420Y2864977D01*
X2128006Y2859643D01*
X2117592Y2849229D01*
X2112512Y2839069D01*
X2112512Y2818241D01*
X2200904Y2833735D02*
G01*
X2231892Y2864977D01*
X2133340Y2904347D02*
G01*
X2128006Y2914761D01*
X2112512Y2930509D01*
X2221478Y2930509D01*
X2112512Y3037443D02*
G01*
X2221478Y2985373D01*
X2112512Y2964799D02*
G01*
X2112512Y3037443D01*
X2729484Y2685542D02*
G01*
X2734563Y2675128D01*
X2744977Y2664713D01*
X2755391Y2659379D01*
X2771140Y2654300D01*
X2797047Y2654300D01*
X2812541Y2659379D01*
X2822956Y2664713D01*
X2833370Y2675128D01*
X2838450Y2685542D01*
X2838450Y2706370D01*
X2833370Y2716529D01*
X2822956Y2726944D01*
X2812541Y2732278D01*
X2797047Y2737357D01*
X2771140Y2737357D01*
X2755391Y2732278D01*
X2744977Y2726944D01*
X2734563Y2716529D01*
X2729484Y2706370D01*
X2729484Y2685542D01*
X2817875Y2701036D02*
G01*
X2848863Y2732278D01*
X2750311Y2771647D02*
G01*
X2744977Y2782062D01*
X2729484Y2797810D01*
X2838450Y2797810D01*
X2729484Y2858007D02*
G01*
X2734563Y2842260D01*
X2744977Y2837179D01*
X2755391Y2837179D01*
X2765806Y2842260D01*
X2771140Y2852673D01*
X2776220Y2873502D01*
X2781300Y2889250D01*
X2791713Y2899410D01*
X2802127Y2904744D01*
X2817875Y2904744D01*
X2828290Y2899410D01*
X2833370Y2894329D01*
X2838450Y2878836D01*
X2838450Y2858007D01*
X2833370Y2842260D01*
X2828290Y2837179D01*
X2817875Y2832100D01*
X2802127Y2832100D01*
X2791713Y2837179D01*
X2781300Y2847594D01*
X2776220Y2863087D01*
X2771140Y2883915D01*
X2765806Y2894329D01*
X2755391Y2899410D01*
X2744977Y2899410D01*
X2734563Y2894329D01*
X2729484Y2878836D01*
X2729484Y2858007D01*
X3237484Y2723642D02*
G01*
X3242563Y2713228D01*
X3252977Y2702813D01*
X3263391Y2697479D01*
X3279140Y2692400D01*
X3305047Y2692400D01*
X3320541Y2697479D01*
X3330956Y2702813D01*
X3341370Y2713228D01*
X3346450Y2723642D01*
X3346450Y2744470D01*
X3341370Y2754629D01*
X3330956Y2765044D01*
X3320541Y2770378D01*
X3305047Y2775457D01*
X3279140Y2775457D01*
X3263391Y2770378D01*
X3252977Y2765044D01*
X3242563Y2754629D01*
X3237484Y2744470D01*
X3237484Y2723642D01*
X3325875Y2739136D02*
G01*
X3356863Y2770378D01*
X3258311Y2809747D02*
G01*
X3252977Y2820162D01*
X3237484Y2835910D01*
X3346450Y2835910D01*
X3273806Y2937510D02*
G01*
X3289300Y2932429D01*
X3299713Y2922015D01*
X3305047Y2906521D01*
X3305047Y2901187D01*
X3299713Y2885694D01*
X3289300Y2875279D01*
X3273806Y2870200D01*
X3268725Y2870200D01*
X3252977Y2875279D01*
X3242563Y2885694D01*
X3237484Y2901187D01*
X3237484Y2906521D01*
X3242563Y2922015D01*
X3252977Y2932429D01*
X3273806Y2937510D01*
X3299713Y2937510D01*
X3325875Y2932429D01*
X3341370Y2922015D01*
X3346450Y2906521D01*
X3346450Y2896107D01*
X3341370Y2880360D01*
X3330956Y2875279D01*
X4075684Y3993642D02*
G01*
X4080763Y3983228D01*
X4091177Y3972813D01*
X4101591Y3967479D01*
X4117340Y3962400D01*
X4143247Y3962400D01*
X4158741Y3967479D01*
X4169156Y3972813D01*
X4179570Y3983228D01*
X4184650Y3993642D01*
X4184650Y4014470D01*
X4179570Y4024629D01*
X4169156Y4035044D01*
X4158741Y4040378D01*
X4143247Y4045457D01*
X4117340Y4045457D01*
X4101591Y4040378D01*
X4091177Y4035044D01*
X4080763Y4024629D01*
X4075684Y4014470D01*
X4075684Y3993642D01*
X4164075Y4009136D02*
G01*
X4195063Y4040378D01*
X4101591Y4085081D02*
G01*
X4096511Y4085081D01*
X4086097Y4090162D01*
X4080763Y4095495D01*
X4075684Y4105910D01*
X4075684Y4126484D01*
X4080763Y4136897D01*
X4086097Y4142231D01*
X4096511Y4147312D01*
X4106925Y4147312D01*
X4117340Y4142231D01*
X4132834Y4131818D01*
X4184650Y4079747D01*
X4184650Y4152645D01*
X4096511Y4186936D02*
G01*
X4091177Y4197350D01*
X4075684Y4212844D01*
X4184650Y4212844D01*
X4062984Y3599942D02*
G01*
X4068063Y3589528D01*
X4078477Y3579113D01*
X4088891Y3573779D01*
X4104640Y3568700D01*
X4130547Y3568700D01*
X4146041Y3573779D01*
X4156456Y3579113D01*
X4166870Y3589528D01*
X4171950Y3599942D01*
X4171950Y3620770D01*
X4166870Y3630929D01*
X4156456Y3641344D01*
X4146041Y3646678D01*
X4130547Y3651757D01*
X4104640Y3651757D01*
X4088891Y3646678D01*
X4078477Y3641344D01*
X4068063Y3630929D01*
X4062984Y3620770D01*
X4062984Y3599942D01*
X4151375Y3615436D02*
G01*
X4182363Y3646678D01*
X4088891Y3691381D02*
G01*
X4083811Y3691381D01*
X4073397Y3696462D01*
X4068063Y3701795D01*
X4062984Y3712210D01*
X4062984Y3732784D01*
X4068063Y3743197D01*
X4073397Y3748531D01*
X4083811Y3753612D01*
X4094225Y3753612D01*
X4104640Y3748531D01*
X4120134Y3738118D01*
X4171950Y3686047D01*
X4171950Y3758945D01*
X4088891Y3798315D02*
G01*
X4083811Y3798315D01*
X4073397Y3803650D01*
X4068063Y3808729D01*
X4062984Y3819144D01*
X4062984Y3839971D01*
X4068063Y3850386D01*
X4073397Y3855465D01*
X4083811Y3860800D01*
X4094225Y3860800D01*
X4104640Y3855465D01*
X4120134Y3845052D01*
X4171950Y3793236D01*
X4171950Y3865879D01*
X4093712Y3288141D02*
G01*
X4098792Y3277727D01*
X4109206Y3267313D01*
X4119620Y3261979D01*
X4135368Y3256899D01*
X4161276Y3256899D01*
X4176770Y3261979D01*
X4187184Y3267313D01*
X4197598Y3277727D01*
X4202678Y3288141D01*
X4202678Y3308969D01*
X4197598Y3319129D01*
X4187184Y3329543D01*
X4176770Y3334877D01*
X4161276Y3339957D01*
X4135368Y3339957D01*
X4119620Y3334877D01*
X4109206Y3329543D01*
X4098792Y3319129D01*
X4093712Y3308969D01*
X4093712Y3288141D01*
X4182104Y3303635D02*
G01*
X4213092Y3334877D01*
X4119620Y3379581D02*
G01*
X4114540Y3379581D01*
X4104126Y3384661D01*
X4098792Y3389995D01*
X4093712Y3400409D01*
X4093712Y3420983D01*
X4098792Y3431397D01*
X4104126Y3436731D01*
X4114540Y3441811D01*
X4124954Y3441811D01*
X4135368Y3436731D01*
X4150862Y3426317D01*
X4202678Y3374247D01*
X4202678Y3447145D01*
X4093712Y3491849D02*
G01*
X4093712Y3548999D01*
X4135368Y3517757D01*
X4135368Y3533251D01*
X4140448Y3543665D01*
X4145528Y3548999D01*
X4161276Y3554079D01*
X4171690Y3554079D01*
X4187184Y3548999D01*
X4197598Y3538585D01*
X4202678Y3522837D01*
X4202678Y3507343D01*
X4197598Y3491849D01*
X4192518Y3486515D01*
X4182104Y3481435D01*
X4081012Y2856341D02*
G01*
X4086092Y2845927D01*
X4096506Y2835513D01*
X4106920Y2830179D01*
X4122668Y2825099D01*
X4148576Y2825099D01*
X4164070Y2830179D01*
X4174484Y2835513D01*
X4184898Y2845927D01*
X4189978Y2856341D01*
X4189978Y2877169D01*
X4184898Y2887329D01*
X4174484Y2897743D01*
X4164070Y2903077D01*
X4148576Y2908157D01*
X4122668Y2908157D01*
X4106920Y2903077D01*
X4096506Y2897743D01*
X4086092Y2887329D01*
X4081012Y2877169D01*
X4081012Y2856341D01*
X4169404Y2871835D02*
G01*
X4200392Y2903077D01*
X4106920Y2947781D02*
G01*
X4101840Y2947781D01*
X4091426Y2952861D01*
X4086092Y2958195D01*
X4081012Y2968609D01*
X4081012Y2989183D01*
X4086092Y2999597D01*
X4091426Y3004931D01*
X4101840Y3010011D01*
X4112254Y3010011D01*
X4122668Y3004931D01*
X4138162Y2994517D01*
X4189978Y2942447D01*
X4189978Y3015345D01*
X4081012Y3101451D02*
G01*
X4153656Y3049635D01*
X4153656Y3127359D01*
X4081012Y3101451D02*
G01*
X4189978Y3101451D01*
X4081012Y2437241D02*
G01*
X4086092Y2426827D01*
X4096506Y2416413D01*
X4106920Y2411079D01*
X4122668Y2405999D01*
X4148576Y2405999D01*
X4164070Y2411079D01*
X4174484Y2416413D01*
X4184898Y2426827D01*
X4189978Y2437241D01*
X4189978Y2458069D01*
X4184898Y2468229D01*
X4174484Y2478643D01*
X4164070Y2483977D01*
X4148576Y2489057D01*
X4122668Y2489057D01*
X4106920Y2483977D01*
X4096506Y2478643D01*
X4086092Y2468229D01*
X4081012Y2458069D01*
X4081012Y2437241D01*
X4169404Y2452735D02*
G01*
X4200392Y2483977D01*
X4106920Y2528681D02*
G01*
X4101840Y2528681D01*
X4091426Y2533761D01*
X4086092Y2539095D01*
X4081012Y2549509D01*
X4081012Y2570083D01*
X4086092Y2580497D01*
X4091426Y2585831D01*
X4101840Y2590911D01*
X4112254Y2590911D01*
X4122668Y2585831D01*
X4138162Y2575417D01*
X4189978Y2523347D01*
X4189978Y2596245D01*
X4081012Y2692765D02*
G01*
X4081012Y2640949D01*
X4127748Y2635615D01*
X4122668Y2640949D01*
X4117334Y2656443D01*
X4117334Y2671937D01*
X4122668Y2687685D01*
X4132828Y2698099D01*
X4148576Y2703179D01*
X4158990Y2703179D01*
X4174484Y2698099D01*
X4184898Y2687685D01*
X4189978Y2671937D01*
X4189978Y2656443D01*
X4184898Y2640949D01*
X4179818Y2635615D01*
X4169404Y2630535D01*
X4550912Y4075541D02*
G01*
X4555992Y4065127D01*
X4566406Y4054713D01*
X4576820Y4049379D01*
X4592568Y4044299D01*
X4618476Y4044299D01*
X4633970Y4049379D01*
X4644384Y4054713D01*
X4654798Y4065127D01*
X4659878Y4075541D01*
X4659878Y4096369D01*
X4654798Y4106529D01*
X4644384Y4116943D01*
X4633970Y4122277D01*
X4618476Y4127357D01*
X4592568Y4127357D01*
X4576820Y4122277D01*
X4566406Y4116943D01*
X4555992Y4106529D01*
X4550912Y4096369D01*
X4550912Y4075541D01*
X4639304Y4091035D02*
G01*
X4670292Y4122277D01*
X4576820Y4166981D02*
G01*
X4571740Y4166981D01*
X4561326Y4172061D01*
X4555992Y4177395D01*
X4550912Y4187809D01*
X4550912Y4208383D01*
X4555992Y4218797D01*
X4561326Y4224131D01*
X4571740Y4229211D01*
X4582154Y4229211D01*
X4592568Y4224131D01*
X4608062Y4213717D01*
X4659878Y4161647D01*
X4659878Y4234545D01*
X4566406Y4331065D02*
G01*
X4555992Y4325985D01*
X4550912Y4310237D01*
X4550912Y4299823D01*
X4555992Y4284329D01*
X4571740Y4273915D01*
X4597648Y4268835D01*
X4623556Y4268835D01*
X4644384Y4273915D01*
X4654798Y4284329D01*
X4659878Y4299823D01*
X4659878Y4305157D01*
X4654798Y4320651D01*
X4644384Y4331065D01*
X4628890Y4336399D01*
X4623556Y4336399D01*
X4608062Y4331065D01*
X4597648Y4320651D01*
X4592568Y4305157D01*
X4592568Y4299823D01*
X4597648Y4284329D01*
X4608062Y4273915D01*
X4623556Y4268835D01*
X4550912Y3669141D02*
G01*
X4555992Y3658727D01*
X4566406Y3648313D01*
X4576820Y3642979D01*
X4592568Y3637899D01*
X4618476Y3637899D01*
X4633970Y3642979D01*
X4644384Y3648313D01*
X4654798Y3658727D01*
X4659878Y3669141D01*
X4659878Y3689969D01*
X4654798Y3700129D01*
X4644384Y3710543D01*
X4633970Y3715877D01*
X4618476Y3720957D01*
X4592568Y3720957D01*
X4576820Y3715877D01*
X4566406Y3710543D01*
X4555992Y3700129D01*
X4550912Y3689969D01*
X4550912Y3669141D01*
X4639304Y3684635D02*
G01*
X4670292Y3715877D01*
X4576820Y3760581D02*
G01*
X4571740Y3760581D01*
X4561326Y3765661D01*
X4555992Y3770995D01*
X4550912Y3781409D01*
X4550912Y3801983D01*
X4555992Y3812397D01*
X4561326Y3817731D01*
X4571740Y3822811D01*
X4582154Y3822811D01*
X4592568Y3817731D01*
X4608062Y3807317D01*
X4659878Y3755247D01*
X4659878Y3828145D01*
X4550912Y3935079D02*
G01*
X4659878Y3883009D01*
X4550912Y3862435D02*
G01*
X4550912Y3935079D01*
X4550912Y3288141D02*
G01*
X4555992Y3277727D01*
X4566406Y3267313D01*
X4576820Y3261979D01*
X4592568Y3256899D01*
X4618476Y3256899D01*
X4633970Y3261979D01*
X4644384Y3267313D01*
X4654798Y3277727D01*
X4659878Y3288141D01*
X4659878Y3308969D01*
X4654798Y3319129D01*
X4644384Y3329543D01*
X4633970Y3334877D01*
X4618476Y3339957D01*
X4592568Y3339957D01*
X4576820Y3334877D01*
X4566406Y3329543D01*
X4555992Y3319129D01*
X4550912Y3308969D01*
X4550912Y3288141D01*
X4639304Y3303635D02*
G01*
X4670292Y3334877D01*
X4576820Y3379581D02*
G01*
X4571740Y3379581D01*
X4561326Y3384661D01*
X4555992Y3389995D01*
X4550912Y3400409D01*
X4550912Y3420983D01*
X4555992Y3431397D01*
X4561326Y3436731D01*
X4571740Y3441811D01*
X4582154Y3441811D01*
X4592568Y3436731D01*
X4608062Y3426317D01*
X4659878Y3374247D01*
X4659878Y3447145D01*
X4550912Y3507343D02*
G01*
X4555992Y3491849D01*
X4566406Y3486515D01*
X4576820Y3486515D01*
X4587234Y3491849D01*
X4592568Y3502009D01*
X4597648Y3522837D01*
X4602728Y3538585D01*
X4613142Y3548999D01*
X4623556Y3554079D01*
X4639304Y3554079D01*
X4649718Y3548999D01*
X4654798Y3543665D01*
X4659878Y3528171D01*
X4659878Y3507343D01*
X4654798Y3491849D01*
X4649718Y3486515D01*
X4639304Y3481435D01*
X4623556Y3481435D01*
X4613142Y3486515D01*
X4602728Y3496929D01*
X4597648Y3512423D01*
X4592568Y3533251D01*
X4587234Y3543665D01*
X4576820Y3548999D01*
X4566406Y3548999D01*
X4555992Y3543665D01*
X4550912Y3528171D01*
X4550912Y3507343D01*
X4563612Y2894441D02*
G01*
X4568692Y2884027D01*
X4579106Y2873613D01*
X4589520Y2868279D01*
X4605268Y2863199D01*
X4631176Y2863199D01*
X4646670Y2868279D01*
X4657084Y2873613D01*
X4667498Y2884027D01*
X4672578Y2894441D01*
X4672578Y2915269D01*
X4667498Y2925429D01*
X4657084Y2935843D01*
X4646670Y2941177D01*
X4631176Y2946257D01*
X4605268Y2946257D01*
X4589520Y2941177D01*
X4579106Y2935843D01*
X4568692Y2925429D01*
X4563612Y2915269D01*
X4563612Y2894441D01*
X4652004Y2909935D02*
G01*
X4682992Y2941177D01*
X4589520Y2985881D02*
G01*
X4584440Y2985881D01*
X4574026Y2990961D01*
X4568692Y2996295D01*
X4563612Y3006709D01*
X4563612Y3027283D01*
X4568692Y3037697D01*
X4574026Y3043031D01*
X4584440Y3048111D01*
X4594854Y3048111D01*
X4605268Y3043031D01*
X4620762Y3032617D01*
X4672578Y2980547D01*
X4672578Y3053445D01*
X4599934Y3155299D02*
G01*
X4615428Y3149965D01*
X4625842Y3139551D01*
X4631176Y3124057D01*
X4631176Y3118723D01*
X4625842Y3103229D01*
X4615428Y3092815D01*
X4599934Y3087735D01*
X4594854Y3087735D01*
X4579106Y3092815D01*
X4568692Y3103229D01*
X4563612Y3118723D01*
X4563612Y3124057D01*
X4568692Y3139551D01*
X4579106Y3149965D01*
X4599934Y3155299D01*
X4625842Y3155299D01*
X4652004Y3149965D01*
X4667498Y3139551D01*
X4672578Y3124057D01*
X4672578Y3113643D01*
X4667498Y3098149D01*
X4657084Y3092815D01*
X4563612Y2500741D02*
G01*
X4568692Y2490327D01*
X4579106Y2479913D01*
X4589520Y2474579D01*
X4605268Y2469499D01*
X4631176Y2469499D01*
X4646670Y2474579D01*
X4657084Y2479913D01*
X4667498Y2490327D01*
X4672578Y2500741D01*
X4672578Y2521569D01*
X4667498Y2531729D01*
X4657084Y2542143D01*
X4646670Y2547477D01*
X4631176Y2552557D01*
X4605268Y2552557D01*
X4589520Y2547477D01*
X4579106Y2542143D01*
X4568692Y2531729D01*
X4563612Y2521569D01*
X4563612Y2500741D01*
X4652004Y2516235D02*
G01*
X4682992Y2547477D01*
X4563612Y2597261D02*
G01*
X4563612Y2654411D01*
X4605268Y2623169D01*
X4605268Y2638917D01*
X4610348Y2649331D01*
X4615428Y2654411D01*
X4631176Y2659745D01*
X4641590Y2659745D01*
X4657084Y2654411D01*
X4667498Y2643997D01*
X4672578Y2628503D01*
X4672578Y2613009D01*
X4667498Y2597261D01*
X4662418Y2592181D01*
X4652004Y2586847D01*
X4563612Y2725023D02*
G01*
X4568692Y2709529D01*
X4584440Y2699115D01*
X4610348Y2694035D01*
X4625842Y2694035D01*
X4652004Y2699115D01*
X4667498Y2709529D01*
X4672578Y2725023D01*
X4672578Y2735437D01*
X4667498Y2751185D01*
X4652004Y2761599D01*
X4625842Y2766679D01*
X4610348Y2766679D01*
X4584440Y2761599D01*
X4568692Y2751185D01*
X4563612Y2735437D01*
X4563612Y2725023D01*
X6311900Y5055615D02*
G01*
X6311900Y4946650D01*
X6311900Y5055615D02*
G01*
X6358636Y5055615D01*
X6374129Y5050536D01*
X6379463Y5045202D01*
X6384543Y5034787D01*
X6384543Y5024373D01*
X6379463Y5013960D01*
X6374129Y5008879D01*
X6358636Y5003800D01*
X6311900Y5003800D01*
X6348222Y5003800D02*
G01*
X6384543Y4946650D01*
X6481318Y5055615D02*
G01*
X6429247Y5055615D01*
X6424168Y5008879D01*
X6429247Y5013960D01*
X6444995Y5019294D01*
X6460490Y5019294D01*
X6475984Y5013960D01*
X6486397Y5003800D01*
X6491731Y4988052D01*
X6491731Y4977637D01*
X6486397Y4962144D01*
X6475984Y4951729D01*
X6460490Y4946650D01*
X6444995Y4946650D01*
X6429247Y4951729D01*
X6424168Y4956810D01*
X6418834Y4967223D01*
X5638800Y6287515D02*
G01*
X5638800Y6178550D01*
X5638800Y6287515D02*
G01*
X5685536Y6287515D01*
X5701029Y6282436D01*
X5706363Y6277102D01*
X5711443Y6266687D01*
X5711443Y6256273D01*
X5706363Y6245860D01*
X5701029Y6240779D01*
X5685536Y6235700D01*
X5638800Y6235700D01*
X5675122Y6235700D02*
G01*
X5711443Y6178550D01*
X5808218Y6272021D02*
G01*
X5802884Y6282436D01*
X5787390Y6287515D01*
X5776975Y6287515D01*
X5761481Y6282436D01*
X5751068Y6266687D01*
X5745734Y6240779D01*
X5745734Y6214871D01*
X5751068Y6194044D01*
X5761481Y6183629D01*
X5776975Y6178550D01*
X5782309Y6178550D01*
X5797804Y6183629D01*
X5808218Y6194044D01*
X5813297Y6209537D01*
X5813297Y6214871D01*
X5808218Y6230365D01*
X5797804Y6240779D01*
X5782309Y6245860D01*
X5776975Y6245860D01*
X5761481Y6240779D01*
X5751068Y6230365D01*
X5745734Y6214871D01*
X6299200Y5639815D02*
G01*
X6299200Y5530850D01*
X6299200Y5639815D02*
G01*
X6345936Y5639815D01*
X6361429Y5634736D01*
X6366763Y5629402D01*
X6371843Y5618987D01*
X6371843Y5608573D01*
X6366763Y5598160D01*
X6361429Y5593079D01*
X6345936Y5588000D01*
X6299200Y5588000D01*
X6335522Y5588000D02*
G01*
X6371843Y5530850D01*
X6479031Y5639815D02*
G01*
X6426961Y5530850D01*
X6406134Y5639815D02*
G01*
X6479031Y5639815D01*
X5118100Y6909815D02*
G01*
X5118100Y6800850D01*
X5118100Y6909815D02*
G01*
X5164836Y6909815D01*
X5180329Y6904736D01*
X5185663Y6899402D01*
X5190743Y6888987D01*
X5190743Y6878573D01*
X5185663Y6868160D01*
X5180329Y6863079D01*
X5164836Y6858000D01*
X5118100Y6858000D01*
X5154422Y6858000D02*
G01*
X5190743Y6800850D01*
X5251195Y6909815D02*
G01*
X5235447Y6904736D01*
X5230368Y6894321D01*
X5230368Y6883908D01*
X5235447Y6873494D01*
X5245861Y6868160D01*
X5266690Y6863079D01*
X5282184Y6858000D01*
X5292597Y6847586D01*
X5297931Y6837171D01*
X5297931Y6821423D01*
X5292597Y6811010D01*
X5287518Y6805929D01*
X5271770Y6800850D01*
X5251195Y6800850D01*
X5235447Y6805929D01*
X5230368Y6811010D01*
X5225034Y6821423D01*
X5225034Y6837171D01*
X5230368Y6847586D01*
X5240781Y6858000D01*
X5256275Y6863079D01*
X5277104Y6868160D01*
X5287518Y6873494D01*
X5292597Y6883908D01*
X5292597Y6894321D01*
X5287518Y6904736D01*
X5271770Y6909815D01*
X5251195Y6909815D01*
X5664200Y5627115D02*
G01*
X5664200Y5518150D01*
X5664200Y5627115D02*
G01*
X5710936Y5627115D01*
X5726429Y5622036D01*
X5731763Y5616702D01*
X5736843Y5606287D01*
X5736843Y5595873D01*
X5731763Y5585460D01*
X5726429Y5580379D01*
X5710936Y5575300D01*
X5664200Y5575300D01*
X5700522Y5575300D02*
G01*
X5736843Y5518150D01*
X5838697Y5590794D02*
G01*
X5833618Y5575300D01*
X5823204Y5564886D01*
X5807709Y5559552D01*
X5802375Y5559552D01*
X5786881Y5564886D01*
X5776468Y5575300D01*
X5771134Y5590794D01*
X5771134Y5595873D01*
X5776468Y5611621D01*
X5786881Y5622036D01*
X5802375Y5627115D01*
X5807709Y5627115D01*
X5823204Y5622036D01*
X5833618Y5611621D01*
X5838697Y5590794D01*
X5838697Y5564886D01*
X5833618Y5538723D01*
X5823204Y5523229D01*
X5807709Y5518150D01*
X5797295Y5518150D01*
X5781547Y5523229D01*
X5776468Y5533644D01*
X6273800Y6300215D02*
G01*
X6273800Y6191250D01*
X6273800Y6300215D02*
G01*
X6320536Y6300215D01*
X6336029Y6295136D01*
X6341363Y6289802D01*
X6346443Y6279387D01*
X6346443Y6268973D01*
X6341363Y6258560D01*
X6336029Y6253479D01*
X6320536Y6248400D01*
X6273800Y6248400D01*
X6310122Y6248400D02*
G01*
X6346443Y6191250D01*
X6380734Y6279387D02*
G01*
X6391147Y6284721D01*
X6406895Y6300215D01*
X6406895Y6191250D01*
X6472174Y6300215D02*
G01*
X6456679Y6295136D01*
X6446265Y6279387D01*
X6441186Y6253479D01*
X6441186Y6237986D01*
X6446265Y6211823D01*
X6456679Y6196329D01*
X6472174Y6191250D01*
X6482588Y6191250D01*
X6498336Y6196329D01*
X6508750Y6211823D01*
X6513829Y6237986D01*
X6513829Y6253479D01*
X6508750Y6279387D01*
X6498336Y6295136D01*
X6482588Y6300215D01*
X6472174Y6300215D01*
X7874000Y5790184D02*
G01*
X7874000Y5899150D01*
X7874000Y5790184D02*
G01*
X7827263Y5790184D01*
X7811770Y5795263D01*
X7806436Y5800597D01*
X7801356Y5811012D01*
X7801356Y5821426D01*
X7806436Y5831839D01*
X7811770Y5836920D01*
X7827263Y5842000D01*
X7874000Y5842000D01*
X7837677Y5842000D02*
G01*
X7801356Y5899150D01*
X7767065Y5811012D02*
G01*
X7756652Y5805678D01*
X7740904Y5790184D01*
X7740904Y5899150D01*
X7706613Y5811012D02*
G01*
X7696200Y5805678D01*
X7680706Y5790184D01*
X7680706Y5899150D01*
X6883400Y5802884D02*
G01*
X6883400Y5911850D01*
X6883400Y5802884D02*
G01*
X6836663Y5802884D01*
X6821170Y5807963D01*
X6815836Y5813297D01*
X6810756Y5823712D01*
X6810756Y5834126D01*
X6815836Y5844539D01*
X6821170Y5849620D01*
X6836663Y5854700D01*
X6883400Y5854700D01*
X6847077Y5854700D02*
G01*
X6810756Y5911850D01*
X6776465Y5823712D02*
G01*
X6766052Y5818378D01*
X6750304Y5802884D01*
X6750304Y5911850D01*
X6710934Y5828792D02*
G01*
X6710934Y5823712D01*
X6705600Y5813297D01*
X6700520Y5807963D01*
X6690106Y5802884D01*
X6669277Y5802884D01*
X6658863Y5807963D01*
X6653784Y5813297D01*
X6648450Y5823712D01*
X6648450Y5834126D01*
X6653784Y5844539D01*
X6664197Y5860034D01*
X6716013Y5911850D01*
X6643370Y5911850D01*
X8674100Y4344415D02*
G01*
X8674100Y4235450D01*
X8674100Y4344415D02*
G01*
X8720836Y4344415D01*
X8736329Y4339336D01*
X8741663Y4334002D01*
X8746743Y4323587D01*
X8746743Y4313173D01*
X8741663Y4302760D01*
X8736329Y4297679D01*
X8720836Y4292600D01*
X8674100Y4292600D01*
X8710422Y4292600D02*
G01*
X8746743Y4235450D01*
X8781034Y4323587D02*
G01*
X8791447Y4328921D01*
X8807195Y4344415D01*
X8807195Y4235450D01*
X8851900Y4344415D02*
G01*
X8909050Y4344415D01*
X8877808Y4302760D01*
X8893302Y4302760D01*
X8903715Y4297679D01*
X8909050Y4292600D01*
X8914129Y4276852D01*
X8914129Y4266437D01*
X8909050Y4250944D01*
X8898636Y4240529D01*
X8882888Y4235450D01*
X8867393Y4235450D01*
X8851900Y4240529D01*
X8846565Y4245610D01*
X8841486Y4256023D01*
X8648700Y3861815D02*
G01*
X8648700Y3752850D01*
X8648700Y3861815D02*
G01*
X8695436Y3861815D01*
X8710929Y3856736D01*
X8716263Y3851402D01*
X8721343Y3840987D01*
X8721343Y3830573D01*
X8716263Y3820160D01*
X8710929Y3815079D01*
X8695436Y3810000D01*
X8648700Y3810000D01*
X8685022Y3810000D02*
G01*
X8721343Y3752850D01*
X8755634Y3840987D02*
G01*
X8766047Y3846321D01*
X8781795Y3861815D01*
X8781795Y3752850D01*
X8867902Y3861815D02*
G01*
X8816086Y3789171D01*
X8893809Y3789171D01*
X8867902Y3861815D02*
G01*
X8867902Y3752850D01*
X8559800Y2871215D02*
G01*
X8559800Y2762250D01*
X8559800Y2871215D02*
G01*
X8606536Y2871215D01*
X8622029Y2866136D01*
X8627363Y2860802D01*
X8632443Y2850387D01*
X8632443Y2839973D01*
X8627363Y2829560D01*
X8622029Y2824479D01*
X8606536Y2819400D01*
X8559800Y2819400D01*
X8596122Y2819400D02*
G01*
X8632443Y2762250D01*
X8666734Y2850387D02*
G01*
X8677147Y2855721D01*
X8692895Y2871215D01*
X8692895Y2762250D01*
X8789415Y2871215D02*
G01*
X8737600Y2871215D01*
X8732265Y2824479D01*
X8737600Y2829560D01*
X8753093Y2834894D01*
X8768588Y2834894D01*
X8784336Y2829560D01*
X8794750Y2819400D01*
X8799829Y2803652D01*
X8799829Y2793237D01*
X8794750Y2777744D01*
X8784336Y2767329D01*
X8768588Y2762250D01*
X8753093Y2762250D01*
X8737600Y2767329D01*
X8732265Y2772410D01*
X8727186Y2782823D01*
X9258300Y2388615D02*
G01*
X9258300Y2279650D01*
X9258300Y2388615D02*
G01*
X9305036Y2388615D01*
X9320529Y2383536D01*
X9325863Y2378202D01*
X9330943Y2367787D01*
X9330943Y2357373D01*
X9325863Y2346960D01*
X9320529Y2341879D01*
X9305036Y2336800D01*
X9258300Y2336800D01*
X9294622Y2336800D02*
G01*
X9330943Y2279650D01*
X9365234Y2367787D02*
G01*
X9375647Y2373121D01*
X9391395Y2388615D01*
X9391395Y2279650D01*
X9487915Y2373121D02*
G01*
X9482836Y2383536D01*
X9467088Y2388615D01*
X9456674Y2388615D01*
X9441179Y2383536D01*
X9430765Y2367787D01*
X9425686Y2341879D01*
X9425686Y2315971D01*
X9430765Y2295144D01*
X9441179Y2284729D01*
X9456674Y2279650D01*
X9462008Y2279650D01*
X9477502Y2284729D01*
X9487915Y2295144D01*
X9493250Y2310637D01*
X9493250Y2315971D01*
X9487915Y2331465D01*
X9477502Y2341879D01*
X9462008Y2346960D01*
X9456674Y2346960D01*
X9441179Y2341879D01*
X9430765Y2331465D01*
X9425686Y2315971D01*
X7416800Y4217415D02*
G01*
X7416800Y4108450D01*
X7416800Y4217415D02*
G01*
X7463536Y4217415D01*
X7479029Y4212336D01*
X7484363Y4207002D01*
X7489443Y4196587D01*
X7489443Y4186173D01*
X7484363Y4175760D01*
X7479029Y4170679D01*
X7463536Y4165600D01*
X7416800Y4165600D01*
X7453122Y4165600D02*
G01*
X7489443Y4108450D01*
X7523734Y4196587D02*
G01*
X7534147Y4201921D01*
X7549895Y4217415D01*
X7549895Y4108450D01*
X7656829Y4217415D02*
G01*
X7604759Y4108450D01*
X7584186Y4217415D02*
G01*
X7656829Y4217415D01*
X7416800Y2756915D02*
G01*
X7416800Y2647950D01*
X7416800Y2756915D02*
G01*
X7463536Y2756915D01*
X7479029Y2751836D01*
X7484363Y2746502D01*
X7489443Y2736087D01*
X7489443Y2725673D01*
X7484363Y2715260D01*
X7479029Y2710179D01*
X7463536Y2705100D01*
X7416800Y2705100D01*
X7453122Y2705100D02*
G01*
X7489443Y2647950D01*
X7523734Y2736087D02*
G01*
X7534147Y2741421D01*
X7549895Y2756915D01*
X7549895Y2647950D01*
X7610093Y2756915D02*
G01*
X7594600Y2751836D01*
X7589265Y2741421D01*
X7589265Y2731007D01*
X7594600Y2720594D01*
X7604759Y2715260D01*
X7625588Y2710179D01*
X7641336Y2705100D01*
X7651750Y2694686D01*
X7656829Y2684271D01*
X7656829Y2668523D01*
X7651750Y2658110D01*
X7646415Y2653029D01*
X7630922Y2647950D01*
X7610093Y2647950D01*
X7594600Y2653029D01*
X7589265Y2658110D01*
X7584186Y2668523D01*
X7584186Y2684271D01*
X7589265Y2694686D01*
X7599679Y2705100D01*
X7615174Y2710179D01*
X7636002Y2715260D01*
X7646415Y2720594D01*
X7651750Y2731007D01*
X7651750Y2741421D01*
X7646415Y2751836D01*
X7630922Y2756915D01*
X7610093Y2756915D01*
X7391400Y1740915D02*
G01*
X7391400Y1631950D01*
X7391400Y1740915D02*
G01*
X7438136Y1740915D01*
X7453629Y1735836D01*
X7458963Y1730502D01*
X7464043Y1720087D01*
X7464043Y1709673D01*
X7458963Y1699260D01*
X7453629Y1694179D01*
X7438136Y1689100D01*
X7391400Y1689100D01*
X7427722Y1689100D02*
G01*
X7464043Y1631950D01*
X7498334Y1720087D02*
G01*
X7508747Y1725421D01*
X7524495Y1740915D01*
X7524495Y1631950D01*
X7626350Y1704594D02*
G01*
X7621015Y1689100D01*
X7610602Y1678686D01*
X7595108Y1673352D01*
X7589774Y1673352D01*
X7574279Y1678686D01*
X7563865Y1689100D01*
X7558786Y1704594D01*
X7558786Y1709673D01*
X7563865Y1725421D01*
X7574279Y1735836D01*
X7589774Y1740915D01*
X7595108Y1740915D01*
X7610602Y1735836D01*
X7621015Y1725421D01*
X7626350Y1704594D01*
X7626350Y1678686D01*
X7621015Y1652523D01*
X7610602Y1637029D01*
X7595108Y1631950D01*
X7584693Y1631950D01*
X7569200Y1637029D01*
X7563865Y1647444D01*
X7340600Y623315D02*
G01*
X7340600Y514350D01*
X7340600Y623315D02*
G01*
X7387336Y623315D01*
X7402829Y618236D01*
X7408163Y612902D01*
X7413243Y602487D01*
X7413243Y592073D01*
X7408163Y581660D01*
X7402829Y576579D01*
X7387336Y571500D01*
X7340600Y571500D01*
X7376922Y571500D02*
G01*
X7413243Y514350D01*
X7452868Y597407D02*
G01*
X7452868Y602487D01*
X7457947Y612902D01*
X7463281Y618236D01*
X7473695Y623315D01*
X7494270Y623315D01*
X7504684Y618236D01*
X7510018Y612902D01*
X7515097Y602487D01*
X7515097Y592073D01*
X7510018Y581660D01*
X7499604Y566165D01*
X7447534Y514350D01*
X7520431Y514350D01*
X7585709Y623315D02*
G01*
X7570215Y618236D01*
X7559802Y602487D01*
X7554722Y576579D01*
X7554722Y561086D01*
X7559802Y534923D01*
X7570215Y519429D01*
X7585709Y514350D01*
X7596124Y514350D01*
X7611872Y519429D01*
X7622286Y534923D01*
X7627365Y561086D01*
X7627365Y576579D01*
X7622286Y602487D01*
X7611872Y618236D01*
X7596124Y623315D01*
X7585709Y623315D01*
X7391400Y1169415D02*
G01*
X7391400Y1060450D01*
X7391400Y1169415D02*
G01*
X7438136Y1169415D01*
X7453629Y1164336D01*
X7458963Y1159002D01*
X7464043Y1148587D01*
X7464043Y1138173D01*
X7458963Y1127760D01*
X7453629Y1122679D01*
X7438136Y1117600D01*
X7391400Y1117600D01*
X7427722Y1117600D02*
G01*
X7464043Y1060450D01*
X7503668Y1143507D02*
G01*
X7503668Y1148587D01*
X7508747Y1159002D01*
X7514081Y1164336D01*
X7524495Y1169415D01*
X7545070Y1169415D01*
X7555484Y1164336D01*
X7560818Y1159002D01*
X7565897Y1148587D01*
X7565897Y1138173D01*
X7560818Y1127760D01*
X7550404Y1112265D01*
X7498334Y1060450D01*
X7571231Y1060450D01*
X7605522Y1148587D02*
G01*
X7615936Y1153921D01*
X7631429Y1169415D01*
X7631429Y1060450D01*
X7378700Y2248915D02*
G01*
X7378700Y2139950D01*
X7378700Y2248915D02*
G01*
X7425436Y2248915D01*
X7440929Y2243836D01*
X7446263Y2238502D01*
X7451343Y2228087D01*
X7451343Y2217673D01*
X7446263Y2207260D01*
X7440929Y2202179D01*
X7425436Y2197100D01*
X7378700Y2197100D01*
X7415022Y2197100D02*
G01*
X7451343Y2139950D01*
X7490968Y2223007D02*
G01*
X7490968Y2228087D01*
X7496047Y2238502D01*
X7501381Y2243836D01*
X7511795Y2248915D01*
X7532370Y2248915D01*
X7542784Y2243836D01*
X7548118Y2238502D01*
X7553197Y2228087D01*
X7553197Y2217673D01*
X7548118Y2207260D01*
X7537704Y2191765D01*
X7485634Y2139950D01*
X7558531Y2139950D01*
X7597902Y2223007D02*
G01*
X7597902Y2228087D01*
X7603236Y2238502D01*
X7608315Y2243836D01*
X7618729Y2248915D01*
X7639558Y2248915D01*
X7649972Y2243836D01*
X7655052Y2238502D01*
X7660386Y2228087D01*
X7660386Y2217673D01*
X7655052Y2207260D01*
X7644638Y2191765D01*
X7592822Y2139950D01*
X7665465Y2139950D01*
X7505700Y3696715D02*
G01*
X7505700Y3587750D01*
X7505700Y3696715D02*
G01*
X7552436Y3696715D01*
X7567929Y3691636D01*
X7573263Y3686302D01*
X7578343Y3675887D01*
X7578343Y3665473D01*
X7573263Y3655060D01*
X7567929Y3649979D01*
X7552436Y3644900D01*
X7505700Y3644900D01*
X7542022Y3644900D02*
G01*
X7578343Y3587750D01*
X7617968Y3670807D02*
G01*
X7617968Y3675887D01*
X7623047Y3686302D01*
X7628381Y3691636D01*
X7638795Y3696715D01*
X7659370Y3696715D01*
X7669784Y3691636D01*
X7675118Y3686302D01*
X7680197Y3675887D01*
X7680197Y3665473D01*
X7675118Y3655060D01*
X7664704Y3639565D01*
X7612634Y3587750D01*
X7685531Y3587750D01*
X7730236Y3696715D02*
G01*
X7787386Y3696715D01*
X7756143Y3655060D01*
X7771638Y3655060D01*
X7782052Y3649979D01*
X7787386Y3644900D01*
X7792465Y3629152D01*
X7792465Y3618737D01*
X7787386Y3603244D01*
X7776972Y3592829D01*
X7761224Y3587750D01*
X7745729Y3587750D01*
X7730236Y3592829D01*
X7724902Y3597910D01*
X7719822Y3608323D01*
X7454900Y4750815D02*
G01*
X7454900Y4641850D01*
X7454900Y4750815D02*
G01*
X7501636Y4750815D01*
X7517129Y4745736D01*
X7522463Y4740402D01*
X7527543Y4729987D01*
X7527543Y4719573D01*
X7522463Y4709160D01*
X7517129Y4704079D01*
X7501636Y4699000D01*
X7454900Y4699000D01*
X7491222Y4699000D02*
G01*
X7527543Y4641850D01*
X7567168Y4724907D02*
G01*
X7567168Y4729987D01*
X7572247Y4740402D01*
X7577581Y4745736D01*
X7587995Y4750815D01*
X7608570Y4750815D01*
X7618984Y4745736D01*
X7624318Y4740402D01*
X7629397Y4729987D01*
X7629397Y4719573D01*
X7624318Y4709160D01*
X7613904Y4693665D01*
X7561834Y4641850D01*
X7634731Y4641850D01*
X7720838Y4750815D02*
G01*
X7669022Y4678171D01*
X7747000Y4678171D01*
X7720838Y4750815D02*
G01*
X7720838Y4641850D01*
X5421884Y3657600D02*
G01*
X5530850Y3657600D01*
X5421884Y3657600D02*
G01*
X5421884Y3704336D01*
X5426963Y3719829D01*
X5432297Y3725163D01*
X5442711Y3730244D01*
X5453125Y3730244D01*
X5463540Y3725163D01*
X5468620Y3719829D01*
X5473700Y3704336D01*
X5473700Y3657600D01*
X5473700Y3693921D02*
G01*
X5530850Y3730244D01*
X5447791Y3769868D02*
G01*
X5442711Y3769868D01*
X5432297Y3774947D01*
X5426963Y3780281D01*
X5421884Y3790695D01*
X5421884Y3811270D01*
X5426963Y3821684D01*
X5432297Y3827018D01*
X5442711Y3832097D01*
X5453125Y3832097D01*
X5463540Y3827018D01*
X5479034Y3816604D01*
X5530850Y3764534D01*
X5530850Y3837431D01*
X5421884Y3933952D02*
G01*
X5421884Y3882136D01*
X5468620Y3876802D01*
X5463540Y3882136D01*
X5458206Y3897629D01*
X5458206Y3913123D01*
X5463540Y3928871D01*
X5473700Y3939286D01*
X5489447Y3944365D01*
X5499861Y3944365D01*
X5515356Y3939286D01*
X5525770Y3928871D01*
X5530850Y3913123D01*
X5530850Y3897629D01*
X5525770Y3882136D01*
X5520690Y3876802D01*
X5510275Y3871721D01*
X5993384Y3175000D02*
G01*
X6102350Y3175000D01*
X5993384Y3175000D02*
G01*
X5993384Y3221736D01*
X5998463Y3237229D01*
X6003797Y3242563D01*
X6014211Y3247644D01*
X6024625Y3247644D01*
X6035040Y3242563D01*
X6040120Y3237229D01*
X6045200Y3221736D01*
X6045200Y3175000D01*
X6045200Y3211321D02*
G01*
X6102350Y3247644D01*
X6019291Y3287268D02*
G01*
X6014211Y3287268D01*
X6003797Y3292347D01*
X5998463Y3297681D01*
X5993384Y3308095D01*
X5993384Y3328670D01*
X5998463Y3339084D01*
X6003797Y3344418D01*
X6014211Y3349497D01*
X6024625Y3349497D01*
X6035040Y3344418D01*
X6050534Y3334004D01*
X6102350Y3281934D01*
X6102350Y3354831D01*
X6008877Y3451352D02*
G01*
X5998463Y3446271D01*
X5993384Y3430523D01*
X5993384Y3420110D01*
X5998463Y3404615D01*
X6014211Y3394202D01*
X6040120Y3389121D01*
X6066027Y3389121D01*
X6086856Y3394202D01*
X6097270Y3404615D01*
X6102350Y3420110D01*
X6102350Y3425444D01*
X6097270Y3440937D01*
X6086856Y3451352D01*
X6071361Y3456686D01*
X6066027Y3456686D01*
X6050534Y3451352D01*
X6040120Y3440937D01*
X6035040Y3425444D01*
X6035040Y3420110D01*
X6040120Y3404615D01*
X6050534Y3394202D01*
X6066027Y3389121D01*
X5396484Y2895600D02*
G01*
X5505450Y2895600D01*
X5396484Y2895600D02*
G01*
X5396484Y2942336D01*
X5401563Y2957829D01*
X5406897Y2963163D01*
X5417311Y2968244D01*
X5427725Y2968244D01*
X5438140Y2963163D01*
X5443220Y2957829D01*
X5448300Y2942336D01*
X5448300Y2895600D01*
X5448300Y2931921D02*
G01*
X5505450Y2968244D01*
X5422391Y3007868D02*
G01*
X5417311Y3007868D01*
X5406897Y3012947D01*
X5401563Y3018281D01*
X5396484Y3028695D01*
X5396484Y3049270D01*
X5401563Y3059684D01*
X5406897Y3065018D01*
X5417311Y3070097D01*
X5427725Y3070097D01*
X5438140Y3065018D01*
X5453634Y3054604D01*
X5505450Y3002534D01*
X5505450Y3075431D01*
X5396484Y3182365D02*
G01*
X5505450Y3130550D01*
X5396484Y3109721D02*
G01*
X5396484Y3182365D01*
X5980684Y2476500D02*
G01*
X6089650Y2476500D01*
X5980684Y2476500D02*
G01*
X5980684Y2523236D01*
X5985763Y2538729D01*
X5991097Y2544063D01*
X6001511Y2549144D01*
X6011925Y2549144D01*
X6022340Y2544063D01*
X6027420Y2538729D01*
X6032500Y2523236D01*
X6032500Y2476500D01*
X6032500Y2512821D02*
G01*
X6089650Y2549144D01*
X6006591Y2588768D02*
G01*
X6001511Y2588768D01*
X5991097Y2593847D01*
X5985763Y2599181D01*
X5980684Y2609595D01*
X5980684Y2630170D01*
X5985763Y2640584D01*
X5991097Y2645918D01*
X6001511Y2650997D01*
X6011925Y2650997D01*
X6022340Y2645918D01*
X6037834Y2635504D01*
X6089650Y2583434D01*
X6089650Y2656331D01*
X5980684Y2716529D02*
G01*
X5985763Y2701036D01*
X5996177Y2695702D01*
X6006591Y2695702D01*
X6017006Y2701036D01*
X6022340Y2711450D01*
X6027420Y2732023D01*
X6032500Y2747771D01*
X6042913Y2758186D01*
X6053327Y2763265D01*
X6069075Y2763265D01*
X6079490Y2758186D01*
X6084570Y2752852D01*
X6089650Y2737357D01*
X6089650Y2716529D01*
X6084570Y2701036D01*
X6079490Y2695702D01*
X6069075Y2690621D01*
X6053327Y2690621D01*
X6042913Y2695702D01*
X6032500Y2706115D01*
X6027420Y2721610D01*
X6022340Y2742437D01*
X6017006Y2752852D01*
X6006591Y2758186D01*
X5996177Y2758186D01*
X5985763Y2752852D01*
X5980684Y2737357D01*
X5980684Y2716529D01*
X5371084Y2184400D02*
G01*
X5480050Y2184400D01*
X5371084Y2184400D02*
G01*
X5371084Y2231136D01*
X5376163Y2246629D01*
X5381497Y2251963D01*
X5391911Y2257044D01*
X5402325Y2257044D01*
X5412740Y2251963D01*
X5417820Y2246629D01*
X5422900Y2231136D01*
X5422900Y2184400D01*
X5422900Y2220721D02*
G01*
X5480050Y2257044D01*
X5396991Y2296668D02*
G01*
X5391911Y2296668D01*
X5381497Y2301747D01*
X5376163Y2307081D01*
X5371084Y2317495D01*
X5371084Y2338070D01*
X5376163Y2348484D01*
X5381497Y2353818D01*
X5391911Y2358897D01*
X5402325Y2358897D01*
X5412740Y2353818D01*
X5428234Y2343404D01*
X5480050Y2291334D01*
X5480050Y2364231D01*
X5407406Y2466086D02*
G01*
X5422900Y2460752D01*
X5433313Y2450337D01*
X5438647Y2434844D01*
X5438647Y2429510D01*
X5433313Y2414015D01*
X5422900Y2403602D01*
X5407406Y2398521D01*
X5402325Y2398521D01*
X5386577Y2403602D01*
X5376163Y2414015D01*
X5371084Y2429510D01*
X5371084Y2434844D01*
X5376163Y2450337D01*
X5386577Y2460752D01*
X5407406Y2466086D01*
X5433313Y2466086D01*
X5459475Y2460752D01*
X5474970Y2450337D01*
X5480050Y2434844D01*
X5480050Y2424429D01*
X5474970Y2408936D01*
X5464556Y2403602D01*
X5967984Y1739900D02*
G01*
X6076950Y1739900D01*
X5967984Y1739900D02*
G01*
X5967984Y1786636D01*
X5973063Y1802129D01*
X5978397Y1807463D01*
X5988811Y1812544D01*
X5999225Y1812544D01*
X6009640Y1807463D01*
X6014720Y1802129D01*
X6019800Y1786636D01*
X6019800Y1739900D01*
X6019800Y1776221D02*
G01*
X6076950Y1812544D01*
X5967984Y1857247D02*
G01*
X5967984Y1914397D01*
X6009640Y1883410D01*
X6009640Y1898904D01*
X6014720Y1909318D01*
X6019800Y1914397D01*
X6035547Y1919731D01*
X6045961Y1919731D01*
X6061456Y1914397D01*
X6071870Y1903984D01*
X6076950Y1888489D01*
X6076950Y1872995D01*
X6071870Y1857247D01*
X6066790Y1852168D01*
X6056375Y1846834D01*
X5967984Y1985010D02*
G01*
X5973063Y1969515D01*
X5988811Y1959102D01*
X6014720Y1954021D01*
X6030213Y1954021D01*
X6056375Y1959102D01*
X6071870Y1969515D01*
X6076950Y1985010D01*
X6076950Y1995423D01*
X6071870Y2011171D01*
X6056375Y2021586D01*
X6030213Y2026665D01*
X6014720Y2026665D01*
X5988811Y2021586D01*
X5973063Y2011171D01*
X5967984Y1995423D01*
X5967984Y1985010D01*
X5371084Y1435100D02*
G01*
X5480050Y1435100D01*
X5371084Y1435100D02*
G01*
X5371084Y1481836D01*
X5376163Y1497329D01*
X5381497Y1502663D01*
X5391911Y1507744D01*
X5402325Y1507744D01*
X5412740Y1502663D01*
X5417820Y1497329D01*
X5422900Y1481836D01*
X5422900Y1435100D01*
X5422900Y1471421D02*
G01*
X5480050Y1507744D01*
X5371084Y1552447D02*
G01*
X5371084Y1609597D01*
X5412740Y1578610D01*
X5412740Y1594104D01*
X5417820Y1604518D01*
X5422900Y1609597D01*
X5438647Y1614931D01*
X5449061Y1614931D01*
X5464556Y1609597D01*
X5474970Y1599184D01*
X5480050Y1583689D01*
X5480050Y1568195D01*
X5474970Y1552447D01*
X5469890Y1547368D01*
X5459475Y1542034D01*
X5391911Y1649221D02*
G01*
X5386577Y1659636D01*
X5371084Y1675129D01*
X5480050Y1675129D01*
X5942584Y1003300D02*
G01*
X6051550Y1003300D01*
X5942584Y1003300D02*
G01*
X5942584Y1050036D01*
X5947663Y1065529D01*
X5952997Y1070863D01*
X5963411Y1075944D01*
X5973825Y1075944D01*
X5984240Y1070863D01*
X5989320Y1065529D01*
X5994400Y1050036D01*
X5994400Y1003300D01*
X5994400Y1039621D02*
G01*
X6051550Y1075944D01*
X5942584Y1120647D02*
G01*
X5942584Y1177797D01*
X5984240Y1146810D01*
X5984240Y1162304D01*
X5989320Y1172718D01*
X5994400Y1177797D01*
X6010147Y1183131D01*
X6020561Y1183131D01*
X6036056Y1177797D01*
X6046470Y1167384D01*
X6051550Y1151889D01*
X6051550Y1136395D01*
X6046470Y1120647D01*
X6041390Y1115568D01*
X6030975Y1110234D01*
X5968491Y1222502D02*
G01*
X5963411Y1222502D01*
X5952997Y1227836D01*
X5947663Y1232915D01*
X5942584Y1243329D01*
X5942584Y1264157D01*
X5947663Y1274571D01*
X5952997Y1279652D01*
X5963411Y1284986D01*
X5973825Y1284986D01*
X5984240Y1279652D01*
X5999734Y1269237D01*
X6051550Y1217421D01*
X6051550Y1290065D01*
X8204200Y1169415D02*
G01*
X8204200Y1060450D01*
X8204200Y1169415D02*
G01*
X8250936Y1169415D01*
X8266429Y1164336D01*
X8271763Y1159002D01*
X8276843Y1148587D01*
X8276843Y1138173D01*
X8271763Y1127760D01*
X8266429Y1122679D01*
X8250936Y1117600D01*
X8204200Y1117600D01*
X8240522Y1117600D02*
G01*
X8276843Y1060450D01*
X8321547Y1169415D02*
G01*
X8378697Y1169415D01*
X8347709Y1127760D01*
X8363204Y1127760D01*
X8373618Y1122679D01*
X8378697Y1117600D01*
X8384031Y1101852D01*
X8384031Y1091437D01*
X8378697Y1075944D01*
X8368284Y1065529D01*
X8352790Y1060450D01*
X8337295Y1060450D01*
X8321547Y1065529D01*
X8316468Y1070610D01*
X8311134Y1081023D01*
X8428736Y1169415D02*
G01*
X8485886Y1169415D01*
X8454643Y1127760D01*
X8470138Y1127760D01*
X8480552Y1122679D01*
X8485886Y1117600D01*
X8490965Y1101852D01*
X8490965Y1091437D01*
X8485886Y1075944D01*
X8475472Y1065529D01*
X8459724Y1060450D01*
X8444229Y1060450D01*
X8428736Y1065529D01*
X8423402Y1070610D01*
X8418322Y1081023D01*
X8495284Y1409700D02*
G01*
X8604250Y1409700D01*
X8495284Y1409700D02*
G01*
X8495284Y1456436D01*
X8500363Y1471929D01*
X8505697Y1477263D01*
X8516111Y1482344D01*
X8526525Y1482344D01*
X8536940Y1477263D01*
X8542020Y1471929D01*
X8547100Y1456436D01*
X8547100Y1409700D01*
X8547100Y1446021D02*
G01*
X8604250Y1482344D01*
X8495284Y1527047D02*
G01*
X8495284Y1584197D01*
X8536940Y1553210D01*
X8536940Y1568704D01*
X8542020Y1579118D01*
X8547100Y1584197D01*
X8562847Y1589531D01*
X8573261Y1589531D01*
X8588756Y1584197D01*
X8599170Y1573784D01*
X8604250Y1558289D01*
X8604250Y1542795D01*
X8599170Y1527047D01*
X8594090Y1521968D01*
X8583675Y1516634D01*
X8495284Y1675637D02*
G01*
X8567927Y1623821D01*
X8567927Y1701800D01*
X8495284Y1675637D02*
G01*
X8604250Y1675637D01*
X9564115Y876300D02*
G01*
X9455150Y876300D01*
X9564115Y876300D02*
G01*
X9564115Y829563D01*
X9559036Y814070D01*
X9553702Y808736D01*
X9543288Y803655D01*
X9532874Y803655D01*
X9522459Y808736D01*
X9517379Y814070D01*
X9512300Y829563D01*
X9512300Y876300D01*
X9512300Y839978D02*
G01*
X9455150Y803655D01*
X9564115Y758952D02*
G01*
X9564115Y701802D01*
X9522459Y732789D01*
X9522459Y717295D01*
X9517379Y706881D01*
X9512300Y701802D01*
X9496552Y696468D01*
X9486138Y696468D01*
X9470643Y701802D01*
X9460229Y712215D01*
X9455150Y727710D01*
X9455150Y743204D01*
X9460229Y758952D01*
X9465309Y764031D01*
X9475724Y769365D01*
X9564115Y599947D02*
G01*
X9564115Y651763D01*
X9517379Y657097D01*
X9522459Y651763D01*
X9527793Y636270D01*
X9527793Y620776D01*
X9522459Y605028D01*
X9512300Y594613D01*
X9496552Y589534D01*
X9486138Y589534D01*
X9470643Y594613D01*
X9460229Y605028D01*
X9455150Y620776D01*
X9455150Y636270D01*
X9460229Y651763D01*
X9465309Y657097D01*
X9475724Y662178D01*
X8495284Y863600D02*
G01*
X8604250Y863600D01*
X8495284Y863600D02*
G01*
X8495284Y910336D01*
X8500363Y925829D01*
X8505697Y931163D01*
X8516111Y936244D01*
X8526525Y936244D01*
X8536940Y931163D01*
X8542020Y925829D01*
X8547100Y910336D01*
X8547100Y863600D01*
X8547100Y899921D02*
G01*
X8604250Y936244D01*
X8495284Y980947D02*
G01*
X8495284Y1038097D01*
X8536940Y1007110D01*
X8536940Y1022604D01*
X8542020Y1033018D01*
X8547100Y1038097D01*
X8562847Y1043431D01*
X8573261Y1043431D01*
X8588756Y1038097D01*
X8599170Y1027684D01*
X8604250Y1012189D01*
X8604250Y996695D01*
X8599170Y980947D01*
X8594090Y975868D01*
X8583675Y970534D01*
X8510777Y1139952D02*
G01*
X8500363Y1134871D01*
X8495284Y1119123D01*
X8495284Y1108710D01*
X8500363Y1093215D01*
X8516111Y1082802D01*
X8542020Y1077721D01*
X8567927Y1077721D01*
X8588756Y1082802D01*
X8599170Y1093215D01*
X8604250Y1108710D01*
X8604250Y1114044D01*
X8599170Y1129537D01*
X8588756Y1139952D01*
X8573261Y1145286D01*
X8567927Y1145286D01*
X8552434Y1139952D01*
X8542020Y1129537D01*
X8536940Y1114044D01*
X8536940Y1108710D01*
X8542020Y1093215D01*
X8552434Y1082802D01*
X8567927Y1077721D01*
X3721100Y4166615D02*
G01*
X3721100Y4057650D01*
X3721100Y4166615D02*
G01*
X3767836Y4166615D01*
X3783329Y4161536D01*
X3788663Y4156202D01*
X3793743Y4145787D01*
X3793743Y4135373D01*
X3788663Y4124960D01*
X3783329Y4119879D01*
X3767836Y4114800D01*
X3721100Y4114800D01*
X3757422Y4114800D02*
G01*
X3793743Y4057650D01*
X3838447Y4166615D02*
G01*
X3895597Y4166615D01*
X3864609Y4124960D01*
X3880104Y4124960D01*
X3890518Y4119879D01*
X3895597Y4114800D01*
X3900931Y4099052D01*
X3900931Y4088637D01*
X3895597Y4073144D01*
X3885184Y4062729D01*
X3869690Y4057650D01*
X3854195Y4057650D01*
X3838447Y4062729D01*
X3833368Y4067810D01*
X3828034Y4078223D01*
X4007865Y4166615D02*
G01*
X3956050Y4057650D01*
X3935222Y4166615D02*
G01*
X4007865Y4166615D01*
X3098800Y4153915D02*
G01*
X3098800Y4044950D01*
X3098800Y4153915D02*
G01*
X3145536Y4153915D01*
X3161029Y4148836D01*
X3166363Y4143502D01*
X3171443Y4133087D01*
X3171443Y4122673D01*
X3166363Y4112260D01*
X3161029Y4107179D01*
X3145536Y4102100D01*
X3098800Y4102100D01*
X3135122Y4102100D02*
G01*
X3171443Y4044950D01*
X3216147Y4153915D02*
G01*
X3273297Y4153915D01*
X3242309Y4112260D01*
X3257804Y4112260D01*
X3268218Y4107179D01*
X3273297Y4102100D01*
X3278631Y4086352D01*
X3278631Y4075937D01*
X3273297Y4060444D01*
X3262884Y4050029D01*
X3247390Y4044950D01*
X3231895Y4044950D01*
X3216147Y4050029D01*
X3211068Y4055110D01*
X3205734Y4065523D01*
X3338829Y4153915D02*
G01*
X3323336Y4148836D01*
X3318002Y4138421D01*
X3318002Y4128007D01*
X3323336Y4117594D01*
X3333750Y4112260D01*
X3354324Y4107179D01*
X3370072Y4102100D01*
X3380486Y4091686D01*
X3385565Y4081271D01*
X3385565Y4065523D01*
X3380486Y4055110D01*
X3375152Y4050029D01*
X3359658Y4044950D01*
X3338829Y4044950D01*
X3323336Y4050029D01*
X3318002Y4055110D01*
X3312922Y4065523D01*
X3312922Y4081271D01*
X3318002Y4091686D01*
X3328415Y4102100D01*
X3343909Y4107179D01*
X3364738Y4112260D01*
X3375152Y4117594D01*
X3380486Y4128007D01*
X3380486Y4138421D01*
X3375152Y4148836D01*
X3359658Y4153915D01*
X3338829Y4153915D01*
X2489200Y4166615D02*
G01*
X2489200Y4057650D01*
X2489200Y4166615D02*
G01*
X2535936Y4166615D01*
X2551429Y4161536D01*
X2556763Y4156202D01*
X2561843Y4145787D01*
X2561843Y4135373D01*
X2556763Y4124960D01*
X2551429Y4119879D01*
X2535936Y4114800D01*
X2489200Y4114800D01*
X2525522Y4114800D02*
G01*
X2561843Y4057650D01*
X2606547Y4166615D02*
G01*
X2663697Y4166615D01*
X2632709Y4124960D01*
X2648204Y4124960D01*
X2658618Y4119879D01*
X2663697Y4114800D01*
X2669031Y4099052D01*
X2669031Y4088637D01*
X2663697Y4073144D01*
X2653284Y4062729D01*
X2637790Y4057650D01*
X2622295Y4057650D01*
X2606547Y4062729D01*
X2601468Y4067810D01*
X2596134Y4078223D01*
X2770886Y4130294D02*
G01*
X2765552Y4114800D01*
X2755138Y4104386D01*
X2739643Y4099052D01*
X2734309Y4099052D01*
X2718815Y4104386D01*
X2708402Y4114800D01*
X2703322Y4130294D01*
X2703322Y4135373D01*
X2708402Y4151121D01*
X2718815Y4161536D01*
X2734309Y4166615D01*
X2739643Y4166615D01*
X2755138Y4161536D01*
X2765552Y4151121D01*
X2770886Y4130294D01*
X2770886Y4104386D01*
X2765552Y4078223D01*
X2755138Y4062729D01*
X2739643Y4057650D01*
X2729229Y4057650D01*
X2713736Y4062729D01*
X2708402Y4073144D01*
X3429000Y2121915D02*
G01*
X3429000Y2012950D01*
X3429000Y2121915D02*
G01*
X3475736Y2121915D01*
X3491229Y2116836D01*
X3496563Y2111502D01*
X3501643Y2101087D01*
X3501643Y2090673D01*
X3496563Y2080260D01*
X3491229Y2075179D01*
X3475736Y2070100D01*
X3429000Y2070100D01*
X3465322Y2070100D02*
G01*
X3501643Y2012950D01*
X3588004Y2121915D02*
G01*
X3535934Y2049271D01*
X3613911Y2049271D01*
X3588004Y2121915D02*
G01*
X3588004Y2012950D01*
X3679443Y2121915D02*
G01*
X3663950Y2116836D01*
X3653536Y2101087D01*
X3648202Y2075179D01*
X3648202Y2059686D01*
X3653536Y2033523D01*
X3663950Y2018029D01*
X3679443Y2012950D01*
X3689858Y2012950D01*
X3705352Y2018029D01*
X3715765Y2033523D01*
X3721100Y2059686D01*
X3721100Y2075179D01*
X3715765Y2101087D01*
X3705352Y2116836D01*
X3689858Y2121915D01*
X3679443Y2121915D01*
X3683000Y2718815D02*
G01*
X3683000Y2609850D01*
X3683000Y2718815D02*
G01*
X3729736Y2718815D01*
X3745229Y2713736D01*
X3750563Y2708402D01*
X3755643Y2697987D01*
X3755643Y2687573D01*
X3750563Y2677160D01*
X3745229Y2672079D01*
X3729736Y2667000D01*
X3683000Y2667000D01*
X3719322Y2667000D02*
G01*
X3755643Y2609850D01*
X3842004Y2718815D02*
G01*
X3789934Y2646171D01*
X3867911Y2646171D01*
X3842004Y2718815D02*
G01*
X3842004Y2609850D01*
X3902202Y2697987D02*
G01*
X3912615Y2703321D01*
X3928109Y2718815D01*
X3928109Y2609850D01*
X2997200Y2198115D02*
G01*
X2997200Y2089150D01*
X2997200Y2198115D02*
G01*
X3043936Y2198115D01*
X3059429Y2193036D01*
X3064763Y2187702D01*
X3069843Y2177287D01*
X3069843Y2166873D01*
X3064763Y2156460D01*
X3059429Y2151379D01*
X3043936Y2146300D01*
X2997200Y2146300D01*
X3033522Y2146300D02*
G01*
X3069843Y2089150D01*
X3156204Y2198115D02*
G01*
X3104134Y2125471D01*
X3182111Y2125471D01*
X3156204Y2198115D02*
G01*
X3156204Y2089150D01*
X3221736Y2172207D02*
G01*
X3221736Y2177287D01*
X3226815Y2187702D01*
X3232150Y2193036D01*
X3242309Y2198115D01*
X3263138Y2198115D01*
X3273552Y2193036D01*
X3278886Y2187702D01*
X3283965Y2177287D01*
X3283965Y2166873D01*
X3278886Y2156460D01*
X3268472Y2140965D01*
X3216402Y2089150D01*
X3289300Y2089150D01*
X3822700Y1283715D02*
G01*
X3822700Y1174750D01*
X3822700Y1283715D02*
G01*
X3869436Y1283715D01*
X3884929Y1278636D01*
X3890263Y1273302D01*
X3895343Y1262887D01*
X3895343Y1252473D01*
X3890263Y1242060D01*
X3884929Y1236979D01*
X3869436Y1231900D01*
X3822700Y1231900D01*
X3859022Y1231900D02*
G01*
X3895343Y1174750D01*
X3981704Y1283715D02*
G01*
X3929634Y1211071D01*
X4007611Y1211071D01*
X3981704Y1283715D02*
G01*
X3981704Y1174750D01*
X4052315Y1283715D02*
G01*
X4109465Y1283715D01*
X4078224Y1242060D01*
X4093972Y1242060D01*
X4104386Y1236979D01*
X4109465Y1231900D01*
X4114800Y1216152D01*
X4114800Y1205737D01*
X4109465Y1190244D01*
X4099052Y1179829D01*
X4083558Y1174750D01*
X4067809Y1174750D01*
X4052315Y1179829D01*
X4047236Y1184910D01*
X4041902Y1195323D01*
X1637284Y2387600D02*
G01*
X1746250Y2387600D01*
X1637284Y2387600D02*
G01*
X1637284Y2434336D01*
X1642363Y2449829D01*
X1647697Y2455163D01*
X1658112Y2460244D01*
X1668526Y2460244D01*
X1678939Y2455163D01*
X1684020Y2449829D01*
X1689100Y2434336D01*
X1689100Y2387600D01*
X1689100Y2423921D02*
G01*
X1746250Y2460244D01*
X1637284Y2546604D02*
G01*
X1709928Y2494534D01*
X1709928Y2572512D01*
X1637284Y2546604D02*
G01*
X1746250Y2546604D01*
X1637284Y2658871D02*
G01*
X1709928Y2606802D01*
X1709928Y2684779D01*
X1637284Y2658871D02*
G01*
X1746250Y2658871D01*
X4659884Y1054100D02*
G01*
X4768850Y1054100D01*
X4659884Y1054100D02*
G01*
X4659884Y1100836D01*
X4664963Y1116329D01*
X4670297Y1121663D01*
X4680711Y1126744D01*
X4691125Y1126744D01*
X4701540Y1121663D01*
X4706620Y1116329D01*
X4711700Y1100836D01*
X4711700Y1054100D01*
X4711700Y1090421D02*
G01*
X4768850Y1126744D01*
X4659884Y1213104D02*
G01*
X4732527Y1161034D01*
X4732527Y1239012D01*
X4659884Y1213104D02*
G01*
X4768850Y1213104D01*
X4659884Y1335786D02*
G01*
X4659884Y1283715D01*
X4706620Y1278636D01*
X4701540Y1283715D01*
X4696206Y1299210D01*
X4696206Y1314957D01*
X4701540Y1330452D01*
X4711700Y1340865D01*
X4727447Y1346200D01*
X4737861Y1346200D01*
X4753356Y1340865D01*
X4763770Y1330452D01*
X4768850Y1314957D01*
X4768850Y1299210D01*
X4763770Y1283715D01*
X4758690Y1278636D01*
X4748275Y1273302D01*
X4876800Y1893315D02*
G01*
X4876800Y1784350D01*
X4876800Y1893315D02*
G01*
X4923536Y1893315D01*
X4939029Y1888236D01*
X4944363Y1882902D01*
X4949443Y1872487D01*
X4949443Y1862073D01*
X4944363Y1851660D01*
X4939029Y1846579D01*
X4923536Y1841500D01*
X4876800Y1841500D01*
X4913122Y1841500D02*
G01*
X4949443Y1784350D01*
X5035804Y1893315D02*
G01*
X4983734Y1820671D01*
X5061711Y1820671D01*
X5035804Y1893315D02*
G01*
X5035804Y1784350D01*
X5158486Y1877821D02*
G01*
X5153152Y1888236D01*
X5137658Y1893315D01*
X5127243Y1893315D01*
X5111750Y1888236D01*
X5101336Y1872487D01*
X5096002Y1846579D01*
X5096002Y1820671D01*
X5101336Y1799844D01*
X5111750Y1789429D01*
X5127243Y1784350D01*
X5132324Y1784350D01*
X5148072Y1789429D01*
X5158486Y1799844D01*
X5163565Y1815337D01*
X5163565Y1820671D01*
X5158486Y1836165D01*
X5148072Y1846579D01*
X5132324Y1851660D01*
X5127243Y1851660D01*
X5111750Y1846579D01*
X5101336Y1836165D01*
X5096002Y1820671D01*
X4330700Y2071115D02*
G01*
X4330700Y1962150D01*
X4330700Y2071115D02*
G01*
X4377436Y2071115D01*
X4392929Y2066036D01*
X4398263Y2060702D01*
X4403343Y2050287D01*
X4403343Y2039873D01*
X4398263Y2029460D01*
X4392929Y2024379D01*
X4377436Y2019300D01*
X4330700Y2019300D01*
X4367022Y2019300D02*
G01*
X4403343Y1962150D01*
X4489704Y2071115D02*
G01*
X4437634Y1998471D01*
X4515611Y1998471D01*
X4489704Y2071115D02*
G01*
X4489704Y1962150D01*
X4622800Y2071115D02*
G01*
X4570729Y1962150D01*
X4549902Y2071115D02*
G01*
X4622800Y2071115D01*
X3949700Y2325115D02*
G01*
X3949700Y2216150D01*
X3949700Y2325115D02*
G01*
X3996436Y2325115D01*
X4011929Y2320036D01*
X4017263Y2314702D01*
X4022343Y2304287D01*
X4022343Y2293873D01*
X4017263Y2283460D01*
X4011929Y2278379D01*
X3996436Y2273300D01*
X3949700Y2273300D01*
X3986022Y2273300D02*
G01*
X4022343Y2216150D01*
X4108704Y2325115D02*
G01*
X4056634Y2252471D01*
X4134611Y2252471D01*
X4108704Y2325115D02*
G01*
X4108704Y2216150D01*
X4194809Y2325115D02*
G01*
X4179315Y2320036D01*
X4174236Y2309621D01*
X4174236Y2299207D01*
X4179315Y2288794D01*
X4189729Y2283460D01*
X4210558Y2278379D01*
X4226052Y2273300D01*
X4236465Y2262886D01*
X4241800Y2252471D01*
X4241800Y2236723D01*
X4236465Y2226310D01*
X4231386Y2221229D01*
X4215638Y2216150D01*
X4194809Y2216150D01*
X4179315Y2221229D01*
X4174236Y2226310D01*
X4168902Y2236723D01*
X4168902Y2252471D01*
X4174236Y2262886D01*
X4184650Y2273300D01*
X4200143Y2278379D01*
X4220972Y2283460D01*
X4231386Y2288794D01*
X4236465Y2299207D01*
X4236465Y2309621D01*
X4231386Y2320036D01*
X4215638Y2325115D01*
X4194809Y2325115D01*
X2769615Y4584700D02*
G01*
X2660650Y4584700D01*
X2769615Y4584700D02*
G01*
X2769615Y4537963D01*
X2764536Y4522470D01*
X2759202Y4517136D01*
X2748788Y4512055D01*
X2738374Y4512055D01*
X2727959Y4517136D01*
X2722879Y4522470D01*
X2717800Y4537963D01*
X2717800Y4584700D01*
X2717800Y4548378D02*
G01*
X2660650Y4512055D01*
X2769615Y4425695D02*
G01*
X2696972Y4477765D01*
X2696972Y4399787D01*
X2769615Y4425695D02*
G01*
X2660650Y4425695D01*
X2733293Y4297934D02*
G01*
X2717800Y4303013D01*
X2707386Y4313428D01*
X2702052Y4329176D01*
X2702052Y4334255D01*
X2707386Y4349750D01*
X2717800Y4360163D01*
X2733293Y4365497D01*
X2738374Y4365497D01*
X2754122Y4360163D01*
X2764536Y4349750D01*
X2769615Y4334255D01*
X2769615Y4329176D01*
X2764536Y4313428D01*
X2754122Y4303013D01*
X2733293Y4297934D01*
X2707386Y4297934D01*
X2681224Y4303013D01*
X2665729Y4313428D01*
X2660650Y4329176D01*
X2660650Y4339589D01*
X2665729Y4355084D01*
X2676143Y4360163D01*
X2323084Y4292600D02*
G01*
X2432050Y4292600D01*
X2323084Y4292600D02*
G01*
X2323084Y4339336D01*
X2328163Y4354829D01*
X2333497Y4360163D01*
X2343911Y4365244D01*
X2354325Y4365244D01*
X2364740Y4360163D01*
X2369820Y4354829D01*
X2374900Y4339336D01*
X2374900Y4292600D01*
X2374900Y4328921D02*
G01*
X2432050Y4365244D01*
X2323084Y4462018D02*
G01*
X2323084Y4409947D01*
X2369820Y4404868D01*
X2364740Y4409947D01*
X2359406Y4425695D01*
X2359406Y4441189D01*
X2364740Y4456684D01*
X2374900Y4467097D01*
X2390647Y4472431D01*
X2401061Y4472431D01*
X2416556Y4467097D01*
X2426970Y4456684D01*
X2432050Y4441189D01*
X2432050Y4425695D01*
X2426970Y4409947D01*
X2421890Y4404868D01*
X2411475Y4399534D01*
X2323084Y4537710D02*
G01*
X2328163Y4522215D01*
X2343911Y4511802D01*
X2369820Y4506721D01*
X2385313Y4506721D01*
X2411475Y4511802D01*
X2426970Y4522215D01*
X2432050Y4537710D01*
X2432050Y4548123D01*
X2426970Y4563871D01*
X2411475Y4574286D01*
X2385313Y4579365D01*
X2369820Y4579365D01*
X2343911Y4574286D01*
X2328163Y4563871D01*
X2323084Y4548123D01*
X2323084Y4537710D01*
X1638300Y6414515D02*
G01*
X1638300Y6305550D01*
X1638300Y6414515D02*
G01*
X1685036Y6414515D01*
X1700529Y6409436D01*
X1705863Y6404102D01*
X1710944Y6393687D01*
X1710944Y6383273D01*
X1705863Y6372860D01*
X1700529Y6367779D01*
X1685036Y6362700D01*
X1638300Y6362700D01*
X1674621Y6362700D02*
G01*
X1710944Y6305550D01*
X1807718Y6414515D02*
G01*
X1755647Y6414515D01*
X1750568Y6367779D01*
X1755647Y6372860D01*
X1771395Y6378194D01*
X1786889Y6378194D01*
X1802384Y6372860D01*
X1812797Y6362700D01*
X1818131Y6346952D01*
X1818131Y6336537D01*
X1812797Y6321044D01*
X1802384Y6310629D01*
X1786889Y6305550D01*
X1771395Y6305550D01*
X1755647Y6310629D01*
X1750568Y6315710D01*
X1745234Y6326123D01*
X1852421Y6393687D02*
G01*
X1862836Y6399021D01*
X1878329Y6414515D01*
X1878329Y6305550D01*
X1041400Y6401815D02*
G01*
X1041400Y6292850D01*
X1041400Y6401815D02*
G01*
X1088136Y6401815D01*
X1103629Y6396736D01*
X1108963Y6391402D01*
X1114044Y6380987D01*
X1114044Y6370573D01*
X1108963Y6360160D01*
X1103629Y6355079D01*
X1088136Y6350000D01*
X1041400Y6350000D01*
X1077721Y6350000D02*
G01*
X1114044Y6292850D01*
X1210818Y6401815D02*
G01*
X1158747Y6401815D01*
X1153668Y6355079D01*
X1158747Y6360160D01*
X1174495Y6365494D01*
X1189989Y6365494D01*
X1205484Y6360160D01*
X1215897Y6350000D01*
X1221231Y6334252D01*
X1221231Y6323837D01*
X1215897Y6308344D01*
X1205484Y6297929D01*
X1189989Y6292850D01*
X1174495Y6292850D01*
X1158747Y6297929D01*
X1153668Y6303010D01*
X1148334Y6313423D01*
X1260602Y6375907D02*
G01*
X1260602Y6380987D01*
X1265936Y6391402D01*
X1271015Y6396736D01*
X1281429Y6401815D01*
X1302257Y6401815D01*
X1312671Y6396736D01*
X1317752Y6391402D01*
X1323086Y6380987D01*
X1323086Y6370573D01*
X1317752Y6360160D01*
X1307337Y6344665D01*
X1255521Y6292850D01*
X1328165Y6292850D01*
X711200Y4090415D02*
G01*
X711200Y3981450D01*
X711200Y4090415D02*
G01*
X757936Y4090415D01*
X773429Y4085336D01*
X778763Y4080002D01*
X783844Y4069587D01*
X783844Y4059173D01*
X778763Y4048760D01*
X773429Y4043679D01*
X757936Y4038600D01*
X711200Y4038600D01*
X747521Y4038600D02*
G01*
X783844Y3981450D01*
X880618Y4090415D02*
G01*
X828547Y4090415D01*
X823468Y4043679D01*
X828547Y4048760D01*
X844295Y4054094D01*
X859789Y4054094D01*
X875284Y4048760D01*
X885697Y4038600D01*
X891031Y4022852D01*
X891031Y4012437D01*
X885697Y3996944D01*
X875284Y3986529D01*
X859789Y3981450D01*
X844295Y3981450D01*
X828547Y3986529D01*
X823468Y3991610D01*
X818134Y4002023D01*
X935736Y4090415D02*
G01*
X992886Y4090415D01*
X961644Y4048760D01*
X977137Y4048760D01*
X987552Y4043679D01*
X992886Y4038600D01*
X997965Y4022852D01*
X997965Y4012437D01*
X992886Y3996944D01*
X982471Y3986529D01*
X966723Y3981450D01*
X951229Y3981450D01*
X935736Y3986529D01*
X930402Y3991610D01*
X925321Y4002023D01*
X673100Y5017515D02*
G01*
X673100Y4908550D01*
X673100Y5017515D02*
G01*
X719836Y5017515D01*
X735329Y5012436D01*
X740663Y5007102D01*
X745744Y4996687D01*
X745744Y4986273D01*
X740663Y4975860D01*
X735329Y4970779D01*
X719836Y4965700D01*
X673100Y4965700D01*
X709421Y4965700D02*
G01*
X745744Y4908550D01*
X842518Y5017515D02*
G01*
X790447Y5017515D01*
X785368Y4970779D01*
X790447Y4975860D01*
X806195Y4981194D01*
X821689Y4981194D01*
X837184Y4975860D01*
X847597Y4965700D01*
X852931Y4949952D01*
X852931Y4939537D01*
X847597Y4924044D01*
X837184Y4913629D01*
X821689Y4908550D01*
X806195Y4908550D01*
X790447Y4913629D01*
X785368Y4918710D01*
X780034Y4929123D01*
X939037Y5017515D02*
G01*
X887221Y4944871D01*
X965200Y4944871D01*
X939037Y5017515D02*
G01*
X939037Y4908550D01*
X685800Y4534915D02*
G01*
X685800Y4425950D01*
X685800Y4534915D02*
G01*
X732536Y4534915D01*
X748029Y4529836D01*
X753363Y4524502D01*
X758444Y4514087D01*
X758444Y4503673D01*
X753363Y4493260D01*
X748029Y4488179D01*
X732536Y4483100D01*
X685800Y4483100D01*
X722121Y4483100D02*
G01*
X758444Y4425950D01*
X855218Y4534915D02*
G01*
X803147Y4534915D01*
X798068Y4488179D01*
X803147Y4493260D01*
X818895Y4498594D01*
X834389Y4498594D01*
X849884Y4493260D01*
X860297Y4483100D01*
X865631Y4467352D01*
X865631Y4456937D01*
X860297Y4441444D01*
X849884Y4431029D01*
X834389Y4425950D01*
X818895Y4425950D01*
X803147Y4431029D01*
X798068Y4436110D01*
X792734Y4446523D01*
X962152Y4534915D02*
G01*
X910336Y4534915D01*
X905002Y4488179D01*
X910336Y4493260D01*
X925829Y4498594D01*
X941323Y4498594D01*
X957071Y4493260D01*
X967486Y4483100D01*
X972565Y4467352D01*
X972565Y4456937D01*
X967486Y4441444D01*
X957071Y4431029D01*
X941323Y4425950D01*
X925829Y4425950D01*
X910336Y4431029D01*
X905002Y4436110D01*
X899921Y4446523D01*
X1294384Y6769100D02*
G01*
X1403350Y6769100D01*
X1294384Y6769100D02*
G01*
X1294384Y6815836D01*
X1299463Y6831329D01*
X1304797Y6836663D01*
X1315212Y6841744D01*
X1325626Y6841744D01*
X1336039Y6836663D01*
X1341120Y6831329D01*
X1346200Y6815836D01*
X1346200Y6769100D01*
X1346200Y6805421D02*
G01*
X1403350Y6841744D01*
X1294384Y6938518D02*
G01*
X1294384Y6886447D01*
X1341120Y6881368D01*
X1336039Y6886447D01*
X1330705Y6902195D01*
X1330705Y6917689D01*
X1336039Y6933184D01*
X1346200Y6943597D01*
X1361947Y6948931D01*
X1372362Y6948931D01*
X1387855Y6943597D01*
X1398270Y6933184D01*
X1403350Y6917689D01*
X1403350Y6902195D01*
X1398270Y6886447D01*
X1393189Y6881368D01*
X1382776Y6876034D01*
X1309878Y7045452D02*
G01*
X1299463Y7040371D01*
X1294384Y7024623D01*
X1294384Y7014210D01*
X1299463Y6998715D01*
X1315212Y6988302D01*
X1341120Y6983221D01*
X1367028Y6983221D01*
X1387855Y6988302D01*
X1398270Y6998715D01*
X1403350Y7014210D01*
X1403350Y7019544D01*
X1398270Y7035037D01*
X1387855Y7045452D01*
X1372362Y7050786D01*
X1367028Y7050786D01*
X1351534Y7045452D01*
X1341120Y7035037D01*
X1336039Y7019544D01*
X1336039Y7014210D01*
X1341120Y6998715D01*
X1351534Y6988302D01*
X1367028Y6983221D01*
X3546144Y8148015D02*
G01*
X3535730Y8158429D01*
X3520236Y8163509D01*
X3499408Y8163509D01*
X3483914Y8158429D01*
X3473500Y8148015D01*
X3473500Y8137601D01*
X3478580Y8127187D01*
X3483914Y8121853D01*
X3494328Y8116773D01*
X3525570Y8106359D01*
X3535730Y8101279D01*
X3541064Y8095945D01*
X3546144Y8085531D01*
X3546144Y8070037D01*
X3535730Y8059623D01*
X3520236Y8054543D01*
X3499408Y8054543D01*
X3483914Y8059623D01*
X3473500Y8070037D01*
X3580434Y8163509D02*
G01*
X3606596Y8054543D01*
X3632504Y8163509D02*
G01*
X3606596Y8054543D01*
X3632504Y8163509D02*
G01*
X3658412Y8054543D01*
X3684320Y8163509D02*
G01*
X3658412Y8054543D01*
X3718610Y8142681D02*
G01*
X3729024Y8148015D01*
X3744772Y8163509D01*
X3744772Y8054543D01*
X7151115Y7772400D02*
G01*
X7073138Y7772400D01*
X7057643Y7767320D01*
X7047229Y7756905D01*
X7042150Y7741158D01*
X7042150Y7730744D01*
X7047229Y7715250D01*
X7057643Y7704836D01*
X7073138Y7699755D01*
X7151115Y7699755D01*
X7130288Y7665465D02*
G01*
X7135622Y7655052D01*
X7151115Y7639304D01*
X7042150Y7639304D01*
X3950588Y6540715D02*
G01*
X3950588Y6462737D01*
X3955668Y6447243D01*
X3966083Y6436829D01*
X3981831Y6431749D01*
X3992245Y6431749D01*
X4007738Y6436829D01*
X4018152Y6447243D01*
X4023233Y6462737D01*
X4023233Y6540715D01*
X4062856Y6514807D02*
G01*
X4062856Y6519887D01*
X4067936Y6530301D01*
X4073270Y6535635D01*
X4083684Y6540715D01*
X4104259Y6540715D01*
X4114672Y6535635D01*
X4120006Y6530301D01*
X4125086Y6519887D01*
X4125086Y6509473D01*
X4120006Y6499059D01*
X4109593Y6483565D01*
X4057522Y6431749D01*
X4130420Y6431749D01*
X6908800Y5792215D02*
G01*
X6908800Y5714237D01*
X6913879Y5698744D01*
X6924293Y5688329D01*
X6940041Y5683250D01*
X6950456Y5683250D01*
X6965950Y5688329D01*
X6976363Y5698744D01*
X6981443Y5714237D01*
X6981443Y5792215D01*
X7026147Y5792215D02*
G01*
X7083297Y5792215D01*
X7052309Y5750560D01*
X7067804Y5750560D01*
X7078218Y5745479D01*
X7083297Y5740400D01*
X7088631Y5724652D01*
X7088631Y5714237D01*
X7083297Y5698744D01*
X7072884Y5688329D01*
X7057390Y5683250D01*
X7041895Y5683250D01*
X7026147Y5688329D01*
X7021068Y5693410D01*
X7015734Y5703823D01*
X7315200Y6871715D02*
G01*
X7315200Y6793737D01*
X7320279Y6778244D01*
X7330693Y6767829D01*
X7346441Y6762750D01*
X7356856Y6762750D01*
X7372350Y6767829D01*
X7382763Y6778244D01*
X7387843Y6793737D01*
X7387843Y6871715D01*
X7474204Y6871715D02*
G01*
X7422134Y6799071D01*
X7500111Y6799071D01*
X7474204Y6871715D02*
G01*
X7474204Y6762750D01*
X5892787Y6820915D02*
G01*
X5892787Y6742937D01*
X5897867Y6727444D01*
X5908281Y6717029D01*
X5924029Y6711950D01*
X5934443Y6711950D01*
X5949937Y6717029D01*
X5960351Y6727444D01*
X5965431Y6742937D01*
X5965431Y6820915D01*
X6062205Y6820915D02*
G01*
X6010135Y6820915D01*
X6005055Y6774179D01*
X6010135Y6779260D01*
X6025883Y6784594D01*
X6041377Y6784594D01*
X6056871Y6779260D01*
X6067285Y6769100D01*
X6072619Y6753352D01*
X6072619Y6742937D01*
X6067285Y6727444D01*
X6056871Y6717029D01*
X6041377Y6711950D01*
X6025883Y6711950D01*
X6010135Y6717029D01*
X6005055Y6722110D01*
X5999721Y6732523D01*
X8314715Y1780768D02*
G01*
X8314715Y1858746D01*
X8309635Y1874240D01*
X8299221Y1884654D01*
X8283473Y1889734D01*
X8273059Y1889734D01*
X8257565Y1884654D01*
X8247151Y1874240D01*
X8242071Y1858746D01*
X8242071Y1780768D01*
X8145297Y1796262D02*
G01*
X8150631Y1785848D01*
X8166125Y1780768D01*
X8176539Y1780768D01*
X8192033Y1785848D01*
X8202447Y1801596D01*
X8207781Y1827504D01*
X8207781Y1853412D01*
X8202447Y1874240D01*
X8192033Y1884654D01*
X8176539Y1889734D01*
X8171205Y1889734D01*
X8155711Y1884654D01*
X8145297Y1874240D01*
X8140217Y1858746D01*
X8140217Y1853412D01*
X8145297Y1837918D01*
X8155711Y1827504D01*
X8171205Y1822424D01*
X8176539Y1822424D01*
X8192033Y1827504D01*
X8202447Y1837918D01*
X8207781Y1853412D01*
X8098815Y2466568D02*
G01*
X8098815Y2544546D01*
X8093735Y2560040D01*
X8083321Y2570454D01*
X8067573Y2575534D01*
X8057159Y2575534D01*
X8041665Y2570454D01*
X8031251Y2560040D01*
X8026171Y2544546D01*
X8026171Y2466568D01*
X7918983Y2466568D02*
G01*
X7971053Y2575534D01*
X7991881Y2466568D02*
G01*
X7918983Y2466568D01*
X8098815Y3241268D02*
G01*
X8098815Y3319246D01*
X8093735Y3334740D01*
X8083321Y3345154D01*
X8067573Y3350234D01*
X8057159Y3350234D01*
X8041665Y3345154D01*
X8031251Y3334740D01*
X8026171Y3319246D01*
X8026171Y3241268D01*
X7965719Y3241268D02*
G01*
X7981467Y3246348D01*
X7986547Y3256762D01*
X7986547Y3267176D01*
X7981467Y3277590D01*
X7971053Y3282924D01*
X7950225Y3288004D01*
X7934731Y3293084D01*
X7924317Y3303498D01*
X7918983Y3313912D01*
X7918983Y3329660D01*
X7924317Y3340074D01*
X7929397Y3345154D01*
X7945145Y3350234D01*
X7965719Y3350234D01*
X7981467Y3345154D01*
X7986547Y3340074D01*
X7991881Y3329660D01*
X7991881Y3313912D01*
X7986547Y3303498D01*
X7976133Y3293084D01*
X7960639Y3288004D01*
X7939811Y3282924D01*
X7929397Y3277590D01*
X7924317Y3267176D01*
X7924317Y3256762D01*
X7929397Y3246348D01*
X7945145Y3241268D01*
X7965719Y3241268D01*
X7874000Y4357115D02*
G01*
X7874000Y4279137D01*
X7879079Y4263644D01*
X7889493Y4253229D01*
X7905241Y4248150D01*
X7915656Y4248150D01*
X7931150Y4253229D01*
X7941563Y4263644D01*
X7946643Y4279137D01*
X7946643Y4357115D01*
X8048497Y4320794D02*
G01*
X8043418Y4305300D01*
X8033004Y4294886D01*
X8017509Y4289552D01*
X8012175Y4289552D01*
X7996681Y4294886D01*
X7986268Y4305300D01*
X7980934Y4320794D01*
X7980934Y4325873D01*
X7986268Y4341621D01*
X7996681Y4352036D01*
X8012175Y4357115D01*
X8017509Y4357115D01*
X8033004Y4352036D01*
X8043418Y4341621D01*
X8048497Y4320794D01*
X8048497Y4294886D01*
X8043418Y4268723D01*
X8033004Y4253229D01*
X8017509Y4248150D01*
X8007095Y4248150D01*
X7991347Y4253229D01*
X7986268Y4263644D01*
X3215868Y3229584D02*
G01*
X3293846Y3229584D01*
X3309340Y3234664D01*
X3319754Y3245078D01*
X3324834Y3260826D01*
X3324834Y3271240D01*
X3319754Y3286734D01*
X3309340Y3297148D01*
X3293846Y3302228D01*
X3215868Y3302228D01*
X3236696Y3336518D02*
G01*
X3231362Y3346932D01*
X3215868Y3362680D01*
X3324834Y3362680D01*
X3215868Y3427958D02*
G01*
X3220948Y3412464D01*
X3236696Y3402050D01*
X3262604Y3396970D01*
X3278098Y3396970D01*
X3304260Y3402050D01*
X3319754Y3412464D01*
X3324834Y3427958D01*
X3324834Y3438372D01*
X3319754Y3454120D01*
X3304260Y3464534D01*
X3278098Y3469614D01*
X3262604Y3469614D01*
X3236696Y3464534D01*
X3220948Y3454120D01*
X3215868Y3438372D01*
X3215868Y3427958D01*
X2466568Y3204184D02*
G01*
X2544546Y3204184D01*
X2560040Y3209264D01*
X2570454Y3219678D01*
X2575534Y3235426D01*
X2575534Y3245840D01*
X2570454Y3261334D01*
X2560040Y3271748D01*
X2544546Y3276828D01*
X2466568Y3276828D01*
X2487396Y3311118D02*
G01*
X2482062Y3321532D01*
X2466568Y3337280D01*
X2575534Y3337280D01*
X2487396Y3371570D02*
G01*
X2482062Y3381984D01*
X2466568Y3397478D01*
X2575534Y3397478D01*
X1679168Y3216884D02*
G01*
X1757146Y3216884D01*
X1772640Y3221964D01*
X1783054Y3232378D01*
X1788134Y3248126D01*
X1788134Y3258540D01*
X1783054Y3274034D01*
X1772640Y3284448D01*
X1757146Y3289528D01*
X1679168Y3289528D01*
X1699996Y3323818D02*
G01*
X1694662Y3334232D01*
X1679168Y3349980D01*
X1788134Y3349980D01*
X1705076Y3389350D02*
G01*
X1699996Y3389350D01*
X1689582Y3394684D01*
X1684248Y3399764D01*
X1679168Y3410178D01*
X1679168Y3431006D01*
X1684248Y3441420D01*
X1689582Y3446500D01*
X1699996Y3451834D01*
X1710410Y3451834D01*
X1720824Y3446500D01*
X1736318Y3436086D01*
X1788134Y3384270D01*
X1788134Y3456914D01*
X2912084Y2105431D02*
G01*
X2912084Y2027453D01*
X2917164Y2011959D01*
X2927578Y2001545D01*
X2943326Y1996465D01*
X2953740Y1996465D01*
X2969234Y2001545D01*
X2979648Y2011959D01*
X2984728Y2027453D01*
X2984728Y2105431D01*
X3019018Y2084603D02*
G01*
X3029432Y2089937D01*
X3045180Y2105431D01*
X3045180Y1996465D01*
X3089884Y2105431D02*
G01*
X3147034Y2105431D01*
X3115792Y2063775D01*
X3131286Y2063775D01*
X3141700Y2058695D01*
X3147034Y2053615D01*
X3152114Y2037867D01*
X3152114Y2027453D01*
X3147034Y2011959D01*
X3136620Y2001545D01*
X3120872Y1996465D01*
X3105378Y1996465D01*
X3089884Y2001545D01*
X3084550Y2006625D01*
X3079470Y2017039D01*
X2845815Y5664200D02*
G01*
X2767838Y5664200D01*
X2752343Y5659120D01*
X2741929Y5648705D01*
X2736850Y5632957D01*
X2736850Y5622544D01*
X2741929Y5607050D01*
X2752343Y5596636D01*
X2767838Y5591555D01*
X2845815Y5591555D01*
X2824988Y5557265D02*
G01*
X2830322Y5546852D01*
X2845815Y5531104D01*
X2736850Y5531104D01*
X2845815Y5444997D02*
G01*
X2773172Y5496813D01*
X2773172Y5419089D01*
X2845815Y5444997D02*
G01*
X2736850Y5444997D01*
X2515870Y5276850D02*
G01*
X2515870Y5198871D01*
X2520950Y5183378D01*
X2531363Y5172963D01*
X2547111Y5167884D01*
X2557525Y5167884D01*
X2573020Y5172963D01*
X2583434Y5183378D01*
X2588513Y5198871D01*
X2588513Y5276850D01*
X2622804Y5256021D02*
G01*
X2633218Y5261355D01*
X2648965Y5276850D01*
X2648965Y5167884D01*
X2745486Y5276850D02*
G01*
X2693670Y5276850D01*
X2688336Y5230113D01*
X2693670Y5235194D01*
X2709163Y5240528D01*
X2724658Y5240528D01*
X2740406Y5235194D01*
X2750820Y5225034D01*
X2755900Y5209286D01*
X2755900Y5198871D01*
X2750820Y5183378D01*
X2740406Y5172963D01*
X2724658Y5167884D01*
X2709163Y5167884D01*
X2693670Y5172963D01*
X2688336Y5178044D01*
X2683256Y5188457D01*
G36*
X5404561Y4861102D02*
G01*
X5404561Y4590948D01*
X5455361Y4590948D01*
X5455361Y4861102D01*
G37*
G36*
X5682538Y4451451D02*
G01*
X5682538Y4181297D01*
X5733338Y4181297D01*
X5733338Y4451451D01*
G37*
X7213419Y4630460D02*
G01*
X7064921Y4630460D01*
X7064921Y4411939D02*
G01*
X7213419Y4411939D01*
X7228659Y4427179D02*
G01*
X7228659Y4615220D01*
X6731180Y4630460D02*
G01*
X6879678Y4630460D01*
X6879678Y4411939D02*
G01*
X6731180Y4411939D01*
X6715940Y4427179D02*
G01*
X6715940Y4615220D01*
X7213419Y4947960D02*
G01*
X7064921Y4947960D01*
X7064921Y4729439D02*
G01*
X7213419Y4729439D01*
X7228659Y4744679D02*
G01*
X7228659Y4932720D01*
X6731180Y4947960D02*
G01*
X6879678Y4947960D01*
X6879678Y4729439D02*
G01*
X6731180Y4729439D01*
X6715940Y4744679D02*
G01*
X6715940Y4932720D01*
X8135660Y4661080D02*
G01*
X8135660Y4809578D01*
X7917139Y4809578D02*
G01*
X7917139Y4661080D01*
X7932379Y4645840D02*
G01*
X8120420Y4645840D01*
X8135660Y5143319D02*
G01*
X8135660Y4994821D01*
X7917139Y4994821D02*
G01*
X7917139Y5143319D01*
X7932379Y5158559D02*
G01*
X8120420Y5158559D01*
X8135660Y5283380D02*
G01*
X8135660Y5431878D01*
X7917139Y5431878D02*
G01*
X7917139Y5283380D01*
X7932379Y5268140D02*
G01*
X8120420Y5268140D01*
X8135660Y5765619D02*
G01*
X8135660Y5617121D01*
X7917139Y5617121D02*
G01*
X7917139Y5765619D01*
X7932379Y5780859D02*
G01*
X8120420Y5780859D01*
X8343719Y7322860D02*
G01*
X8195221Y7322860D01*
X8195221Y7104339D02*
G01*
X8343719Y7104339D01*
X8358959Y7119579D02*
G01*
X8358959Y7307620D01*
X7861480Y7322860D02*
G01*
X8009978Y7322860D01*
X8009978Y7104339D02*
G01*
X7861480Y7104339D01*
X7846240Y7119579D02*
G01*
X7846240Y7307620D01*
X7162980Y7104339D02*
G01*
X7311478Y7104339D01*
X7311478Y7322860D02*
G01*
X7162980Y7322860D01*
X7147740Y7307620D02*
G01*
X7147740Y7119579D01*
X7645219Y7104339D02*
G01*
X7496721Y7104339D01*
X7496721Y7322860D02*
G01*
X7645219Y7322860D01*
X7660459Y7307620D02*
G01*
X7660459Y7119579D01*
X8077380Y4259539D02*
G01*
X8225878Y4259539D01*
X8225878Y4478060D02*
G01*
X8077380Y4478060D01*
X8062140Y4462820D02*
G01*
X8062140Y4274779D01*
X8559619Y4259539D02*
G01*
X8411121Y4259539D01*
X8411121Y4478060D02*
G01*
X8559619Y4478060D01*
X8574859Y4462820D02*
G01*
X8574859Y4274779D01*
X8699319Y3296960D02*
G01*
X8550821Y3296960D01*
X8550821Y3078439D02*
G01*
X8699319Y3078439D01*
X8714559Y3093679D02*
G01*
X8714559Y3281720D01*
X8217080Y3296960D02*
G01*
X8365578Y3296960D01*
X8365578Y3078439D02*
G01*
X8217080Y3078439D01*
X8201840Y3093679D02*
G01*
X8201840Y3281720D01*
X8953319Y2992160D02*
G01*
X8804821Y2992160D01*
X8804821Y2773639D02*
G01*
X8953319Y2773639D01*
X8968559Y2788879D02*
G01*
X8968559Y2976920D01*
X8471080Y2992160D02*
G01*
X8619578Y2992160D01*
X8619578Y2773639D02*
G01*
X8471080Y2773639D01*
X8455840Y2788879D02*
G01*
X8455840Y2976920D01*
X8679139Y2247719D02*
G01*
X8679139Y2099221D01*
X8897660Y2099221D02*
G01*
X8897660Y2247719D01*
X8882420Y2262959D02*
G01*
X8694379Y2262959D01*
X8679139Y1765480D02*
G01*
X8679139Y1913978D01*
X8897660Y1913978D02*
G01*
X8897660Y1765480D01*
X8882420Y1750240D02*
G01*
X8694379Y1750240D01*
X3670119Y1404660D02*
G01*
X3521621Y1404660D01*
X3521621Y1186139D02*
G01*
X3670119Y1186139D01*
X3685359Y1201379D02*
G01*
X3685359Y1389420D01*
X3187880Y1404660D02*
G01*
X3336378Y1404660D01*
X3336378Y1186139D02*
G01*
X3187880Y1186139D01*
X3172640Y1201379D02*
G01*
X3172640Y1389420D01*
X2227539Y3568519D02*
G01*
X2227539Y3420021D01*
X2446060Y3420021D02*
G01*
X2446060Y3568519D01*
X2430820Y3583759D02*
G01*
X2242779Y3583759D01*
X2227539Y3086280D02*
G01*
X2227539Y3234778D01*
X2446060Y3234778D02*
G01*
X2446060Y3086280D01*
X2430820Y3071040D02*
G01*
X2242779Y3071040D01*
X3220760Y3124380D02*
G01*
X3220760Y3272878D01*
X3002239Y3272878D02*
G01*
X3002239Y3124380D01*
X3017479Y3109140D02*
G01*
X3205520Y3109140D01*
X3220760Y3606619D02*
G01*
X3220760Y3458121D01*
X3002239Y3458121D02*
G01*
X3002239Y3606619D01*
X3017479Y3621859D02*
G01*
X3205520Y3621859D01*
X3970060Y3137080D02*
G01*
X3970060Y3285578D01*
X3751539Y3285578D02*
G01*
X3751539Y3137080D01*
X3766779Y3121840D02*
G01*
X3954820Y3121840D01*
X3970060Y3619319D02*
G01*
X3970060Y3470821D01*
X3751539Y3470821D02*
G01*
X3751539Y3619319D01*
X3766779Y3634559D02*
G01*
X3954820Y3634559D01*
X2133419Y4528860D02*
G01*
X1984921Y4528860D01*
X1984921Y4310339D02*
G01*
X2133419Y4310339D01*
X2148659Y4325579D02*
G01*
X2148659Y4513620D01*
X1651180Y4528860D02*
G01*
X1799678Y4528860D01*
X1799678Y4310339D02*
G01*
X1651180Y4310339D01*
X1635940Y4325579D02*
G01*
X1635940Y4513620D01*
X1727019Y5722660D02*
G01*
X1578521Y5722660D01*
X1578521Y5504139D02*
G01*
X1727019Y5504139D01*
X1742259Y5519379D02*
G01*
X1742259Y5707420D01*
X1244780Y5722660D02*
G01*
X1393278Y5722660D01*
X1393278Y5504139D02*
G01*
X1244780Y5504139D01*
X1229540Y5519379D02*
G01*
X1229540Y5707420D01*
X1727019Y5417860D02*
G01*
X1578521Y5417860D01*
X1578521Y5199339D02*
G01*
X1727019Y5199339D01*
X1742259Y5214579D02*
G01*
X1742259Y5402620D01*
X1244780Y5417860D02*
G01*
X1393278Y5417860D01*
X1393278Y5199339D02*
G01*
X1244780Y5199339D01*
X1229540Y5214579D02*
G01*
X1229540Y5402620D01*
X2133419Y4185960D02*
G01*
X1984921Y4185960D01*
X1984921Y3967439D02*
G01*
X2133419Y3967439D01*
X2148659Y3982679D02*
G01*
X2148659Y4170720D01*
X1651180Y4185960D02*
G01*
X1799678Y4185960D01*
X1799678Y3967439D02*
G01*
X1651180Y3967439D01*
X1635940Y3982679D02*
G01*
X1635940Y4170720D01*
X5404535Y4588403D02*
G01*
X5703890Y4588403D01*
X5404535Y4863642D02*
G01*
X5404535Y4588403D01*
X5404535Y4863642D02*
G01*
X5703890Y4863642D01*
X5733364Y4453996D02*
G01*
X5434009Y4453996D01*
X5733364Y4178757D02*
G01*
X5733364Y4453996D01*
X5733364Y4178757D02*
G01*
X5434009Y4178757D01*
D12*
X1496999Y7554099D02*
G01*
X1496999Y7254100D01*
X1397000Y7421879D02*
G01*
X1437639Y7363460D01*
X1437639Y7363460D02*
G01*
X1356360Y7363460D01*
X1356360Y7363460D02*
G01*
X1397000Y7421879D01*
X1297000Y7254100D02*
G01*
X1297000Y7554099D01*
X1447800Y7444739D02*
G01*
X1346200Y7444739D01*
X5463400Y1014399D02*
G01*
X5763399Y1014399D01*
X5595620Y914400D02*
G01*
X5654040Y955039D01*
X5654040Y955039D02*
G01*
X5654040Y873760D01*
X5654040Y873760D02*
G01*
X5595620Y914400D01*
X5763399Y814400D02*
G01*
X5463400Y814400D01*
X5572759Y965200D02*
G01*
X5572759Y863600D01*
X1297000Y7787500D02*
G01*
X1297000Y8087499D01*
X1397000Y7919720D02*
G01*
X1356360Y7978139D01*
X1356360Y7978139D02*
G01*
X1437639Y7978139D01*
X1437639Y7978139D02*
G01*
X1397000Y7919720D01*
X1496999Y8087499D02*
G01*
X1496999Y7787500D01*
X1346200Y7896860D02*
G01*
X1447800Y7896860D01*
X9162592Y4935601D02*
G01*
X9162592Y5935598D01*
X8548166Y4935067D02*
G01*
X8530800Y4895595D01*
X8630800Y4895595D01*
X8611108Y4935067D01*
X8480800Y4935601D02*
G01*
X8480800Y5935598D01*
X8480800Y4935601D02*
G01*
X9240799Y4935601D01*
X8480800Y5935598D02*
G01*
X9240799Y5935598D01*
X9240799Y4935601D02*
G01*
X9240799Y5935598D01*
X8700719Y4935601D02*
G01*
X8700719Y5935598D01*
X9175292Y6078601D02*
G01*
X9175292Y7078598D01*
X8560866Y6078067D02*
G01*
X8543500Y6038595D01*
X8643500Y6038595D01*
X8623808Y6078067D01*
X8493500Y6078601D02*
G01*
X8493500Y7078598D01*
X8493500Y6078601D02*
G01*
X9253499Y6078601D01*
X8493500Y7078598D02*
G01*
X9253499Y7078598D01*
X9253499Y6078601D02*
G01*
X9253499Y7078598D01*
X8713419Y6078601D02*
G01*
X8713419Y7078598D01*
X9149892Y7335901D02*
G01*
X9149892Y8335898D01*
X8535466Y7335367D02*
G01*
X8518100Y7295895D01*
X8618100Y7295895D01*
X8598408Y7335367D01*
X8468100Y7335901D02*
G01*
X8468100Y8335898D01*
X8468100Y7335901D02*
G01*
X9228099Y7335901D01*
X8468100Y8335898D02*
G01*
X9228099Y8335898D01*
X9228099Y7335901D02*
G01*
X9228099Y8335898D01*
X8688019Y7335901D02*
G01*
X8688019Y8335898D01*
X4706493Y6593712D02*
G01*
X4310506Y6593712D01*
X2468600Y7342845D02*
G01*
X2468600Y7152853D01*
X2558597Y7152853D01*
X2558597Y7342845D01*
X2760601Y7412850D02*
G01*
X2760601Y7342845D01*
X1760601Y7342845D01*
X1760601Y7412850D01*
X1960600Y7342845D02*
G01*
X1960600Y7152853D01*
X2050597Y7152853D01*
X2050597Y7342845D01*
X4793099Y8140700D02*
G01*
X4793099Y7124700D01*
X4432300Y8140700D02*
G01*
X4432300Y7124700D01*
X4876800Y7124700D01*
X4876800Y8140700D01*
X4432300Y8140700D01*
D13*
X6938081Y1705599D02*
G01*
X6854118Y1705599D01*
X6949114Y1545600D02*
G01*
X7041100Y1545600D01*
X7041100Y1705599D01*
X6751101Y1705599D02*
G01*
X6751101Y1545600D01*
X6843085Y1545600D01*
X6938081Y2594599D02*
G01*
X6854118Y2594599D01*
X6949114Y2434600D02*
G01*
X7041100Y2434600D01*
X7041100Y2594599D01*
X6751101Y2594599D02*
G01*
X6751101Y2434600D01*
X6843085Y2434600D01*
X6963481Y3521699D02*
G01*
X6879518Y3521699D01*
X6974514Y3361700D02*
G01*
X7066500Y3361700D01*
X7066500Y3521699D01*
X6776501Y3521699D02*
G01*
X6776501Y3361700D01*
X6868485Y3361700D01*
X6950781Y714999D02*
G01*
X6866818Y714999D01*
X6961814Y555000D02*
G01*
X7053800Y555000D01*
X7053800Y714999D01*
X6763801Y714999D02*
G01*
X6763801Y555000D01*
X6855785Y555000D01*
X6823781Y4016999D02*
G01*
X6739818Y4016999D01*
X6834814Y3857000D02*
G01*
X6926800Y3857000D01*
X6926800Y4016999D01*
X6636801Y4016999D02*
G01*
X6636801Y3857000D01*
X6728785Y3857000D01*
X6938081Y3064499D02*
G01*
X6854118Y3064499D01*
X6949114Y2904500D02*
G01*
X7041100Y2904500D01*
X7041100Y3064499D01*
X6751101Y3064499D02*
G01*
X6751101Y2904500D01*
X6843085Y2904500D01*
X6938081Y2150099D02*
G01*
X6854118Y2150099D01*
X6949114Y1990100D02*
G01*
X7041100Y1990100D01*
X7041100Y2150099D01*
X6751101Y2150099D02*
G01*
X6751101Y1990100D01*
X6843085Y1990100D01*
X6938081Y1210299D02*
G01*
X6854118Y1210299D01*
X6949114Y1050300D02*
G01*
X7041100Y1050300D01*
X7041100Y1210299D01*
X6751101Y1210299D02*
G01*
X6751101Y1050300D01*
X6843085Y1050300D01*
D12*
X8502599Y1413510D02*
G01*
X8502599Y1332001D01*
X8436609Y1332001D01*
X8276590Y1332001D02*
G01*
X8210600Y1332001D01*
X8276590Y1332001D01*
X8210600Y1332001D01*
X8210600Y1413510D01*
D14*
X8386597Y1486992D02*
G01*
X8326602Y1486992D01*
D12*
X9531299Y1426210D02*
G01*
X9531299Y1344701D01*
X9465309Y1344701D01*
X9305290Y1344701D02*
G01*
X9239300Y1344701D01*
X9305290Y1344701D01*
X9239300Y1344701D01*
X9239300Y1426210D01*
D14*
X9415297Y1499692D02*
G01*
X9355302Y1499692D01*
D12*
X4347209Y920800D02*
G01*
X4265701Y920800D01*
X4265701Y986789D01*
X4265701Y1146810D02*
G01*
X4265701Y1212799D01*
X4265701Y1146810D01*
X4265701Y1212799D01*
X4347209Y1212799D01*
D14*
X4420692Y1036802D02*
G01*
X4420692Y1096797D01*
D12*
X2400399Y2101999D02*
G01*
X2486799Y2101999D01*
X2486799Y2101999D02*
G01*
X2486799Y2001997D01*
X2305403Y1962000D02*
G01*
X2368196Y1962000D01*
X2186800Y2101999D02*
G01*
X2273200Y2101999D01*
X2186800Y2101999D02*
G01*
X2186800Y2001997D01*
X2349400Y2724000D02*
G01*
X2263000Y2724000D01*
X2263000Y2724000D02*
G01*
X2263000Y2824002D01*
X2444396Y2863999D02*
G01*
X2381603Y2863999D01*
X2562999Y2724000D02*
G01*
X2476599Y2724000D01*
X2562999Y2724000D02*
G01*
X2562999Y2824002D01*
X2971700Y2724000D02*
G01*
X2885300Y2724000D01*
X2885300Y2724000D02*
G01*
X2885300Y2824002D01*
X3066696Y2863999D02*
G01*
X3003903Y2863999D01*
X3185299Y2724000D02*
G01*
X3098899Y2724000D01*
X3185299Y2724000D02*
G01*
X3185299Y2824002D01*
X3479700Y2736700D02*
G01*
X3393300Y2736700D01*
X3393300Y2736700D02*
G01*
X3393300Y2836702D01*
X3574696Y2876699D02*
G01*
X3511903Y2876699D01*
X3693299Y2736700D02*
G01*
X3606899Y2736700D01*
X3693299Y2736700D02*
G01*
X3693299Y2836702D01*
X4330600Y4019400D02*
G01*
X4244200Y4019400D01*
X4244200Y4019400D02*
G01*
X4244200Y4119402D01*
X4425596Y4159399D02*
G01*
X4362803Y4159399D01*
X4544199Y4019400D02*
G01*
X4457799Y4019400D01*
X4544199Y4019400D02*
G01*
X4544199Y4119402D01*
X4330600Y3638400D02*
G01*
X4244200Y3638400D01*
X4244200Y3638400D02*
G01*
X4244200Y3738402D01*
X4425596Y3778399D02*
G01*
X4362803Y3778399D01*
X4544199Y3638400D02*
G01*
X4457799Y3638400D01*
X4544199Y3638400D02*
G01*
X4544199Y3738402D01*
X4330600Y3193900D02*
G01*
X4244200Y3193900D01*
X4244200Y3193900D02*
G01*
X4244200Y3293902D01*
X4425596Y3333899D02*
G01*
X4362803Y3333899D01*
X4544199Y3193900D02*
G01*
X4457799Y3193900D01*
X4544199Y3193900D02*
G01*
X4544199Y3293902D01*
X4317900Y2762100D02*
G01*
X4231500Y2762100D01*
X4231500Y2762100D02*
G01*
X4231500Y2862102D01*
X4412896Y2902099D02*
G01*
X4350103Y2902099D01*
X4531499Y2762100D02*
G01*
X4445099Y2762100D01*
X4531499Y2762100D02*
G01*
X4531499Y2862102D01*
X4317900Y2343000D02*
G01*
X4231500Y2343000D01*
X4231500Y2343000D02*
G01*
X4231500Y2443002D01*
X4412896Y2482999D02*
G01*
X4350103Y2482999D01*
X4531499Y2343000D02*
G01*
X4445099Y2343000D01*
X4531499Y2343000D02*
G01*
X4531499Y2443002D01*
X4787800Y3981300D02*
G01*
X4701400Y3981300D01*
X4701400Y3981300D02*
G01*
X4701400Y4081302D01*
X4882796Y4121299D02*
G01*
X4820003Y4121299D01*
X5001399Y3981300D02*
G01*
X4914999Y3981300D01*
X5001399Y3981300D02*
G01*
X5001399Y4081302D01*
X4787800Y3574900D02*
G01*
X4701400Y3574900D01*
X4701400Y3574900D02*
G01*
X4701400Y3674902D01*
X4882796Y3714899D02*
G01*
X4820003Y3714899D01*
X5001399Y3574900D02*
G01*
X4914999Y3574900D01*
X5001399Y3574900D02*
G01*
X5001399Y3674902D01*
X4787800Y3193900D02*
G01*
X4701400Y3193900D01*
X4701400Y3193900D02*
G01*
X4701400Y3293902D01*
X4882796Y3333899D02*
G01*
X4820003Y3333899D01*
X5001399Y3193900D02*
G01*
X4914999Y3193900D01*
X5001399Y3193900D02*
G01*
X5001399Y3293902D01*
X4800500Y2800200D02*
G01*
X4714100Y2800200D01*
X4714100Y2800200D02*
G01*
X4714100Y2900202D01*
X4895496Y2940199D02*
G01*
X4832703Y2940199D01*
X5014099Y2800200D02*
G01*
X4927699Y2800200D01*
X5014099Y2800200D02*
G01*
X5014099Y2900202D01*
X4800500Y2406500D02*
G01*
X4714100Y2406500D01*
X4714100Y2406500D02*
G01*
X4714100Y2506502D01*
X4895496Y2546499D02*
G01*
X4832703Y2546499D01*
X5014099Y2406500D02*
G01*
X4927699Y2406500D01*
X5014099Y2406500D02*
G01*
X5014099Y2506502D01*
D11*
X6399519Y4573838D02*
G01*
X6543012Y4573838D01*
X6543012Y4900361D01*
X6399519Y4900361D01*
X6224280Y4573838D02*
G01*
X6080787Y4573838D01*
X6080787Y4900361D01*
X6224280Y4900361D01*
X5726419Y5805738D02*
G01*
X5869912Y5805738D01*
X5869912Y6132261D01*
X5726419Y6132261D01*
X5551180Y5805738D02*
G01*
X5407687Y5805738D01*
X5407687Y6132261D01*
X5551180Y6132261D01*
X6386819Y5158038D02*
G01*
X6530312Y5158038D01*
X6530312Y5484561D01*
X6386819Y5484561D01*
X6211580Y5158038D02*
G01*
X6068087Y5158038D01*
X6068087Y5484561D01*
X6211580Y5484561D01*
X5320019Y6415338D02*
G01*
X5463512Y6415338D01*
X5463512Y6741861D01*
X5320019Y6741861D01*
X5144780Y6415338D02*
G01*
X5001287Y6415338D01*
X5001287Y6741861D01*
X5144780Y6741861D01*
X5751819Y5145338D02*
G01*
X5895312Y5145338D01*
X5895312Y5471861D01*
X5751819Y5471861D01*
X5576580Y5145338D02*
G01*
X5433087Y5145338D01*
X5433087Y5471861D01*
X5576580Y5471861D01*
X6361419Y5818438D02*
G01*
X6504912Y5818438D01*
X6504912Y6144961D01*
X6361419Y6144961D01*
X6186180Y5818438D02*
G01*
X6042687Y5818438D01*
X6042687Y6144961D01*
X6186180Y6144961D01*
X7786380Y6271961D02*
G01*
X7642887Y6271961D01*
X7642887Y5945438D01*
X7786380Y5945438D01*
X7961619Y6271961D02*
G01*
X8105112Y6271961D01*
X8105112Y5945438D01*
X7961619Y5945438D01*
X6795780Y6284661D02*
G01*
X6652287Y6284661D01*
X6652287Y5958138D01*
X6795780Y5958138D01*
X6971019Y6284661D02*
G01*
X7114512Y6284661D01*
X7114512Y5958138D01*
X6971019Y5958138D01*
X8761719Y3862638D02*
G01*
X8905212Y3862638D01*
X8905212Y4189161D01*
X8761719Y4189161D01*
X8586480Y3862638D02*
G01*
X8442987Y3862638D01*
X8442987Y4189161D01*
X8586480Y4189161D01*
X8736319Y3380038D02*
G01*
X8879812Y3380038D01*
X8879812Y3706561D01*
X8736319Y3706561D01*
X8561080Y3380038D02*
G01*
X8417587Y3380038D01*
X8417587Y3706561D01*
X8561080Y3706561D01*
X8647419Y2389438D02*
G01*
X8790912Y2389438D01*
X8790912Y2715961D01*
X8647419Y2715961D01*
X8472180Y2389438D02*
G01*
X8328687Y2389438D01*
X8328687Y2715961D01*
X8472180Y2715961D01*
X9345919Y1906838D02*
G01*
X9489412Y1906838D01*
X9489412Y2233361D01*
X9345919Y2233361D01*
X9170680Y1906838D02*
G01*
X9027187Y1906838D01*
X9027187Y2233361D01*
X9170680Y2233361D01*
X7504419Y3735638D02*
G01*
X7647912Y3735638D01*
X7647912Y4062161D01*
X7504419Y4062161D01*
X7329180Y3735638D02*
G01*
X7185687Y3735638D01*
X7185687Y4062161D01*
X7329180Y4062161D01*
X7618719Y2783138D02*
G01*
X7762212Y2783138D01*
X7762212Y3109661D01*
X7618719Y3109661D01*
X7443480Y2783138D02*
G01*
X7299987Y2783138D01*
X7299987Y3109661D01*
X7443480Y3109661D01*
X7593319Y1792538D02*
G01*
X7736812Y1792538D01*
X7736812Y2119061D01*
X7593319Y2119061D01*
X7418080Y1792538D02*
G01*
X7274587Y1792538D01*
X7274587Y2119061D01*
X7418080Y2119061D01*
X7593319Y674938D02*
G01*
X7736812Y674938D01*
X7736812Y1001461D01*
X7593319Y1001461D01*
X7418080Y674938D02*
G01*
X7274587Y674938D01*
X7274587Y1001461D01*
X7418080Y1001461D01*
X7593319Y1246438D02*
G01*
X7736812Y1246438D01*
X7736812Y1572961D01*
X7593319Y1572961D01*
X7418080Y1246438D02*
G01*
X7274587Y1246438D01*
X7274587Y1572961D01*
X7418080Y1572961D01*
X7593319Y2287838D02*
G01*
X7736812Y2287838D01*
X7736812Y2614361D01*
X7593319Y2614361D01*
X7418080Y2287838D02*
G01*
X7274587Y2287838D01*
X7274587Y2614361D01*
X7418080Y2614361D01*
X7618719Y3227638D02*
G01*
X7762212Y3227638D01*
X7762212Y3554161D01*
X7618719Y3554161D01*
X7443480Y3227638D02*
G01*
X7299987Y3227638D01*
X7299987Y3554161D01*
X7443480Y3554161D01*
X7669519Y4269038D02*
G01*
X7813012Y4269038D01*
X7813012Y4595561D01*
X7669519Y4595561D01*
X7494280Y4269038D02*
G01*
X7350787Y4269038D01*
X7350787Y4595561D01*
X7494280Y4595561D01*
X5903661Y3745219D02*
G01*
X5903661Y3888712D01*
X5577138Y3888712D01*
X5577138Y3745219D01*
X5903661Y3569980D02*
G01*
X5903661Y3426487D01*
X5577138Y3426487D01*
X5577138Y3569980D01*
X6475161Y3262619D02*
G01*
X6475161Y3406112D01*
X6148638Y3406112D01*
X6148638Y3262619D01*
X6475161Y3087380D02*
G01*
X6475161Y2943887D01*
X6148638Y2943887D01*
X6148638Y3087380D01*
X5878261Y2983219D02*
G01*
X5878261Y3126712D01*
X5551738Y3126712D01*
X5551738Y2983219D01*
X5878261Y2807980D02*
G01*
X5878261Y2664487D01*
X5551738Y2664487D01*
X5551738Y2807980D01*
X6462461Y2564119D02*
G01*
X6462461Y2707612D01*
X6135938Y2707612D01*
X6135938Y2564119D01*
X6462461Y2388880D02*
G01*
X6462461Y2245387D01*
X6135938Y2245387D01*
X6135938Y2388880D01*
X5852861Y2272019D02*
G01*
X5852861Y2415512D01*
X5526338Y2415512D01*
X5526338Y2272019D01*
X5852861Y2096780D02*
G01*
X5852861Y1953287D01*
X5526338Y1953287D01*
X5526338Y2096780D01*
X6449761Y1827519D02*
G01*
X6449761Y1971012D01*
X6123238Y1971012D01*
X6123238Y1827519D01*
X6449761Y1652280D02*
G01*
X6449761Y1508787D01*
X6123238Y1508787D01*
X6123238Y1652280D01*
X5852861Y1522719D02*
G01*
X5852861Y1666212D01*
X5526338Y1666212D01*
X5526338Y1522719D01*
X5852861Y1347480D02*
G01*
X5852861Y1203987D01*
X5526338Y1203987D01*
X5526338Y1347480D01*
X6424361Y1090919D02*
G01*
X6424361Y1234412D01*
X6097838Y1234412D01*
X6097838Y1090919D01*
X6424361Y915680D02*
G01*
X6424361Y772187D01*
X6097838Y772187D01*
X6097838Y915680D01*
X8291819Y687638D02*
G01*
X8435312Y687638D01*
X8435312Y1014161D01*
X8291819Y1014161D01*
X8116580Y687638D02*
G01*
X7973087Y687638D01*
X7973087Y1014161D01*
X8116580Y1014161D01*
X8977061Y1497319D02*
G01*
X8977061Y1640812D01*
X8650538Y1640812D01*
X8650538Y1497319D01*
X8977061Y1322080D02*
G01*
X8977061Y1178587D01*
X8650538Y1178587D01*
X8650538Y1322080D01*
X9082338Y788680D02*
G01*
X9082338Y645187D01*
X9408861Y645187D01*
X9408861Y788680D01*
X9082338Y963919D02*
G01*
X9082338Y1107412D01*
X9408861Y1107412D01*
X9408861Y963919D01*
X8977061Y951219D02*
G01*
X8977061Y1094712D01*
X8650538Y1094712D01*
X8650538Y951219D01*
X8977061Y775980D02*
G01*
X8977061Y632487D01*
X8650538Y632487D01*
X8650538Y775980D01*
X3808719Y3684838D02*
G01*
X3952212Y3684838D01*
X3952212Y4011361D01*
X3808719Y4011361D01*
X3633480Y3684838D02*
G01*
X3489987Y3684838D01*
X3489987Y4011361D01*
X3633480Y4011361D01*
X3186419Y3672138D02*
G01*
X3329912Y3672138D01*
X3329912Y3998661D01*
X3186419Y3998661D01*
X3011180Y3672138D02*
G01*
X2867687Y3672138D01*
X2867687Y3998661D01*
X3011180Y3998661D01*
X2576819Y3684838D02*
G01*
X2720312Y3684838D01*
X2720312Y4011361D01*
X2576819Y4011361D01*
X2401580Y3684838D02*
G01*
X2258087Y3684838D01*
X2258087Y4011361D01*
X2401580Y4011361D01*
X3516619Y1640138D02*
G01*
X3660112Y1640138D01*
X3660112Y1966661D01*
X3516619Y1966661D01*
X3341380Y1640138D02*
G01*
X3197887Y1640138D01*
X3197887Y1966661D01*
X3341380Y1966661D01*
X3770619Y2237038D02*
G01*
X3914112Y2237038D01*
X3914112Y2563561D01*
X3770619Y2563561D01*
X3595380Y2237038D02*
G01*
X3451887Y2237038D01*
X3451887Y2563561D01*
X3595380Y2563561D01*
X3224519Y2237038D02*
G01*
X3368012Y2237038D01*
X3368012Y2563561D01*
X3224519Y2563561D01*
X3049280Y2237038D02*
G01*
X2905787Y2237038D01*
X2905787Y2563561D01*
X3049280Y2563561D01*
X2627619Y2237038D02*
G01*
X2771112Y2237038D01*
X2771112Y2563561D01*
X2627619Y2563561D01*
X2452380Y2237038D02*
G01*
X2308887Y2237038D01*
X2308887Y2563561D01*
X2452380Y2563561D01*
X2119061Y2475219D02*
G01*
X2119061Y2618712D01*
X1792538Y2618712D01*
X1792538Y2475219D01*
X2119061Y2299980D02*
G01*
X2119061Y2156487D01*
X1792538Y2156487D01*
X1792538Y2299980D01*
X5141661Y1141719D02*
G01*
X5141661Y1285212D01*
X4815138Y1285212D01*
X4815138Y1141719D01*
X5141661Y966480D02*
G01*
X5141661Y822987D01*
X4815138Y822987D01*
X4815138Y966480D01*
X4964419Y1411538D02*
G01*
X5107912Y1411538D01*
X5107912Y1738061D01*
X4964419Y1738061D01*
X4789180Y1411538D02*
G01*
X4645687Y1411538D01*
X4645687Y1738061D01*
X4789180Y1738061D01*
X4100819Y1386138D02*
G01*
X4244312Y1386138D01*
X4244312Y1712661D01*
X4100819Y1712661D01*
X3925580Y1386138D02*
G01*
X3782087Y1386138D01*
X3782087Y1712661D01*
X3925580Y1712661D01*
X4088119Y1817938D02*
G01*
X4231612Y1817938D01*
X4231612Y2144461D01*
X4088119Y2144461D01*
X3912880Y1817938D02*
G01*
X3769387Y1817938D01*
X3769387Y2144461D01*
X3912880Y2144461D01*
X2554538Y4801880D02*
G01*
X2554538Y4658387D01*
X2881061Y4658387D01*
X2881061Y4801880D01*
X2554538Y4977119D02*
G01*
X2554538Y5120612D01*
X2881061Y5120612D01*
X2881061Y4977119D01*
X2500061Y4977119D02*
G01*
X2500061Y5120612D01*
X2173538Y5120612D01*
X2173538Y4977119D01*
X2500061Y4801880D02*
G01*
X2500061Y4658387D01*
X2173538Y4658387D01*
X2173538Y4801880D01*
X1725919Y5932738D02*
G01*
X1869412Y5932738D01*
X1869412Y6259261D01*
X1725919Y6259261D01*
X1550680Y5932738D02*
G01*
X1407187Y5932738D01*
X1407187Y6259261D01*
X1550680Y6259261D01*
X1129019Y5920038D02*
G01*
X1272512Y5920038D01*
X1272512Y6246561D01*
X1129019Y6246561D01*
X953780Y5920038D02*
G01*
X810287Y5920038D01*
X810287Y6246561D01*
X953780Y6246561D01*
X1370319Y4307138D02*
G01*
X1513812Y4307138D01*
X1513812Y4633661D01*
X1370319Y4633661D01*
X1195080Y4307138D02*
G01*
X1051587Y4307138D01*
X1051587Y4633661D01*
X1195080Y4633661D01*
X1383019Y4777038D02*
G01*
X1526512Y4777038D01*
X1526512Y5103561D01*
X1383019Y5103561D01*
X1207780Y4777038D02*
G01*
X1064287Y4777038D01*
X1064287Y5103561D01*
X1207780Y5103561D01*
X1383019Y3875338D02*
G01*
X1526512Y3875338D01*
X1526512Y4201861D01*
X1383019Y4201861D01*
X1207780Y3875338D02*
G01*
X1064287Y3875338D01*
X1064287Y4201861D01*
X1207780Y4201861D01*
X1776161Y6856719D02*
G01*
X1776161Y7000212D01*
X1449638Y7000212D01*
X1449638Y6856719D01*
X1776161Y6681480D02*
G01*
X1776161Y6537987D01*
X1449638Y6537987D01*
X1449638Y6681480D01*
D12*
X3200387Y7391400D02*
G01*
X3784587Y7391400D01*
X3200387Y8001000D02*
G01*
X3784587Y8001000D01*
X3192475Y7823088D02*
G01*
X3192475Y7838076D01*
X3792476Y7823088D02*
G01*
X3792476Y7569311D01*
X3192475Y7823088D02*
G01*
X3192475Y7569311D01*
X6966087Y8135495D02*
G01*
X6041087Y8135495D01*
X6711088Y7217486D02*
G01*
X6966087Y7217486D01*
X6276088Y7771808D02*
G01*
X6276088Y7217486D01*
X6711088Y7771808D02*
G01*
X6711088Y7217486D01*
X6711088Y7217486D02*
G01*
X6126665Y7217486D01*
X6711088Y7051809D02*
G01*
X6703484Y7051809D01*
X6836084Y7051809D02*
G01*
X6711088Y7051809D01*
X6711088Y7771808D02*
G01*
X6711088Y7806806D01*
X6276088Y7806806D01*
X6276088Y7771808D01*
X6041087Y7119465D02*
G01*
X6041087Y7051809D01*
X6283764Y7051809D01*
X6836084Y7051809D02*
G01*
X6966087Y7051809D01*
X6966087Y8476808D01*
X6041087Y8476808D01*
X6041087Y7534079D01*
X4876800Y4457715D02*
G01*
X4876800Y4541194D01*
X4614712Y4457715D02*
G01*
X4876800Y4457715D01*
X4876800Y6328422D02*
G01*
X4876800Y6379314D01*
X3075099Y4541199D02*
G01*
X3075099Y4457715D01*
X3335487Y4457715D01*
X3075099Y6379314D02*
G01*
X3075099Y6328422D01*
X4875100Y6379314D02*
G01*
X3075099Y6379314D01*
D11*
X7190760Y5077579D02*
G01*
X7190760Y5742820D01*
X7465039Y5742820D01*
X7465039Y5077579D01*
X7190760Y5077579D01*
X7246962Y6322181D02*
G01*
X7246962Y6987418D01*
X7541247Y6987418D01*
X7541247Y6322181D01*
X7246962Y6322181D01*
X5837262Y6296781D02*
G01*
X5837262Y6962018D01*
X6131547Y6962018D01*
X6131547Y6296781D01*
X5837262Y6296781D01*
D12*
X8383099Y1927809D02*
G01*
X8203097Y1927809D01*
X8383099Y2237811D02*
G01*
X8203097Y2237811D01*
X8167199Y2613609D02*
G01*
X7987197Y2613609D01*
X8167199Y2923611D02*
G01*
X7987197Y2923611D01*
X8167199Y3388309D02*
G01*
X7987197Y3388309D01*
X8167199Y3698311D02*
G01*
X7987197Y3698311D01*
X8040199Y3870909D02*
G01*
X7860197Y3870909D01*
X8040199Y4180911D02*
G01*
X7860197Y4180911D01*
X3362909Y3161200D02*
G01*
X3362909Y3341202D01*
X3672911Y3161200D02*
G01*
X3672911Y3341202D01*
X2613609Y3135800D02*
G01*
X2613609Y3315802D01*
X2923611Y3135800D02*
G01*
X2923611Y3315802D01*
X1826209Y3148500D02*
G01*
X1826209Y3328502D01*
X2136211Y3148500D02*
G01*
X2136211Y3328502D01*
X2843700Y1958390D02*
G01*
X3023702Y1958390D01*
X2843700Y1648388D02*
G01*
X3023702Y1648388D01*
X2384127Y5338000D02*
G01*
X2035784Y5338000D01*
X2278379Y5839460D02*
G01*
X2384127Y5839460D01*
X2049779Y5839460D02*
G01*
X2141220Y5839460D01*
X2035784Y5839460D02*
G01*
X2035784Y5338000D01*
X2384127Y5839460D02*
G01*
X2384127Y5338000D01*
D11*
X2281478Y5285760D02*
G01*
X2185591Y5285760D01*
X2185591Y5153639D01*
X2281478Y5153639D01*
X2366721Y5285760D02*
G01*
X2462608Y5285760D01*
X2462608Y5153639D01*
X2366721Y5153639D01*
D12*
X9613900Y2438400D02*
G01*
X9105900Y2438400D01*
X9105900Y4724400D01*
X9613900Y4724400D01*
X9613900Y2438400D01*
D11*
G75*
G01*
X7213420Y4411939D02*
G03*
X7228660Y4427179I0J15240D01*
G75*
G01*
X7228660Y4615221D02*
G03*
X7213420Y4630461I-15240J0D01*
G75*
G01*
X6731180Y4411939D02*
G02*
X6715940Y4427179I0J15240D01*
G75*
G01*
X6715940Y4615221D02*
G02*
X6731180Y4630461I15240J0D01*
G75*
G01*
X7213420Y4729439D02*
G03*
X7228660Y4744679I0J15240D01*
G75*
G01*
X7228660Y4932721D02*
G03*
X7213420Y4947961I-15240J0D01*
G75*
G01*
X6731180Y4729439D02*
G02*
X6715940Y4744679I0J15240D01*
G75*
G01*
X6715940Y4932721D02*
G02*
X6731180Y4947961I15240J0D01*
G75*
G01*
X7917139Y4661080D02*
G03*
X7932379Y4645840I15240J0D01*
G75*
G01*
X8120421Y4645840D02*
G03*
X8135661Y4661080I0J15240D01*
G75*
G01*
X7917139Y5143320D02*
G02*
X7932379Y5158560I15240J0D01*
G75*
G01*
X8120421Y5158560D02*
G02*
X8135661Y5143320I0J-15240D01*
G75*
G01*
X7917139Y5283380D02*
G03*
X7932379Y5268140I15240J0D01*
G75*
G01*
X8120421Y5268140D02*
G03*
X8135661Y5283380I0J15240D01*
G75*
G01*
X7917139Y5765620D02*
G02*
X7932379Y5780860I15240J0D01*
G75*
G01*
X8120421Y5780860D02*
G02*
X8135661Y5765620I0J-15240D01*
G75*
G01*
X8343720Y7104339D02*
G03*
X8358960Y7119579I0J15240D01*
G75*
G01*
X8358960Y7307621D02*
G03*
X8343720Y7322861I-15240J0D01*
G75*
G01*
X7861480Y7104339D02*
G02*
X7846240Y7119579I0J15240D01*
G75*
G01*
X7846240Y7307621D02*
G02*
X7861480Y7322861I15240J0D01*
G75*
G01*
X7162980Y7322861D02*
G03*
X7147740Y7307621I0J-15240D01*
G75*
G01*
X7147740Y7119579D02*
G03*
X7162980Y7104339I15240J0D01*
G75*
G01*
X7645220Y7322861D02*
G02*
X7660460Y7307621I0J-15240D01*
G75*
G01*
X7660460Y7119579D02*
G02*
X7645220Y7104339I-15240J0D01*
G75*
G01*
X8077380Y4478061D02*
G03*
X8062140Y4462821I0J-15240D01*
G75*
G01*
X8062140Y4274779D02*
G03*
X8077380Y4259539I15240J0D01*
G75*
G01*
X8559620Y4478061D02*
G02*
X8574860Y4462821I0J-15240D01*
G75*
G01*
X8574860Y4274779D02*
G02*
X8559620Y4259539I-15240J0D01*
G75*
G01*
X8699320Y3078439D02*
G03*
X8714560Y3093679I0J15240D01*
G75*
G01*
X8714560Y3281721D02*
G03*
X8699320Y3296961I-15240J0D01*
G75*
G01*
X8217080Y3078439D02*
G02*
X8201840Y3093679I0J15240D01*
G75*
G01*
X8201840Y3281721D02*
G02*
X8217080Y3296961I15240J0D01*
G75*
G01*
X8953320Y2773639D02*
G03*
X8968560Y2788879I0J15240D01*
G75*
G01*
X8968560Y2976921D02*
G03*
X8953320Y2992161I-15240J0D01*
G75*
G01*
X8471080Y2773639D02*
G02*
X8455840Y2788879I0J15240D01*
G75*
G01*
X8455840Y2976921D02*
G02*
X8471080Y2992161I15240J0D01*
G75*
G01*
X8897661Y2247720D02*
G03*
X8882421Y2262960I-15240J0D01*
G75*
G01*
X8694379Y2262960D02*
G03*
X8679139Y2247720I0J-15240D01*
G75*
G01*
X8897661Y1765480D02*
G02*
X8882421Y1750240I-15240J0D01*
G75*
G01*
X8694379Y1750240D02*
G02*
X8679139Y1765480I0J15240D01*
G75*
G01*
X3670120Y1186139D02*
G03*
X3685360Y1201379I0J15240D01*
G75*
G01*
X3685360Y1389421D02*
G03*
X3670120Y1404661I-15240J0D01*
G75*
G01*
X3187880Y1186139D02*
G02*
X3172640Y1201379I0J15240D01*
G75*
G01*
X3172640Y1389421D02*
G02*
X3187880Y1404661I15240J0D01*
G75*
G01*
X2446061Y3568520D02*
G03*
X2430821Y3583760I-15240J0D01*
G75*
G01*
X2242779Y3583760D02*
G03*
X2227539Y3568520I0J-15240D01*
G75*
G01*
X2446061Y3086280D02*
G02*
X2430821Y3071040I-15240J0D01*
G75*
G01*
X2242779Y3071040D02*
G02*
X2227539Y3086280I0J15240D01*
G75*
G01*
X3002239Y3124380D02*
G03*
X3017479Y3109140I15240J0D01*
G75*
G01*
X3205521Y3109140D02*
G03*
X3220761Y3124380I0J15240D01*
G75*
G01*
X3002239Y3606620D02*
G02*
X3017479Y3621860I15240J0D01*
G75*
G01*
X3205521Y3621860D02*
G02*
X3220761Y3606620I0J-15240D01*
G75*
G01*
X3751539Y3137080D02*
G03*
X3766779Y3121840I15240J0D01*
G75*
G01*
X3954821Y3121840D02*
G03*
X3970061Y3137080I0J15240D01*
G75*
G01*
X3751539Y3619320D02*
G02*
X3766779Y3634560I15240J0D01*
G75*
G01*
X3954821Y3634560D02*
G02*
X3970061Y3619320I0J-15240D01*
G75*
G01*
X2133420Y4310339D02*
G03*
X2148660Y4325579I0J15240D01*
G75*
G01*
X2148660Y4513621D02*
G03*
X2133420Y4528861I-15240J0D01*
G75*
G01*
X1651180Y4310339D02*
G02*
X1635940Y4325579I0J15240D01*
G75*
G01*
X1635940Y4513621D02*
G02*
X1651180Y4528861I15240J0D01*
G75*
G01*
X1727020Y5504139D02*
G03*
X1742260Y5519379I0J15240D01*
G75*
G01*
X1742260Y5707421D02*
G03*
X1727020Y5722661I-15240J0D01*
G75*
G01*
X1244780Y5504139D02*
G02*
X1229540Y5519379I0J15240D01*
G75*
G01*
X1229540Y5707421D02*
G02*
X1244780Y5722661I15240J0D01*
G75*
G01*
X1727020Y5199339D02*
G03*
X1742260Y5214579I0J15240D01*
G75*
G01*
X1742260Y5402621D02*
G03*
X1727020Y5417861I-15240J0D01*
G75*
G01*
X1244780Y5199339D02*
G02*
X1229540Y5214579I0J15240D01*
G75*
G01*
X1229540Y5402621D02*
G02*
X1244780Y5417861I15240J0D01*
G75*
G01*
X2133420Y3967439D02*
G03*
X2148660Y3982679I0J15240D01*
G75*
G01*
X2148660Y4170721D02*
G03*
X2133420Y4185961I-15240J0D01*
G75*
G01*
X1651180Y3967439D02*
G02*
X1635940Y3982679I0J15240D01*
G75*
G01*
X1635940Y4170721D02*
G02*
X1651180Y4185961I15240J0D01*
D12*
G75*
G01*
X4722876Y6869684D02*
G03*
X4291353Y6864845I-214376J-125982D01*
D15*
G75*
G01*
X1880616Y7252830D02*
G03*
X1880616Y7252576I-20000J-127D01*
G75*
G01*
X4363720Y7909560D02*
G03*
X4363720Y7909306I-20000J-127D01*
D12*
G75*
G01*
X6772483Y7051810D02*
G03*
X6228842Y7051802I-271820J-4D01*
G75*
G01*
X2278380Y5839460D02*
G02*
X2141220Y5839460I-68580J0D01*
D16*
G75*
G01
X6738087Y1750593D02*
G03X6738087Y1750593I-11989J0D01*
G75*
G01
X6738087Y2639593D02*
G03X6738087Y2639593I-11989J0D01*
G75*
G01
X6763487Y3566693D02*
G03X6763487Y3566693I-11989J0D01*
G75*
G01
X6750787Y759993D02*
G03X6750787Y759993I-11989J0D01*
G75*
G01
X6623787Y4061993D02*
G03X6623787Y4061993I-11989J0D01*
G75*
G01
X6738087Y3109493D02*
G03X6738087Y3109493I-11989J0D01*
G75*
G01
X6738087Y2195093D02*
G03X6738087Y2195093I-11989J0D01*
G75*
G01
X6738087Y1255293D02*
G03X6738087Y1255293I-11989J0D01*
D12*
G75*
G01
X3663366Y7696200D02*
G03X3663366Y7696200I-170866J0D01*
G75*
G01
X3346094Y7899400D02*
G03X3346094Y7899400I-56794J0D01*
G75*
G01
X3352190Y7486904D02*
G03X3352190Y7486904I-56794J0D01*
G75*
G01
X3758590Y7893304D02*
G03X3758590Y7893304I-56794J0D01*
G75*
G01
X3752494Y7493000D02*
G03X3752494Y7493000I-56794J0D01*
G75*
G01
X8166100Y2247900D02*
G03X8166100Y2247900I-12700J0D01*
G75*
G01
X7950200Y2933700D02*
G03X7950200Y2933700I-12700J0D01*
G75*
G01
X7950200Y3708400D02*
G03X7950200Y3708400I-12700J0D01*
G75*
G01
X7823200Y4191000D02*
G03X7823200Y4191000I-12700J0D01*
G75*
G01
X3695700Y3390900D02*
G03X3695700Y3390900I-12700J0D01*
G75*
G01
X2946400Y3365500D02*
G03X2946400Y3365500I-12700J0D01*
G75*
G01
X2159000Y3378200D02*
G03X2159000Y3378200I-12700J0D01*
G75*
G01
X3086100Y1638300D02*
G03X3086100Y1638300I-12700J0D01*
D15*
G75*
G01
X2118792Y5750992D02*
G03X2118792Y5750992I-19990J0D01*
M02*
