G04 Layer: TopPasteMaskLayer*
G04 EasyEDA v6.5.50, 2025-05-11 21:30:58*
G04 57ce2a779753491496e961f97abc4982,bfcb7ea688f34dc99dffbe5811d057cf,10*
G04 Gerber Generator version 0.2*
G04 Scale: 100 percent, Rotated: No, Reflected: No *
G04 Dimensions in millimeters *
G04 leading zeros omitted , absolute positions ,4 integer and 5 decimal *
%FSLAX45Y45*%
%MOMM*%

%AMMACRO1*21,1,$1,$2,0,0,$3*%
%ADD10R,1.2500X3.0000*%
%ADD11R,1.3000X1.3000*%
%ADD12R,10.4900X8.3800*%
%ADD13R,1.5000X3.5040*%
%ADD14R,0.7000X1.2500*%
%ADD15R,1.2500X0.7000*%
%ADD16R,0.8000X1.0000*%
%ADD17R,2.0000X1.2000*%
%ADD18R,2.0000X0.9000*%
%ADD19R,0.9000X2.0000*%
%ADD20R,3.7000X3.7000*%
%ADD21MACRO1,0.98X2.47X90.0000*%
%ADD22MACRO1,3.6X2.47X-90.0000*%
%ADD23MACRO1,3.6X2.34X-90.0000*%
%ADD24R,2.5000X1.1000*%
%ADD25R,1.1000X0.6000*%
%ADD26R,0.6000X1.1000*%
%ADD27R,1.7000X0.4000*%
%ADD28R,0.0159X0.4000*%

%LPD*%
G36*
X7067296Y4607610D02*
G01*
X7057288Y4597603D01*
X7057288Y4560570D01*
X7067296Y4550562D01*
X7097775Y4550562D01*
X7107783Y4540554D01*
X7107783Y4501845D01*
X7097775Y4491837D01*
X7067296Y4491837D01*
X7057288Y4481830D01*
X7057288Y4444796D01*
X7067296Y4434789D01*
X7195820Y4434789D01*
X7205776Y4444796D01*
X7205776Y4597603D01*
X7195820Y4607610D01*
G37*
G36*
X6748780Y4607610D02*
G01*
X6738823Y4597603D01*
X6738823Y4444796D01*
X6748780Y4434789D01*
X6877303Y4434789D01*
X6887311Y4444796D01*
X6887311Y4481830D01*
X6877303Y4491837D01*
X6846824Y4491837D01*
X6836816Y4501845D01*
X6836816Y4540554D01*
X6846824Y4550562D01*
X6877303Y4550562D01*
X6887311Y4560570D01*
X6887311Y4597603D01*
X6877303Y4607610D01*
G37*
G36*
X7067296Y4925110D02*
G01*
X7057288Y4915103D01*
X7057288Y4878070D01*
X7067296Y4868062D01*
X7097775Y4868062D01*
X7107783Y4858054D01*
X7107783Y4819345D01*
X7097775Y4809337D01*
X7067296Y4809337D01*
X7057288Y4799330D01*
X7057288Y4762296D01*
X7067296Y4752289D01*
X7195820Y4752289D01*
X7205776Y4762296D01*
X7205776Y4915103D01*
X7195820Y4925110D01*
G37*
G36*
X6748780Y4925110D02*
G01*
X6738823Y4915103D01*
X6738823Y4762296D01*
X6748780Y4752289D01*
X6877303Y4752289D01*
X6887311Y4762296D01*
X6887311Y4799330D01*
X6877303Y4809337D01*
X6846824Y4809337D01*
X6836816Y4819345D01*
X6836816Y4858054D01*
X6846824Y4868062D01*
X6877303Y4868062D01*
X6887311Y4878070D01*
X6887311Y4915103D01*
X6877303Y4925110D01*
G37*
G36*
X7949996Y4817211D02*
G01*
X7939989Y4807204D01*
X7939989Y4678680D01*
X7949996Y4668723D01*
X8102803Y4668723D01*
X8112810Y4678680D01*
X8112810Y4807204D01*
X8102803Y4817211D01*
X8065770Y4817211D01*
X8055762Y4807204D01*
X8055762Y4776724D01*
X8045754Y4766716D01*
X8007045Y4766716D01*
X7997037Y4776724D01*
X7997037Y4807204D01*
X7987030Y4817211D01*
G37*
G36*
X7949996Y5135676D02*
G01*
X7939989Y5125720D01*
X7939989Y4997196D01*
X7949996Y4987188D01*
X7987030Y4987188D01*
X7997037Y4997196D01*
X7997037Y5027676D01*
X8007045Y5037683D01*
X8045754Y5037683D01*
X8055762Y5027676D01*
X8055762Y4997196D01*
X8065770Y4987188D01*
X8102803Y4987188D01*
X8112810Y4997196D01*
X8112810Y5125720D01*
X8102803Y5135676D01*
G37*
G36*
X7949996Y5439511D02*
G01*
X7939989Y5429504D01*
X7939989Y5300980D01*
X7949996Y5291023D01*
X8102803Y5291023D01*
X8112810Y5300980D01*
X8112810Y5429504D01*
X8102803Y5439511D01*
X8065770Y5439511D01*
X8055762Y5429504D01*
X8055762Y5399024D01*
X8045754Y5389016D01*
X8007045Y5389016D01*
X7997037Y5399024D01*
X7997037Y5429504D01*
X7987030Y5439511D01*
G37*
G36*
X7949996Y5757976D02*
G01*
X7939989Y5748020D01*
X7939989Y5619496D01*
X7949996Y5609488D01*
X7987030Y5609488D01*
X7997037Y5619496D01*
X7997037Y5649976D01*
X8007045Y5659983D01*
X8045754Y5659983D01*
X8055762Y5649976D01*
X8055762Y5619496D01*
X8065770Y5609488D01*
X8102803Y5609488D01*
X8112810Y5619496D01*
X8112810Y5748020D01*
X8102803Y5757976D01*
G37*
G36*
X8197596Y7300010D02*
G01*
X8187588Y7290003D01*
X8187588Y7252970D01*
X8197596Y7242962D01*
X8228075Y7242962D01*
X8238083Y7232954D01*
X8238083Y7194245D01*
X8228075Y7184237D01*
X8197596Y7184237D01*
X8187588Y7174230D01*
X8187588Y7137196D01*
X8197596Y7127189D01*
X8326120Y7127189D01*
X8336076Y7137196D01*
X8336076Y7290003D01*
X8326120Y7300010D01*
G37*
G36*
X7879080Y7300010D02*
G01*
X7869123Y7290003D01*
X7869123Y7137196D01*
X7879080Y7127189D01*
X8007603Y7127189D01*
X8017611Y7137196D01*
X8017611Y7174230D01*
X8007603Y7184237D01*
X7977124Y7184237D01*
X7967116Y7194245D01*
X7967116Y7232954D01*
X7977124Y7242962D01*
X8007603Y7242962D01*
X8017611Y7252970D01*
X8017611Y7290003D01*
X8007603Y7300010D01*
G37*
G36*
X7180580Y7300010D02*
G01*
X7170623Y7290003D01*
X7170623Y7137196D01*
X7180580Y7127189D01*
X7309103Y7127189D01*
X7319111Y7137196D01*
X7319111Y7174230D01*
X7309103Y7184237D01*
X7278624Y7184237D01*
X7268616Y7194245D01*
X7268616Y7232954D01*
X7278624Y7242962D01*
X7309103Y7242962D01*
X7319111Y7252970D01*
X7319111Y7290003D01*
X7309103Y7300010D01*
G37*
G36*
X7499096Y7300010D02*
G01*
X7489088Y7290003D01*
X7489088Y7252970D01*
X7499096Y7242962D01*
X7529575Y7242962D01*
X7539583Y7232954D01*
X7539583Y7194245D01*
X7529575Y7184237D01*
X7499096Y7184237D01*
X7489088Y7174230D01*
X7489088Y7137196D01*
X7499096Y7127189D01*
X7627620Y7127189D01*
X7637576Y7137196D01*
X7637576Y7290003D01*
X7627620Y7300010D01*
G37*
G36*
X8094980Y4455210D02*
G01*
X8085023Y4445203D01*
X8085023Y4292396D01*
X8094980Y4282389D01*
X8223503Y4282389D01*
X8233511Y4292396D01*
X8233511Y4329430D01*
X8223503Y4339437D01*
X8193024Y4339437D01*
X8183016Y4349445D01*
X8183016Y4388154D01*
X8193024Y4398162D01*
X8223503Y4398162D01*
X8233511Y4408170D01*
X8233511Y4445203D01*
X8223503Y4455210D01*
G37*
G36*
X8413496Y4455210D02*
G01*
X8403488Y4445203D01*
X8403488Y4408170D01*
X8413496Y4398162D01*
X8443976Y4398162D01*
X8453983Y4388154D01*
X8453983Y4349445D01*
X8443976Y4339437D01*
X8413496Y4339437D01*
X8403488Y4329430D01*
X8403488Y4292396D01*
X8413496Y4282389D01*
X8542020Y4282389D01*
X8551976Y4292396D01*
X8551976Y4445203D01*
X8542020Y4455210D01*
G37*
G36*
X8553196Y3274110D02*
G01*
X8543188Y3264103D01*
X8543188Y3227070D01*
X8553196Y3217062D01*
X8583676Y3217062D01*
X8593683Y3207054D01*
X8593683Y3168345D01*
X8583676Y3158337D01*
X8553196Y3158337D01*
X8543188Y3148330D01*
X8543188Y3111296D01*
X8553196Y3101289D01*
X8681720Y3101289D01*
X8691676Y3111296D01*
X8691676Y3264103D01*
X8681720Y3274110D01*
G37*
G36*
X8234680Y3274110D02*
G01*
X8224723Y3264103D01*
X8224723Y3111296D01*
X8234680Y3101289D01*
X8363203Y3101289D01*
X8373211Y3111296D01*
X8373211Y3148330D01*
X8363203Y3158337D01*
X8332724Y3158337D01*
X8322716Y3168345D01*
X8322716Y3207054D01*
X8332724Y3217062D01*
X8363203Y3217062D01*
X8373211Y3227070D01*
X8373211Y3264103D01*
X8363203Y3274110D01*
G37*
G36*
X8807196Y2969310D02*
G01*
X8797188Y2959303D01*
X8797188Y2922270D01*
X8807196Y2912262D01*
X8837676Y2912262D01*
X8847683Y2902254D01*
X8847683Y2863545D01*
X8837676Y2853537D01*
X8807196Y2853537D01*
X8797188Y2843530D01*
X8797188Y2806496D01*
X8807196Y2796489D01*
X8935720Y2796489D01*
X8945676Y2806496D01*
X8945676Y2959303D01*
X8935720Y2969310D01*
G37*
G36*
X8488680Y2969310D02*
G01*
X8478723Y2959303D01*
X8478723Y2806496D01*
X8488680Y2796489D01*
X8617204Y2796489D01*
X8627211Y2806496D01*
X8627211Y2843530D01*
X8617204Y2853537D01*
X8586724Y2853537D01*
X8576716Y2863545D01*
X8576716Y2902254D01*
X8586724Y2912262D01*
X8617204Y2912262D01*
X8627211Y2922270D01*
X8627211Y2959303D01*
X8617204Y2969310D01*
G37*
G36*
X8711996Y2240076D02*
G01*
X8701989Y2230120D01*
X8701989Y2101596D01*
X8711996Y2091588D01*
X8749030Y2091588D01*
X8759037Y2101596D01*
X8759037Y2132076D01*
X8769045Y2142083D01*
X8807754Y2142083D01*
X8817762Y2132076D01*
X8817762Y2101596D01*
X8827770Y2091588D01*
X8864803Y2091588D01*
X8874810Y2101596D01*
X8874810Y2230120D01*
X8864803Y2240076D01*
G37*
G36*
X8711996Y1921611D02*
G01*
X8701989Y1911604D01*
X8701989Y1783080D01*
X8711996Y1773123D01*
X8864803Y1773123D01*
X8874810Y1783080D01*
X8874810Y1911604D01*
X8864803Y1921611D01*
X8827770Y1921611D01*
X8817762Y1911604D01*
X8817762Y1881124D01*
X8807754Y1871116D01*
X8769045Y1871116D01*
X8759037Y1881124D01*
X8759037Y1911604D01*
X8749030Y1921611D01*
G37*
G36*
X3523996Y1381810D02*
G01*
X3513988Y1371803D01*
X3513988Y1334770D01*
X3523996Y1324762D01*
X3554476Y1324762D01*
X3564483Y1314754D01*
X3564483Y1276045D01*
X3554476Y1266037D01*
X3523996Y1266037D01*
X3513988Y1256030D01*
X3513988Y1218996D01*
X3523996Y1208989D01*
X3652520Y1208989D01*
X3662476Y1218996D01*
X3662476Y1371803D01*
X3652520Y1381810D01*
G37*
G36*
X3205480Y1381810D02*
G01*
X3195523Y1371803D01*
X3195523Y1218996D01*
X3205480Y1208989D01*
X3334004Y1208989D01*
X3344011Y1218996D01*
X3344011Y1256030D01*
X3334004Y1266037D01*
X3303524Y1266037D01*
X3293516Y1276045D01*
X3293516Y1314754D01*
X3303524Y1324762D01*
X3334004Y1324762D01*
X3344011Y1334770D01*
X3344011Y1371803D01*
X3334004Y1381810D01*
G37*
G36*
X2260396Y3560876D02*
G01*
X2250389Y3550920D01*
X2250389Y3422396D01*
X2260396Y3412388D01*
X2297430Y3412388D01*
X2307437Y3422396D01*
X2307437Y3452876D01*
X2317445Y3462883D01*
X2356154Y3462883D01*
X2366162Y3452876D01*
X2366162Y3422396D01*
X2376170Y3412388D01*
X2413203Y3412388D01*
X2423210Y3422396D01*
X2423210Y3550920D01*
X2413203Y3560876D01*
G37*
G36*
X2260396Y3242411D02*
G01*
X2250389Y3232404D01*
X2250389Y3103880D01*
X2260396Y3093923D01*
X2413203Y3093923D01*
X2423210Y3103880D01*
X2423210Y3232404D01*
X2413203Y3242411D01*
X2376170Y3242411D01*
X2366162Y3232404D01*
X2366162Y3201924D01*
X2356154Y3191916D01*
X2317445Y3191916D01*
X2307437Y3201924D01*
X2307437Y3232404D01*
X2297430Y3242411D01*
G37*
G36*
X3035096Y3280511D02*
G01*
X3025089Y3270503D01*
X3025089Y3141980D01*
X3035096Y3132023D01*
X3187903Y3132023D01*
X3197910Y3141980D01*
X3197910Y3270503D01*
X3187903Y3280511D01*
X3150870Y3280511D01*
X3140862Y3270503D01*
X3140862Y3240024D01*
X3130854Y3230016D01*
X3092145Y3230016D01*
X3082137Y3240024D01*
X3082137Y3270503D01*
X3072130Y3280511D01*
G37*
G36*
X3035096Y3598976D02*
G01*
X3025089Y3589020D01*
X3025089Y3460496D01*
X3035096Y3450488D01*
X3072130Y3450488D01*
X3082137Y3460496D01*
X3082137Y3490976D01*
X3092145Y3500983D01*
X3130854Y3500983D01*
X3140862Y3490976D01*
X3140862Y3460496D01*
X3150870Y3450488D01*
X3187903Y3450488D01*
X3197910Y3460496D01*
X3197910Y3589020D01*
X3187903Y3598976D01*
G37*
G36*
X3784396Y3293211D02*
G01*
X3774389Y3283204D01*
X3774389Y3154680D01*
X3784396Y3144723D01*
X3937203Y3144723D01*
X3947210Y3154680D01*
X3947210Y3283204D01*
X3937203Y3293211D01*
X3900170Y3293211D01*
X3890162Y3283204D01*
X3890162Y3252724D01*
X3880154Y3242716D01*
X3841445Y3242716D01*
X3831437Y3252724D01*
X3831437Y3283204D01*
X3821429Y3293211D01*
G37*
G36*
X3784396Y3611676D02*
G01*
X3774389Y3601720D01*
X3774389Y3473196D01*
X3784396Y3463188D01*
X3821429Y3463188D01*
X3831437Y3473196D01*
X3831437Y3503676D01*
X3841445Y3513683D01*
X3880154Y3513683D01*
X3890162Y3503676D01*
X3890162Y3473196D01*
X3900170Y3463188D01*
X3937203Y3463188D01*
X3947210Y3473196D01*
X3947210Y3601720D01*
X3937203Y3611676D01*
G37*
G36*
X1987296Y4506010D02*
G01*
X1977288Y4496003D01*
X1977288Y4458970D01*
X1987296Y4448962D01*
X2017775Y4448962D01*
X2027783Y4438954D01*
X2027783Y4400245D01*
X2017775Y4390237D01*
X1987296Y4390237D01*
X1977288Y4380230D01*
X1977288Y4343196D01*
X1987296Y4333189D01*
X2115820Y4333189D01*
X2125776Y4343196D01*
X2125776Y4496003D01*
X2115820Y4506010D01*
G37*
G36*
X1668780Y4506010D02*
G01*
X1658823Y4496003D01*
X1658823Y4343196D01*
X1668780Y4333189D01*
X1797304Y4333189D01*
X1807311Y4343196D01*
X1807311Y4380230D01*
X1797304Y4390237D01*
X1766824Y4390237D01*
X1756816Y4400245D01*
X1756816Y4438954D01*
X1766824Y4448962D01*
X1797304Y4448962D01*
X1807311Y4458970D01*
X1807311Y4496003D01*
X1797304Y4506010D01*
G37*
G36*
X1580896Y5699810D02*
G01*
X1570888Y5689803D01*
X1570888Y5652770D01*
X1580896Y5642762D01*
X1611376Y5642762D01*
X1621383Y5632754D01*
X1621383Y5594045D01*
X1611376Y5584037D01*
X1580896Y5584037D01*
X1570888Y5574030D01*
X1570888Y5536996D01*
X1580896Y5526989D01*
X1709420Y5526989D01*
X1719376Y5536996D01*
X1719376Y5689803D01*
X1709420Y5699810D01*
G37*
G36*
X1262380Y5699810D02*
G01*
X1252423Y5689803D01*
X1252423Y5536996D01*
X1262380Y5526989D01*
X1390904Y5526989D01*
X1400911Y5536996D01*
X1400911Y5574030D01*
X1390904Y5584037D01*
X1360424Y5584037D01*
X1350416Y5594045D01*
X1350416Y5632754D01*
X1360424Y5642762D01*
X1390904Y5642762D01*
X1400911Y5652770D01*
X1400911Y5689803D01*
X1390904Y5699810D01*
G37*
G36*
X1580896Y5395010D02*
G01*
X1570888Y5385003D01*
X1570888Y5347970D01*
X1580896Y5337962D01*
X1611376Y5337962D01*
X1621383Y5327954D01*
X1621383Y5289245D01*
X1611376Y5279237D01*
X1580896Y5279237D01*
X1570888Y5269230D01*
X1570888Y5232196D01*
X1580896Y5222189D01*
X1709420Y5222189D01*
X1719376Y5232196D01*
X1719376Y5385003D01*
X1709420Y5395010D01*
G37*
G36*
X1262380Y5395010D02*
G01*
X1252423Y5385003D01*
X1252423Y5232196D01*
X1262380Y5222189D01*
X1390904Y5222189D01*
X1400911Y5232196D01*
X1400911Y5269230D01*
X1390904Y5279237D01*
X1360424Y5279237D01*
X1350416Y5289245D01*
X1350416Y5327954D01*
X1360424Y5337962D01*
X1390904Y5337962D01*
X1400911Y5347970D01*
X1400911Y5385003D01*
X1390904Y5395010D01*
G37*
G36*
X1987296Y4163110D02*
G01*
X1977288Y4153103D01*
X1977288Y4116070D01*
X1987296Y4106062D01*
X2017775Y4106062D01*
X2027783Y4096054D01*
X2027783Y4057345D01*
X2017775Y4047337D01*
X1987296Y4047337D01*
X1977288Y4037329D01*
X1977288Y4000296D01*
X1987296Y3990289D01*
X2115820Y3990289D01*
X2125776Y4000296D01*
X2125776Y4153103D01*
X2115820Y4163110D01*
G37*
G36*
X1668780Y4163110D02*
G01*
X1658823Y4153103D01*
X1658823Y4000296D01*
X1668780Y3990289D01*
X1797304Y3990289D01*
X1807311Y4000296D01*
X1807311Y4037329D01*
X1797304Y4047337D01*
X1766824Y4047337D01*
X1756816Y4057345D01*
X1756816Y4096054D01*
X1766824Y4106062D01*
X1797304Y4106062D01*
X1807311Y4116070D01*
X1807311Y4153103D01*
X1797304Y4163110D01*
G37*
G36*
X6401917Y4877511D02*
G01*
X6391910Y4867503D01*
X6391910Y4794859D01*
X6401917Y4784852D01*
X6425488Y4784852D01*
X6435496Y4774844D01*
X6435496Y4699355D01*
X6425488Y4689348D01*
X6401917Y4689348D01*
X6391910Y4679340D01*
X6391910Y4606696D01*
X6401917Y4596688D01*
X6510172Y4596688D01*
X6520129Y4606696D01*
X6520129Y4867503D01*
X6510172Y4877511D01*
G37*
G36*
X6113627Y4877511D02*
G01*
X6103670Y4867503D01*
X6103670Y4606696D01*
X6113627Y4596688D01*
X6221882Y4596688D01*
X6231890Y4606696D01*
X6231890Y4679340D01*
X6221882Y4689348D01*
X6198311Y4689348D01*
X6188303Y4699355D01*
X6188303Y4774844D01*
X6198311Y4784852D01*
X6221882Y4784852D01*
X6231890Y4794859D01*
X6231890Y4867503D01*
X6221882Y4877511D01*
G37*
G36*
X5728817Y6109411D02*
G01*
X5718810Y6099403D01*
X5718810Y6026759D01*
X5728817Y6016752D01*
X5752388Y6016752D01*
X5762396Y6006744D01*
X5762396Y5931255D01*
X5752388Y5921248D01*
X5728817Y5921248D01*
X5718810Y5911240D01*
X5718810Y5838596D01*
X5728817Y5828588D01*
X5837072Y5828588D01*
X5847029Y5838596D01*
X5847029Y6099403D01*
X5837072Y6109411D01*
G37*
G36*
X5440527Y6109411D02*
G01*
X5430570Y6099403D01*
X5430570Y5838596D01*
X5440527Y5828588D01*
X5548782Y5828588D01*
X5558790Y5838596D01*
X5558790Y5911240D01*
X5548782Y5921248D01*
X5525211Y5921248D01*
X5515203Y5931255D01*
X5515203Y6006744D01*
X5525211Y6016752D01*
X5548782Y6016752D01*
X5558790Y6026759D01*
X5558790Y6099403D01*
X5548782Y6109411D01*
G37*
G36*
X6389217Y5461711D02*
G01*
X6379210Y5451703D01*
X6379210Y5379059D01*
X6389217Y5369052D01*
X6412788Y5369052D01*
X6422796Y5359044D01*
X6422796Y5283555D01*
X6412788Y5273548D01*
X6389217Y5273548D01*
X6379210Y5263540D01*
X6379210Y5190896D01*
X6389217Y5180888D01*
X6497472Y5180888D01*
X6507429Y5190896D01*
X6507429Y5451703D01*
X6497472Y5461711D01*
G37*
G36*
X6100927Y5461711D02*
G01*
X6090970Y5451703D01*
X6090970Y5190896D01*
X6100927Y5180888D01*
X6209182Y5180888D01*
X6219190Y5190896D01*
X6219190Y5263540D01*
X6209182Y5273548D01*
X6185611Y5273548D01*
X6175603Y5283555D01*
X6175603Y5359044D01*
X6185611Y5369052D01*
X6209182Y5369052D01*
X6219190Y5379059D01*
X6219190Y5451703D01*
X6209182Y5461711D01*
G37*
G36*
X5322417Y6719011D02*
G01*
X5312410Y6709003D01*
X5312410Y6636359D01*
X5322417Y6626352D01*
X5345988Y6626352D01*
X5355996Y6616344D01*
X5355996Y6540855D01*
X5345988Y6530848D01*
X5322417Y6530848D01*
X5312410Y6520840D01*
X5312410Y6448196D01*
X5322417Y6438188D01*
X5430672Y6438188D01*
X5440629Y6448196D01*
X5440629Y6709003D01*
X5430672Y6719011D01*
G37*
G36*
X5034127Y6719011D02*
G01*
X5024170Y6709003D01*
X5024170Y6448196D01*
X5034127Y6438188D01*
X5142382Y6438188D01*
X5152390Y6448196D01*
X5152390Y6520840D01*
X5142382Y6530848D01*
X5118811Y6530848D01*
X5108803Y6540855D01*
X5108803Y6616344D01*
X5118811Y6626352D01*
X5142382Y6626352D01*
X5152390Y6636359D01*
X5152390Y6709003D01*
X5142382Y6719011D01*
G37*
G36*
X5754217Y5449011D02*
G01*
X5744210Y5439003D01*
X5744210Y5366359D01*
X5754217Y5356352D01*
X5777788Y5356352D01*
X5787796Y5346344D01*
X5787796Y5270855D01*
X5777788Y5260848D01*
X5754217Y5260848D01*
X5744210Y5250840D01*
X5744210Y5178196D01*
X5754217Y5168188D01*
X5862472Y5168188D01*
X5872429Y5178196D01*
X5872429Y5439003D01*
X5862472Y5449011D01*
G37*
G36*
X5465927Y5449011D02*
G01*
X5455970Y5439003D01*
X5455970Y5178196D01*
X5465927Y5168188D01*
X5574182Y5168188D01*
X5584190Y5178196D01*
X5584190Y5250840D01*
X5574182Y5260848D01*
X5550611Y5260848D01*
X5540603Y5270855D01*
X5540603Y5346344D01*
X5550611Y5356352D01*
X5574182Y5356352D01*
X5584190Y5366359D01*
X5584190Y5439003D01*
X5574182Y5449011D01*
G37*
G36*
X6363817Y6122111D02*
G01*
X6353810Y6112103D01*
X6353810Y6039459D01*
X6363817Y6029452D01*
X6387388Y6029452D01*
X6397396Y6019444D01*
X6397396Y5943955D01*
X6387388Y5933948D01*
X6363817Y5933948D01*
X6353810Y5923940D01*
X6353810Y5851296D01*
X6363817Y5841288D01*
X6472072Y5841288D01*
X6482029Y5851296D01*
X6482029Y6112103D01*
X6472072Y6122111D01*
G37*
G36*
X6075527Y6122111D02*
G01*
X6065570Y6112103D01*
X6065570Y5851296D01*
X6075527Y5841288D01*
X6183782Y5841288D01*
X6193790Y5851296D01*
X6193790Y5923940D01*
X6183782Y5933948D01*
X6160211Y5933948D01*
X6150203Y5943955D01*
X6150203Y6019444D01*
X6160211Y6029452D01*
X6183782Y6029452D01*
X6193790Y6039459D01*
X6193790Y6112103D01*
X6183782Y6122111D01*
G37*
G36*
X7675727Y6249111D02*
G01*
X7665770Y6239103D01*
X7665770Y5978296D01*
X7675727Y5968288D01*
X7783982Y5968288D01*
X7793990Y5978296D01*
X7793990Y6050940D01*
X7783982Y6060948D01*
X7760411Y6060948D01*
X7750403Y6070955D01*
X7750403Y6146444D01*
X7760411Y6156452D01*
X7783982Y6156452D01*
X7793990Y6166459D01*
X7793990Y6239103D01*
X7783982Y6249111D01*
G37*
G36*
X7964017Y6249111D02*
G01*
X7954009Y6239103D01*
X7954009Y6166459D01*
X7964017Y6156452D01*
X7987588Y6156452D01*
X7997596Y6146444D01*
X7997596Y6070955D01*
X7987588Y6060948D01*
X7964017Y6060948D01*
X7954009Y6050940D01*
X7954009Y5978296D01*
X7964017Y5968288D01*
X8072272Y5968288D01*
X8082229Y5978296D01*
X8082229Y6239103D01*
X8072272Y6249111D01*
G37*
G36*
X6685127Y6261811D02*
G01*
X6675170Y6251803D01*
X6675170Y5990996D01*
X6685127Y5980988D01*
X6793382Y5980988D01*
X6803390Y5990996D01*
X6803390Y6063640D01*
X6793382Y6073648D01*
X6769811Y6073648D01*
X6759803Y6083655D01*
X6759803Y6159144D01*
X6769811Y6169152D01*
X6793382Y6169152D01*
X6803390Y6179159D01*
X6803390Y6251803D01*
X6793382Y6261811D01*
G37*
G36*
X6973417Y6261811D02*
G01*
X6963409Y6251803D01*
X6963409Y6179159D01*
X6973417Y6169152D01*
X6996988Y6169152D01*
X7006996Y6159144D01*
X7006996Y6083655D01*
X6996988Y6073648D01*
X6973417Y6073648D01*
X6963409Y6063640D01*
X6963409Y5990996D01*
X6973417Y5980988D01*
X7081672Y5980988D01*
X7091629Y5990996D01*
X7091629Y6251803D01*
X7081672Y6261811D01*
G37*
G36*
X8764117Y4166311D02*
G01*
X8754110Y4156303D01*
X8754110Y4083659D01*
X8764117Y4073651D01*
X8787688Y4073651D01*
X8797696Y4063644D01*
X8797696Y3988155D01*
X8787688Y3978148D01*
X8764117Y3978148D01*
X8754110Y3968140D01*
X8754110Y3895496D01*
X8764117Y3885488D01*
X8872372Y3885488D01*
X8882329Y3895496D01*
X8882329Y4156303D01*
X8872372Y4166311D01*
G37*
G36*
X8475827Y4166311D02*
G01*
X8465870Y4156303D01*
X8465870Y3895496D01*
X8475827Y3885488D01*
X8584082Y3885488D01*
X8594090Y3895496D01*
X8594090Y3968140D01*
X8584082Y3978148D01*
X8560511Y3978148D01*
X8550503Y3988155D01*
X8550503Y4063644D01*
X8560511Y4073651D01*
X8584082Y4073651D01*
X8594090Y4083659D01*
X8594090Y4156303D01*
X8584082Y4166311D01*
G37*
G36*
X8738717Y3683711D02*
G01*
X8728710Y3673703D01*
X8728710Y3601059D01*
X8738717Y3591051D01*
X8762288Y3591051D01*
X8772296Y3581044D01*
X8772296Y3505555D01*
X8762288Y3495548D01*
X8738717Y3495548D01*
X8728710Y3485540D01*
X8728710Y3412896D01*
X8738717Y3402888D01*
X8846972Y3402888D01*
X8856929Y3412896D01*
X8856929Y3673703D01*
X8846972Y3683711D01*
G37*
G36*
X8450427Y3683711D02*
G01*
X8440470Y3673703D01*
X8440470Y3412896D01*
X8450427Y3402888D01*
X8558682Y3402888D01*
X8568690Y3412896D01*
X8568690Y3485540D01*
X8558682Y3495548D01*
X8535111Y3495548D01*
X8525103Y3505555D01*
X8525103Y3581044D01*
X8535111Y3591051D01*
X8558682Y3591051D01*
X8568690Y3601059D01*
X8568690Y3673703D01*
X8558682Y3683711D01*
G37*
G36*
X8649817Y2693111D02*
G01*
X8639810Y2683103D01*
X8639810Y2610459D01*
X8649817Y2600452D01*
X8673388Y2600452D01*
X8683396Y2590444D01*
X8683396Y2514955D01*
X8673388Y2504948D01*
X8649817Y2504948D01*
X8639810Y2494940D01*
X8639810Y2422296D01*
X8649817Y2412288D01*
X8758072Y2412288D01*
X8768029Y2422296D01*
X8768029Y2683103D01*
X8758072Y2693111D01*
G37*
G36*
X8361527Y2693111D02*
G01*
X8351570Y2683103D01*
X8351570Y2422296D01*
X8361527Y2412288D01*
X8469782Y2412288D01*
X8479790Y2422296D01*
X8479790Y2494940D01*
X8469782Y2504948D01*
X8446211Y2504948D01*
X8436203Y2514955D01*
X8436203Y2590444D01*
X8446211Y2600452D01*
X8469782Y2600452D01*
X8479790Y2610459D01*
X8479790Y2683103D01*
X8469782Y2693111D01*
G37*
G36*
X9348317Y2210511D02*
G01*
X9338310Y2200503D01*
X9338310Y2127859D01*
X9348317Y2117852D01*
X9371888Y2117852D01*
X9381896Y2107844D01*
X9381896Y2032355D01*
X9371888Y2022348D01*
X9348317Y2022348D01*
X9338310Y2012340D01*
X9338310Y1939696D01*
X9348317Y1929688D01*
X9456572Y1929688D01*
X9466529Y1939696D01*
X9466529Y2200503D01*
X9456572Y2210511D01*
G37*
G36*
X9060027Y2210511D02*
G01*
X9050070Y2200503D01*
X9050070Y1939696D01*
X9060027Y1929688D01*
X9168282Y1929688D01*
X9178290Y1939696D01*
X9178290Y2012340D01*
X9168282Y2022348D01*
X9144711Y2022348D01*
X9134703Y2032355D01*
X9134703Y2107844D01*
X9144711Y2117852D01*
X9168282Y2117852D01*
X9178290Y2127859D01*
X9178290Y2200503D01*
X9168282Y2210511D01*
G37*
G36*
X7506817Y4039311D02*
G01*
X7496809Y4029303D01*
X7496809Y3956659D01*
X7506817Y3946651D01*
X7530388Y3946651D01*
X7540396Y3936644D01*
X7540396Y3861155D01*
X7530388Y3851148D01*
X7506817Y3851148D01*
X7496809Y3841140D01*
X7496809Y3768496D01*
X7506817Y3758488D01*
X7615072Y3758488D01*
X7625029Y3768496D01*
X7625029Y4029303D01*
X7615072Y4039311D01*
G37*
G36*
X7218527Y4039311D02*
G01*
X7208570Y4029303D01*
X7208570Y3768496D01*
X7218527Y3758488D01*
X7326782Y3758488D01*
X7336790Y3768496D01*
X7336790Y3841140D01*
X7326782Y3851148D01*
X7303211Y3851148D01*
X7293203Y3861155D01*
X7293203Y3936644D01*
X7303211Y3946651D01*
X7326782Y3946651D01*
X7336790Y3956659D01*
X7336790Y4029303D01*
X7326782Y4039311D01*
G37*
G36*
X7621117Y3086811D02*
G01*
X7611109Y3076803D01*
X7611109Y3004159D01*
X7621117Y2994152D01*
X7644688Y2994152D01*
X7654696Y2984144D01*
X7654696Y2908655D01*
X7644688Y2898648D01*
X7621117Y2898648D01*
X7611109Y2888640D01*
X7611109Y2815996D01*
X7621117Y2805988D01*
X7729372Y2805988D01*
X7739329Y2815996D01*
X7739329Y3076803D01*
X7729372Y3086811D01*
G37*
G36*
X7332827Y3086811D02*
G01*
X7322870Y3076803D01*
X7322870Y2815996D01*
X7332827Y2805988D01*
X7441082Y2805988D01*
X7451090Y2815996D01*
X7451090Y2888640D01*
X7441082Y2898648D01*
X7417511Y2898648D01*
X7407503Y2908655D01*
X7407503Y2984144D01*
X7417511Y2994152D01*
X7441082Y2994152D01*
X7451090Y3004159D01*
X7451090Y3076803D01*
X7441082Y3086811D01*
G37*
G36*
X7595717Y2096211D02*
G01*
X7585709Y2086203D01*
X7585709Y2013559D01*
X7595717Y2003552D01*
X7619288Y2003552D01*
X7629296Y1993544D01*
X7629296Y1918055D01*
X7619288Y1908048D01*
X7595717Y1908048D01*
X7585709Y1898040D01*
X7585709Y1825396D01*
X7595717Y1815388D01*
X7703972Y1815388D01*
X7713929Y1825396D01*
X7713929Y2086203D01*
X7703972Y2096211D01*
G37*
G36*
X7307427Y2096211D02*
G01*
X7297470Y2086203D01*
X7297470Y1825396D01*
X7307427Y1815388D01*
X7415682Y1815388D01*
X7425690Y1825396D01*
X7425690Y1898040D01*
X7415682Y1908048D01*
X7392111Y1908048D01*
X7382103Y1918055D01*
X7382103Y1993544D01*
X7392111Y2003552D01*
X7415682Y2003552D01*
X7425690Y2013559D01*
X7425690Y2086203D01*
X7415682Y2096211D01*
G37*
G36*
X7595717Y978611D02*
G01*
X7585709Y968603D01*
X7585709Y895959D01*
X7595717Y885952D01*
X7619288Y885952D01*
X7629296Y875944D01*
X7629296Y800455D01*
X7619288Y790448D01*
X7595717Y790448D01*
X7585709Y780440D01*
X7585709Y707796D01*
X7595717Y697788D01*
X7703972Y697788D01*
X7713929Y707796D01*
X7713929Y968603D01*
X7703972Y978611D01*
G37*
G36*
X7307427Y978611D02*
G01*
X7297470Y968603D01*
X7297470Y707796D01*
X7307427Y697788D01*
X7415682Y697788D01*
X7425690Y707796D01*
X7425690Y780440D01*
X7415682Y790448D01*
X7392111Y790448D01*
X7382103Y800455D01*
X7382103Y875944D01*
X7392111Y885952D01*
X7415682Y885952D01*
X7425690Y895959D01*
X7425690Y968603D01*
X7415682Y978611D01*
G37*
G36*
X7595717Y1550111D02*
G01*
X7585709Y1540103D01*
X7585709Y1467459D01*
X7595717Y1457452D01*
X7619288Y1457452D01*
X7629296Y1447444D01*
X7629296Y1371955D01*
X7619288Y1361948D01*
X7595717Y1361948D01*
X7585709Y1351940D01*
X7585709Y1279296D01*
X7595717Y1269288D01*
X7703972Y1269288D01*
X7713929Y1279296D01*
X7713929Y1540103D01*
X7703972Y1550111D01*
G37*
G36*
X7307427Y1550111D02*
G01*
X7297470Y1540103D01*
X7297470Y1279296D01*
X7307427Y1269288D01*
X7415682Y1269288D01*
X7425690Y1279296D01*
X7425690Y1351940D01*
X7415682Y1361948D01*
X7392111Y1361948D01*
X7382103Y1371955D01*
X7382103Y1447444D01*
X7392111Y1457452D01*
X7415682Y1457452D01*
X7425690Y1467459D01*
X7425690Y1540103D01*
X7415682Y1550111D01*
G37*
G36*
X7595717Y2591511D02*
G01*
X7585709Y2581503D01*
X7585709Y2508859D01*
X7595717Y2498852D01*
X7619288Y2498852D01*
X7629296Y2488844D01*
X7629296Y2413355D01*
X7619288Y2403348D01*
X7595717Y2403348D01*
X7585709Y2393340D01*
X7585709Y2320696D01*
X7595717Y2310688D01*
X7703972Y2310688D01*
X7713929Y2320696D01*
X7713929Y2581503D01*
X7703972Y2591511D01*
G37*
G36*
X7307427Y2591511D02*
G01*
X7297470Y2581503D01*
X7297470Y2320696D01*
X7307427Y2310688D01*
X7415682Y2310688D01*
X7425690Y2320696D01*
X7425690Y2393340D01*
X7415682Y2403348D01*
X7392111Y2403348D01*
X7382103Y2413355D01*
X7382103Y2488844D01*
X7392111Y2498852D01*
X7415682Y2498852D01*
X7425690Y2508859D01*
X7425690Y2581503D01*
X7415682Y2591511D01*
G37*
G36*
X7621117Y3531311D02*
G01*
X7611109Y3521303D01*
X7611109Y3448659D01*
X7621117Y3438651D01*
X7644688Y3438651D01*
X7654696Y3428644D01*
X7654696Y3353155D01*
X7644688Y3343148D01*
X7621117Y3343148D01*
X7611109Y3333140D01*
X7611109Y3260496D01*
X7621117Y3250488D01*
X7729372Y3250488D01*
X7739329Y3260496D01*
X7739329Y3521303D01*
X7729372Y3531311D01*
G37*
G36*
X7332827Y3531311D02*
G01*
X7322870Y3521303D01*
X7322870Y3260496D01*
X7332827Y3250488D01*
X7441082Y3250488D01*
X7451090Y3260496D01*
X7451090Y3333140D01*
X7441082Y3343148D01*
X7417511Y3343148D01*
X7407503Y3353155D01*
X7407503Y3428644D01*
X7417511Y3438651D01*
X7441082Y3438651D01*
X7451090Y3448659D01*
X7451090Y3521303D01*
X7441082Y3531311D01*
G37*
G36*
X7671917Y4572711D02*
G01*
X7661909Y4562703D01*
X7661909Y4490059D01*
X7671917Y4480052D01*
X7695488Y4480052D01*
X7705496Y4470044D01*
X7705496Y4394555D01*
X7695488Y4384548D01*
X7671917Y4384548D01*
X7661909Y4374540D01*
X7661909Y4301896D01*
X7671917Y4291888D01*
X7780172Y4291888D01*
X7790129Y4301896D01*
X7790129Y4562703D01*
X7780172Y4572711D01*
G37*
G36*
X7383627Y4572711D02*
G01*
X7373670Y4562703D01*
X7373670Y4301896D01*
X7383627Y4291888D01*
X7491882Y4291888D01*
X7501890Y4301896D01*
X7501890Y4374540D01*
X7491882Y4384548D01*
X7468311Y4384548D01*
X7458303Y4394555D01*
X7458303Y4470044D01*
X7468311Y4480052D01*
X7491882Y4480052D01*
X7501890Y4490059D01*
X7501890Y4562703D01*
X7491882Y4572711D01*
G37*
G36*
X5609996Y3865829D02*
G01*
X5599988Y3855872D01*
X5599988Y3747617D01*
X5609996Y3737610D01*
X5682640Y3737610D01*
X5692648Y3747617D01*
X5692648Y3771188D01*
X5702655Y3781196D01*
X5778144Y3781196D01*
X5788152Y3771188D01*
X5788152Y3747617D01*
X5798159Y3737610D01*
X5870803Y3737610D01*
X5880811Y3747617D01*
X5880811Y3855872D01*
X5870803Y3865829D01*
G37*
G36*
X5609996Y3577590D02*
G01*
X5599988Y3567582D01*
X5599988Y3459327D01*
X5609996Y3449370D01*
X5870803Y3449370D01*
X5880811Y3459327D01*
X5880811Y3567582D01*
X5870803Y3577590D01*
X5798159Y3577590D01*
X5788152Y3567582D01*
X5788152Y3544011D01*
X5778144Y3534003D01*
X5702655Y3534003D01*
X5692648Y3544011D01*
X5692648Y3567582D01*
X5682640Y3577590D01*
G37*
G36*
X6181496Y3383229D02*
G01*
X6171488Y3373272D01*
X6171488Y3265017D01*
X6181496Y3255010D01*
X6254140Y3255010D01*
X6264148Y3265017D01*
X6264148Y3288588D01*
X6274155Y3298596D01*
X6349644Y3298596D01*
X6359652Y3288588D01*
X6359652Y3265017D01*
X6369659Y3255010D01*
X6442303Y3255010D01*
X6452311Y3265017D01*
X6452311Y3373272D01*
X6442303Y3383229D01*
G37*
G36*
X6181496Y3094990D02*
G01*
X6171488Y3084982D01*
X6171488Y2976727D01*
X6181496Y2966770D01*
X6442303Y2966770D01*
X6452311Y2976727D01*
X6452311Y3084982D01*
X6442303Y3094990D01*
X6369659Y3094990D01*
X6359652Y3084982D01*
X6359652Y3061411D01*
X6349644Y3051403D01*
X6274155Y3051403D01*
X6264148Y3061411D01*
X6264148Y3084982D01*
X6254140Y3094990D01*
G37*
G36*
X5584596Y3103829D02*
G01*
X5574588Y3093872D01*
X5574588Y2985617D01*
X5584596Y2975610D01*
X5657240Y2975610D01*
X5667248Y2985617D01*
X5667248Y3009188D01*
X5677255Y3019196D01*
X5752744Y3019196D01*
X5762752Y3009188D01*
X5762752Y2985617D01*
X5772759Y2975610D01*
X5845403Y2975610D01*
X5855411Y2985617D01*
X5855411Y3093872D01*
X5845403Y3103829D01*
G37*
G36*
X5584596Y2815590D02*
G01*
X5574588Y2805582D01*
X5574588Y2697327D01*
X5584596Y2687370D01*
X5845403Y2687370D01*
X5855411Y2697327D01*
X5855411Y2805582D01*
X5845403Y2815590D01*
X5772759Y2815590D01*
X5762752Y2805582D01*
X5762752Y2782011D01*
X5752744Y2772003D01*
X5677255Y2772003D01*
X5667248Y2782011D01*
X5667248Y2805582D01*
X5657240Y2815590D01*
G37*
G36*
X6168796Y2684729D02*
G01*
X6158788Y2674772D01*
X6158788Y2566517D01*
X6168796Y2556510D01*
X6241440Y2556510D01*
X6251448Y2566517D01*
X6251448Y2590088D01*
X6261455Y2600096D01*
X6336944Y2600096D01*
X6346952Y2590088D01*
X6346952Y2566517D01*
X6356959Y2556510D01*
X6429603Y2556510D01*
X6439611Y2566517D01*
X6439611Y2674772D01*
X6429603Y2684729D01*
G37*
G36*
X6168796Y2396490D02*
G01*
X6158788Y2386482D01*
X6158788Y2278227D01*
X6168796Y2268270D01*
X6429603Y2268270D01*
X6439611Y2278227D01*
X6439611Y2386482D01*
X6429603Y2396490D01*
X6356959Y2396490D01*
X6346952Y2386482D01*
X6346952Y2362911D01*
X6336944Y2352903D01*
X6261455Y2352903D01*
X6251448Y2362911D01*
X6251448Y2386482D01*
X6241440Y2396490D01*
G37*
G36*
X5559196Y2392629D02*
G01*
X5549188Y2382672D01*
X5549188Y2274417D01*
X5559196Y2264410D01*
X5631840Y2264410D01*
X5641848Y2274417D01*
X5641848Y2297988D01*
X5651855Y2307996D01*
X5727344Y2307996D01*
X5737352Y2297988D01*
X5737352Y2274417D01*
X5747359Y2264410D01*
X5820003Y2264410D01*
X5830011Y2274417D01*
X5830011Y2382672D01*
X5820003Y2392629D01*
G37*
G36*
X5559196Y2104390D02*
G01*
X5549188Y2094382D01*
X5549188Y1986127D01*
X5559196Y1976170D01*
X5820003Y1976170D01*
X5830011Y1986127D01*
X5830011Y2094382D01*
X5820003Y2104390D01*
X5747359Y2104390D01*
X5737352Y2094382D01*
X5737352Y2070811D01*
X5727344Y2060803D01*
X5651855Y2060803D01*
X5641848Y2070811D01*
X5641848Y2094382D01*
X5631840Y2104390D01*
G37*
G36*
X6156096Y1948129D02*
G01*
X6146088Y1938172D01*
X6146088Y1829917D01*
X6156096Y1819910D01*
X6228740Y1819910D01*
X6238748Y1829917D01*
X6238748Y1853488D01*
X6248755Y1863496D01*
X6324244Y1863496D01*
X6334252Y1853488D01*
X6334252Y1829917D01*
X6344259Y1819910D01*
X6416903Y1819910D01*
X6426911Y1829917D01*
X6426911Y1938172D01*
X6416903Y1948129D01*
G37*
G36*
X6156096Y1659889D02*
G01*
X6146088Y1649882D01*
X6146088Y1541627D01*
X6156096Y1531670D01*
X6416903Y1531670D01*
X6426911Y1541627D01*
X6426911Y1649882D01*
X6416903Y1659889D01*
X6344259Y1659889D01*
X6334252Y1649882D01*
X6334252Y1626311D01*
X6324244Y1616303D01*
X6248755Y1616303D01*
X6238748Y1626311D01*
X6238748Y1649882D01*
X6228740Y1659889D01*
G37*
G36*
X5559196Y1643329D02*
G01*
X5549188Y1633372D01*
X5549188Y1525117D01*
X5559196Y1515110D01*
X5631840Y1515110D01*
X5641848Y1525117D01*
X5641848Y1548688D01*
X5651855Y1558696D01*
X5727344Y1558696D01*
X5737352Y1548688D01*
X5737352Y1525117D01*
X5747359Y1515110D01*
X5820003Y1515110D01*
X5830011Y1525117D01*
X5830011Y1633372D01*
X5820003Y1643329D01*
G37*
G36*
X5559196Y1355090D02*
G01*
X5549188Y1345082D01*
X5549188Y1236827D01*
X5559196Y1226870D01*
X5820003Y1226870D01*
X5830011Y1236827D01*
X5830011Y1345082D01*
X5820003Y1355090D01*
X5747359Y1355090D01*
X5737352Y1345082D01*
X5737352Y1321511D01*
X5727344Y1311503D01*
X5651855Y1311503D01*
X5641848Y1321511D01*
X5641848Y1345082D01*
X5631840Y1355090D01*
G37*
G36*
X6130696Y1211529D02*
G01*
X6120688Y1201572D01*
X6120688Y1093317D01*
X6130696Y1083310D01*
X6203340Y1083310D01*
X6213348Y1093317D01*
X6213348Y1116888D01*
X6223355Y1126896D01*
X6298844Y1126896D01*
X6308852Y1116888D01*
X6308852Y1093317D01*
X6318859Y1083310D01*
X6391503Y1083310D01*
X6401511Y1093317D01*
X6401511Y1201572D01*
X6391503Y1211529D01*
G37*
G36*
X6130696Y923290D02*
G01*
X6120688Y913282D01*
X6120688Y805027D01*
X6130696Y795070D01*
X6391503Y795070D01*
X6401511Y805027D01*
X6401511Y913282D01*
X6391503Y923290D01*
X6318859Y923290D01*
X6308852Y913282D01*
X6308852Y889711D01*
X6298844Y879703D01*
X6223355Y879703D01*
X6213348Y889711D01*
X6213348Y913282D01*
X6203340Y923290D01*
G37*
G36*
X8294217Y991311D02*
G01*
X8284209Y981303D01*
X8284209Y908659D01*
X8294217Y898652D01*
X8317788Y898652D01*
X8327796Y888644D01*
X8327796Y813155D01*
X8317788Y803148D01*
X8294217Y803148D01*
X8284209Y793140D01*
X8284209Y720496D01*
X8294217Y710488D01*
X8402472Y710488D01*
X8412429Y720496D01*
X8412429Y981303D01*
X8402472Y991311D01*
G37*
G36*
X8005927Y991311D02*
G01*
X7995970Y981303D01*
X7995970Y720496D01*
X8005927Y710488D01*
X8114182Y710488D01*
X8124190Y720496D01*
X8124190Y793140D01*
X8114182Y803148D01*
X8090611Y803148D01*
X8080603Y813155D01*
X8080603Y888644D01*
X8090611Y898652D01*
X8114182Y898652D01*
X8124190Y908659D01*
X8124190Y981303D01*
X8114182Y991311D01*
G37*
G36*
X8683396Y1617929D02*
G01*
X8673388Y1607972D01*
X8673388Y1499717D01*
X8683396Y1489710D01*
X8756040Y1489710D01*
X8766048Y1499717D01*
X8766048Y1523288D01*
X8776055Y1533296D01*
X8851544Y1533296D01*
X8861552Y1523288D01*
X8861552Y1499717D01*
X8871559Y1489710D01*
X8944203Y1489710D01*
X8954211Y1499717D01*
X8954211Y1607972D01*
X8944203Y1617929D01*
G37*
G36*
X8683396Y1329690D02*
G01*
X8673388Y1319682D01*
X8673388Y1211427D01*
X8683396Y1201470D01*
X8944203Y1201470D01*
X8954211Y1211427D01*
X8954211Y1319682D01*
X8944203Y1329690D01*
X8871559Y1329690D01*
X8861552Y1319682D01*
X8861552Y1296111D01*
X8851544Y1286103D01*
X8776055Y1286103D01*
X8766048Y1296111D01*
X8766048Y1319682D01*
X8756040Y1329690D01*
G37*
G36*
X9115196Y796290D02*
G01*
X9105188Y786282D01*
X9105188Y678027D01*
X9115196Y668070D01*
X9376003Y668070D01*
X9386011Y678027D01*
X9386011Y786282D01*
X9376003Y796290D01*
X9303359Y796290D01*
X9293352Y786282D01*
X9293352Y762711D01*
X9283344Y752703D01*
X9207855Y752703D01*
X9197848Y762711D01*
X9197848Y786282D01*
X9187840Y796290D01*
G37*
G36*
X9115196Y1084529D02*
G01*
X9105188Y1074572D01*
X9105188Y966317D01*
X9115196Y956310D01*
X9187840Y956310D01*
X9197848Y966317D01*
X9197848Y989888D01*
X9207855Y999896D01*
X9283344Y999896D01*
X9293352Y989888D01*
X9293352Y966317D01*
X9303359Y956310D01*
X9376003Y956310D01*
X9386011Y966317D01*
X9386011Y1074572D01*
X9376003Y1084529D01*
G37*
G36*
X8683396Y1071829D02*
G01*
X8673388Y1061872D01*
X8673388Y953617D01*
X8683396Y943610D01*
X8756040Y943610D01*
X8766048Y953617D01*
X8766048Y977188D01*
X8776055Y987196D01*
X8851544Y987196D01*
X8861552Y977188D01*
X8861552Y953617D01*
X8871559Y943610D01*
X8944203Y943610D01*
X8954211Y953617D01*
X8954211Y1061872D01*
X8944203Y1071829D01*
G37*
G36*
X8683396Y783590D02*
G01*
X8673388Y773582D01*
X8673388Y665327D01*
X8683396Y655370D01*
X8944203Y655370D01*
X8954211Y665327D01*
X8954211Y773582D01*
X8944203Y783590D01*
X8871559Y783590D01*
X8861552Y773582D01*
X8861552Y750011D01*
X8851544Y740003D01*
X8776055Y740003D01*
X8766048Y750011D01*
X8766048Y773582D01*
X8756040Y783590D01*
G37*
G36*
X3811117Y3988511D02*
G01*
X3801110Y3978503D01*
X3801110Y3905859D01*
X3811117Y3895851D01*
X3834688Y3895851D01*
X3844696Y3885844D01*
X3844696Y3810355D01*
X3834688Y3800348D01*
X3811117Y3800348D01*
X3801110Y3790340D01*
X3801110Y3717696D01*
X3811117Y3707688D01*
X3919372Y3707688D01*
X3929329Y3717696D01*
X3929329Y3978503D01*
X3919372Y3988511D01*
G37*
G36*
X3522827Y3988511D02*
G01*
X3512870Y3978503D01*
X3512870Y3717696D01*
X3522827Y3707688D01*
X3631082Y3707688D01*
X3641090Y3717696D01*
X3641090Y3790340D01*
X3631082Y3800348D01*
X3607511Y3800348D01*
X3597503Y3810355D01*
X3597503Y3885844D01*
X3607511Y3895851D01*
X3631082Y3895851D01*
X3641090Y3905859D01*
X3641090Y3978503D01*
X3631082Y3988511D01*
G37*
G36*
X3188817Y3975811D02*
G01*
X3178810Y3965803D01*
X3178810Y3893159D01*
X3188817Y3883151D01*
X3212388Y3883151D01*
X3222396Y3873144D01*
X3222396Y3797655D01*
X3212388Y3787648D01*
X3188817Y3787648D01*
X3178810Y3777640D01*
X3178810Y3704996D01*
X3188817Y3694988D01*
X3297072Y3694988D01*
X3307029Y3704996D01*
X3307029Y3965803D01*
X3297072Y3975811D01*
G37*
G36*
X2900527Y3975811D02*
G01*
X2890570Y3965803D01*
X2890570Y3704996D01*
X2900527Y3694988D01*
X3008782Y3694988D01*
X3018790Y3704996D01*
X3018790Y3777640D01*
X3008782Y3787648D01*
X2985211Y3787648D01*
X2975203Y3797655D01*
X2975203Y3873144D01*
X2985211Y3883151D01*
X3008782Y3883151D01*
X3018790Y3893159D01*
X3018790Y3965803D01*
X3008782Y3975811D01*
G37*
G36*
X2579217Y3988511D02*
G01*
X2569210Y3978503D01*
X2569210Y3905859D01*
X2579217Y3895851D01*
X2602788Y3895851D01*
X2612796Y3885844D01*
X2612796Y3810355D01*
X2602788Y3800348D01*
X2579217Y3800348D01*
X2569210Y3790340D01*
X2569210Y3717696D01*
X2579217Y3707688D01*
X2687472Y3707688D01*
X2697429Y3717696D01*
X2697429Y3978503D01*
X2687472Y3988511D01*
G37*
G36*
X2290927Y3988511D02*
G01*
X2280970Y3978503D01*
X2280970Y3717696D01*
X2290927Y3707688D01*
X2399182Y3707688D01*
X2409190Y3717696D01*
X2409190Y3790340D01*
X2399182Y3800348D01*
X2375611Y3800348D01*
X2365603Y3810355D01*
X2365603Y3885844D01*
X2375611Y3895851D01*
X2399182Y3895851D01*
X2409190Y3905859D01*
X2409190Y3978503D01*
X2399182Y3988511D01*
G37*
G36*
X3519017Y1943811D02*
G01*
X3509010Y1933803D01*
X3509010Y1861159D01*
X3519017Y1851152D01*
X3542588Y1851152D01*
X3552596Y1841144D01*
X3552596Y1765655D01*
X3542588Y1755648D01*
X3519017Y1755648D01*
X3509010Y1745640D01*
X3509010Y1672996D01*
X3519017Y1662988D01*
X3627272Y1662988D01*
X3637229Y1672996D01*
X3637229Y1933803D01*
X3627272Y1943811D01*
G37*
G36*
X3230727Y1943811D02*
G01*
X3220770Y1933803D01*
X3220770Y1672996D01*
X3230727Y1662988D01*
X3338982Y1662988D01*
X3348990Y1672996D01*
X3348990Y1745640D01*
X3338982Y1755648D01*
X3315411Y1755648D01*
X3305403Y1765655D01*
X3305403Y1841144D01*
X3315411Y1851152D01*
X3338982Y1851152D01*
X3348990Y1861159D01*
X3348990Y1933803D01*
X3338982Y1943811D01*
G37*
G36*
X3773017Y2540711D02*
G01*
X3763010Y2530703D01*
X3763010Y2458059D01*
X3773017Y2448052D01*
X3796588Y2448052D01*
X3806596Y2438044D01*
X3806596Y2362555D01*
X3796588Y2352548D01*
X3773017Y2352548D01*
X3763010Y2342540D01*
X3763010Y2269896D01*
X3773017Y2259888D01*
X3881272Y2259888D01*
X3891229Y2269896D01*
X3891229Y2530703D01*
X3881272Y2540711D01*
G37*
G36*
X3484727Y2540711D02*
G01*
X3474770Y2530703D01*
X3474770Y2269896D01*
X3484727Y2259888D01*
X3592982Y2259888D01*
X3602990Y2269896D01*
X3602990Y2342540D01*
X3592982Y2352548D01*
X3569411Y2352548D01*
X3559403Y2362555D01*
X3559403Y2438044D01*
X3569411Y2448052D01*
X3592982Y2448052D01*
X3602990Y2458059D01*
X3602990Y2530703D01*
X3592982Y2540711D01*
G37*
G36*
X3226917Y2540711D02*
G01*
X3216910Y2530703D01*
X3216910Y2458059D01*
X3226917Y2448052D01*
X3250488Y2448052D01*
X3260496Y2438044D01*
X3260496Y2362555D01*
X3250488Y2352548D01*
X3226917Y2352548D01*
X3216910Y2342540D01*
X3216910Y2269896D01*
X3226917Y2259888D01*
X3335172Y2259888D01*
X3345129Y2269896D01*
X3345129Y2530703D01*
X3335172Y2540711D01*
G37*
G36*
X2938627Y2540711D02*
G01*
X2928670Y2530703D01*
X2928670Y2269896D01*
X2938627Y2259888D01*
X3046882Y2259888D01*
X3056890Y2269896D01*
X3056890Y2342540D01*
X3046882Y2352548D01*
X3023311Y2352548D01*
X3013303Y2362555D01*
X3013303Y2438044D01*
X3023311Y2448052D01*
X3046882Y2448052D01*
X3056890Y2458059D01*
X3056890Y2530703D01*
X3046882Y2540711D01*
G37*
G36*
X2630017Y2540711D02*
G01*
X2620010Y2530703D01*
X2620010Y2458059D01*
X2630017Y2448052D01*
X2653588Y2448052D01*
X2663596Y2438044D01*
X2663596Y2362555D01*
X2653588Y2352548D01*
X2630017Y2352548D01*
X2620010Y2342540D01*
X2620010Y2269896D01*
X2630017Y2259888D01*
X2738272Y2259888D01*
X2748229Y2269896D01*
X2748229Y2530703D01*
X2738272Y2540711D01*
G37*
G36*
X2341727Y2540711D02*
G01*
X2331770Y2530703D01*
X2331770Y2269896D01*
X2341727Y2259888D01*
X2449982Y2259888D01*
X2459990Y2269896D01*
X2459990Y2342540D01*
X2449982Y2352548D01*
X2426411Y2352548D01*
X2416403Y2362555D01*
X2416403Y2438044D01*
X2426411Y2448052D01*
X2449982Y2448052D01*
X2459990Y2458059D01*
X2459990Y2530703D01*
X2449982Y2540711D01*
G37*
G36*
X1825396Y2595829D02*
G01*
X1815388Y2585872D01*
X1815388Y2477617D01*
X1825396Y2467610D01*
X1898040Y2467610D01*
X1908048Y2477617D01*
X1908048Y2501188D01*
X1918055Y2511196D01*
X1993544Y2511196D01*
X2003552Y2501188D01*
X2003552Y2477617D01*
X2013559Y2467610D01*
X2086203Y2467610D01*
X2096211Y2477617D01*
X2096211Y2585872D01*
X2086203Y2595829D01*
G37*
G36*
X1825396Y2307590D02*
G01*
X1815388Y2297582D01*
X1815388Y2189327D01*
X1825396Y2179370D01*
X2086203Y2179370D01*
X2096211Y2189327D01*
X2096211Y2297582D01*
X2086203Y2307590D01*
X2013559Y2307590D01*
X2003552Y2297582D01*
X2003552Y2274011D01*
X1993544Y2264003D01*
X1918055Y2264003D01*
X1908048Y2274011D01*
X1908048Y2297582D01*
X1898040Y2307590D01*
G37*
G36*
X4847996Y1262329D02*
G01*
X4837988Y1252372D01*
X4837988Y1144117D01*
X4847996Y1134110D01*
X4920640Y1134110D01*
X4930648Y1144117D01*
X4930648Y1167688D01*
X4940655Y1177696D01*
X5016144Y1177696D01*
X5026152Y1167688D01*
X5026152Y1144117D01*
X5036159Y1134110D01*
X5108803Y1134110D01*
X5118811Y1144117D01*
X5118811Y1252372D01*
X5108803Y1262329D01*
G37*
G36*
X4847996Y974090D02*
G01*
X4837988Y964082D01*
X4837988Y855827D01*
X4847996Y845870D01*
X5108803Y845870D01*
X5118811Y855827D01*
X5118811Y964082D01*
X5108803Y974090D01*
X5036159Y974090D01*
X5026152Y964082D01*
X5026152Y940511D01*
X5016144Y930503D01*
X4940655Y930503D01*
X4930648Y940511D01*
X4930648Y964082D01*
X4920640Y974090D01*
G37*
G36*
X4966817Y1715211D02*
G01*
X4956810Y1705203D01*
X4956810Y1632559D01*
X4966817Y1622552D01*
X4990388Y1622552D01*
X5000396Y1612544D01*
X5000396Y1537055D01*
X4990388Y1527048D01*
X4966817Y1527048D01*
X4956810Y1517040D01*
X4956810Y1444396D01*
X4966817Y1434388D01*
X5075072Y1434388D01*
X5085029Y1444396D01*
X5085029Y1705203D01*
X5075072Y1715211D01*
G37*
G36*
X4678527Y1715211D02*
G01*
X4668570Y1705203D01*
X4668570Y1444396D01*
X4678527Y1434388D01*
X4786782Y1434388D01*
X4796790Y1444396D01*
X4796790Y1517040D01*
X4786782Y1527048D01*
X4763211Y1527048D01*
X4753203Y1537055D01*
X4753203Y1612544D01*
X4763211Y1622552D01*
X4786782Y1622552D01*
X4796790Y1632559D01*
X4796790Y1705203D01*
X4786782Y1715211D01*
G37*
G36*
X4103217Y1689811D02*
G01*
X4093210Y1679803D01*
X4093210Y1607159D01*
X4103217Y1597152D01*
X4126788Y1597152D01*
X4136796Y1587144D01*
X4136796Y1511655D01*
X4126788Y1501648D01*
X4103217Y1501648D01*
X4093210Y1491640D01*
X4093210Y1418996D01*
X4103217Y1408988D01*
X4211472Y1408988D01*
X4221429Y1418996D01*
X4221429Y1679803D01*
X4211472Y1689811D01*
G37*
G36*
X3814927Y1689811D02*
G01*
X3804970Y1679803D01*
X3804970Y1418996D01*
X3814927Y1408988D01*
X3923182Y1408988D01*
X3933190Y1418996D01*
X3933190Y1491640D01*
X3923182Y1501648D01*
X3899611Y1501648D01*
X3889603Y1511655D01*
X3889603Y1587144D01*
X3899611Y1597152D01*
X3923182Y1597152D01*
X3933190Y1607159D01*
X3933190Y1679803D01*
X3923182Y1689811D01*
G37*
G36*
X4090517Y2121611D02*
G01*
X4080510Y2111603D01*
X4080510Y2038959D01*
X4090517Y2028952D01*
X4114088Y2028952D01*
X4124096Y2018944D01*
X4124096Y1943455D01*
X4114088Y1933448D01*
X4090517Y1933448D01*
X4080510Y1923440D01*
X4080510Y1850796D01*
X4090517Y1840788D01*
X4198772Y1840788D01*
X4208729Y1850796D01*
X4208729Y2111603D01*
X4198772Y2121611D01*
G37*
G36*
X3802227Y2121611D02*
G01*
X3792270Y2111603D01*
X3792270Y1850796D01*
X3802227Y1840788D01*
X3910482Y1840788D01*
X3920490Y1850796D01*
X3920490Y1923440D01*
X3910482Y1933448D01*
X3886911Y1933448D01*
X3876903Y1943455D01*
X3876903Y2018944D01*
X3886911Y2028952D01*
X3910482Y2028952D01*
X3920490Y2038959D01*
X3920490Y2111603D01*
X3910482Y2121611D01*
G37*
G36*
X2587396Y4809490D02*
G01*
X2577388Y4799482D01*
X2577388Y4691227D01*
X2587396Y4681270D01*
X2848203Y4681270D01*
X2858211Y4691227D01*
X2858211Y4799482D01*
X2848203Y4809490D01*
X2775559Y4809490D01*
X2765552Y4799482D01*
X2765552Y4775911D01*
X2755544Y4765903D01*
X2680055Y4765903D01*
X2670048Y4775911D01*
X2670048Y4799482D01*
X2660040Y4809490D01*
G37*
G36*
X2587396Y5097729D02*
G01*
X2577388Y5087772D01*
X2577388Y4979517D01*
X2587396Y4969510D01*
X2660040Y4969510D01*
X2670048Y4979517D01*
X2670048Y5003088D01*
X2680055Y5013096D01*
X2755544Y5013096D01*
X2765552Y5003088D01*
X2765552Y4979517D01*
X2775559Y4969510D01*
X2848203Y4969510D01*
X2858211Y4979517D01*
X2858211Y5087772D01*
X2848203Y5097729D01*
G37*
G36*
X2206396Y5097729D02*
G01*
X2196388Y5087772D01*
X2196388Y4979517D01*
X2206396Y4969510D01*
X2279040Y4969510D01*
X2289048Y4979517D01*
X2289048Y5003088D01*
X2299055Y5013096D01*
X2374544Y5013096D01*
X2384552Y5003088D01*
X2384552Y4979517D01*
X2394559Y4969510D01*
X2467203Y4969510D01*
X2477211Y4979517D01*
X2477211Y5087772D01*
X2467203Y5097729D01*
G37*
G36*
X2206396Y4809490D02*
G01*
X2196388Y4799482D01*
X2196388Y4691227D01*
X2206396Y4681270D01*
X2467203Y4681270D01*
X2477211Y4691227D01*
X2477211Y4799482D01*
X2467203Y4809490D01*
X2394559Y4809490D01*
X2384552Y4799482D01*
X2384552Y4775911D01*
X2374544Y4765903D01*
X2299055Y4765903D01*
X2289048Y4775911D01*
X2289048Y4799482D01*
X2279040Y4809490D01*
G37*
G36*
X1728317Y6236411D02*
G01*
X1718310Y6226403D01*
X1718310Y6153759D01*
X1728317Y6143752D01*
X1751888Y6143752D01*
X1761896Y6133744D01*
X1761896Y6058255D01*
X1751888Y6048248D01*
X1728317Y6048248D01*
X1718310Y6038240D01*
X1718310Y5965596D01*
X1728317Y5955588D01*
X1836572Y5955588D01*
X1846529Y5965596D01*
X1846529Y6226403D01*
X1836572Y6236411D01*
G37*
G36*
X1440027Y6236411D02*
G01*
X1430070Y6226403D01*
X1430070Y5965596D01*
X1440027Y5955588D01*
X1548282Y5955588D01*
X1558290Y5965596D01*
X1558290Y6038240D01*
X1548282Y6048248D01*
X1524711Y6048248D01*
X1514703Y6058255D01*
X1514703Y6133744D01*
X1524711Y6143752D01*
X1548282Y6143752D01*
X1558290Y6153759D01*
X1558290Y6226403D01*
X1548282Y6236411D01*
G37*
G36*
X1131417Y6223711D02*
G01*
X1121410Y6213703D01*
X1121410Y6141059D01*
X1131417Y6131052D01*
X1154988Y6131052D01*
X1164996Y6121044D01*
X1164996Y6045555D01*
X1154988Y6035548D01*
X1131417Y6035548D01*
X1121410Y6025540D01*
X1121410Y5952896D01*
X1131417Y5942888D01*
X1239672Y5942888D01*
X1249629Y5952896D01*
X1249629Y6213703D01*
X1239672Y6223711D01*
G37*
G36*
X843127Y6223711D02*
G01*
X833170Y6213703D01*
X833170Y5952896D01*
X843127Y5942888D01*
X951382Y5942888D01*
X961390Y5952896D01*
X961390Y6025540D01*
X951382Y6035548D01*
X927811Y6035548D01*
X917803Y6045555D01*
X917803Y6121044D01*
X927811Y6131052D01*
X951382Y6131052D01*
X961390Y6141059D01*
X961390Y6213703D01*
X951382Y6223711D01*
G37*
G36*
X1372717Y4610811D02*
G01*
X1362710Y4600803D01*
X1362710Y4528159D01*
X1372717Y4518152D01*
X1396288Y4518152D01*
X1406296Y4508144D01*
X1406296Y4432655D01*
X1396288Y4422648D01*
X1372717Y4422648D01*
X1362710Y4412640D01*
X1362710Y4339996D01*
X1372717Y4329988D01*
X1480972Y4329988D01*
X1490929Y4339996D01*
X1490929Y4600803D01*
X1480972Y4610811D01*
G37*
G36*
X1084427Y4610811D02*
G01*
X1074470Y4600803D01*
X1074470Y4339996D01*
X1084427Y4329988D01*
X1192682Y4329988D01*
X1202690Y4339996D01*
X1202690Y4412640D01*
X1192682Y4422648D01*
X1169111Y4422648D01*
X1159103Y4432655D01*
X1159103Y4508144D01*
X1169111Y4518152D01*
X1192682Y4518152D01*
X1202690Y4528159D01*
X1202690Y4600803D01*
X1192682Y4610811D01*
G37*
G36*
X1385417Y5080711D02*
G01*
X1375410Y5070703D01*
X1375410Y4998059D01*
X1385417Y4988052D01*
X1408988Y4988052D01*
X1418996Y4978044D01*
X1418996Y4902555D01*
X1408988Y4892548D01*
X1385417Y4892548D01*
X1375410Y4882540D01*
X1375410Y4809896D01*
X1385417Y4799888D01*
X1493672Y4799888D01*
X1503629Y4809896D01*
X1503629Y5070703D01*
X1493672Y5080711D01*
G37*
G36*
X1097127Y5080711D02*
G01*
X1087170Y5070703D01*
X1087170Y4809896D01*
X1097127Y4799888D01*
X1205382Y4799888D01*
X1215390Y4809896D01*
X1215390Y4882540D01*
X1205382Y4892548D01*
X1181811Y4892548D01*
X1171803Y4902555D01*
X1171803Y4978044D01*
X1181811Y4988052D01*
X1205382Y4988052D01*
X1215390Y4998059D01*
X1215390Y5070703D01*
X1205382Y5080711D01*
G37*
G36*
X1385417Y4179011D02*
G01*
X1375410Y4169003D01*
X1375410Y4096359D01*
X1385417Y4086351D01*
X1408988Y4086351D01*
X1418996Y4076344D01*
X1418996Y4000855D01*
X1408988Y3990848D01*
X1385417Y3990848D01*
X1375410Y3980840D01*
X1375410Y3908196D01*
X1385417Y3898188D01*
X1493672Y3898188D01*
X1503629Y3908196D01*
X1503629Y4169003D01*
X1493672Y4179011D01*
G37*
G36*
X1097127Y4179011D02*
G01*
X1087170Y4169003D01*
X1087170Y3908196D01*
X1097127Y3898188D01*
X1205382Y3898188D01*
X1215390Y3908196D01*
X1215390Y3980840D01*
X1205382Y3990848D01*
X1181811Y3990848D01*
X1171803Y4000855D01*
X1171803Y4076344D01*
X1181811Y4086351D01*
X1205382Y4086351D01*
X1215390Y4096359D01*
X1215390Y4169003D01*
X1205382Y4179011D01*
G37*
G36*
X1482496Y6977329D02*
G01*
X1472488Y6967372D01*
X1472488Y6859117D01*
X1482496Y6849109D01*
X1555140Y6849109D01*
X1565148Y6859117D01*
X1565148Y6882688D01*
X1575155Y6892696D01*
X1650644Y6892696D01*
X1660652Y6882688D01*
X1660652Y6859117D01*
X1670659Y6849109D01*
X1743303Y6849109D01*
X1753311Y6859117D01*
X1753311Y6967372D01*
X1743303Y6977329D01*
G37*
G36*
X1482496Y6689090D02*
G01*
X1472488Y6679082D01*
X1472488Y6570827D01*
X1482496Y6560870D01*
X1743303Y6560870D01*
X1753311Y6570827D01*
X1753311Y6679082D01*
X1743303Y6689090D01*
X1670659Y6689090D01*
X1660652Y6679082D01*
X1660652Y6655511D01*
X1650644Y6645503D01*
X1575155Y6645503D01*
X1565148Y6655511D01*
X1565148Y6679082D01*
X1555140Y6689090D01*
G37*
G36*
X2204618Y5264708D02*
G01*
X2199589Y5259679D01*
X2199589Y5179720D01*
X2204618Y5174691D01*
X2284577Y5174691D01*
X2289606Y5179720D01*
X2289606Y5202478D01*
X2252624Y5202478D01*
X2252624Y5235498D01*
X2289606Y5235498D01*
X2289606Y5259679D01*
X2284577Y5264708D01*
G37*
G36*
X2363622Y5264708D02*
G01*
X2358593Y5259679D01*
X2358593Y5236921D01*
X2395575Y5236921D01*
X2395575Y5203901D01*
X2358593Y5203901D01*
X2358593Y5179720D01*
X2363622Y5174691D01*
X2443581Y5174691D01*
X2448610Y5179720D01*
X2448610Y5259679D01*
X2443581Y5264708D01*
G37*
D10*
G01*
X5800166Y4724400D03*
G01*
X5325008Y4724400D03*
G01*
X5337733Y4318000D03*
G01*
X5812891Y4318000D03*
D11*
G01*
X1397000Y7234097D03*
G01*
X1397000Y7574102D03*
G01*
X5783402Y914400D03*
G01*
X5443397Y914400D03*
G01*
X1397000Y8107502D03*
G01*
X1397000Y7767497D03*
D12*
G01*
X2260625Y7952867D03*
D13*
G01*
X2514600Y6931558D03*
G01*
X2006600Y6931558D03*
D14*
G01*
X6991095Y1750568D03*
G01*
X6801104Y1750568D03*
G01*
X6896100Y1500631D03*
G01*
X6991095Y2639568D03*
G01*
X6801104Y2639568D03*
G01*
X6896100Y2389631D03*
G01*
X7016495Y3566668D03*
G01*
X6826504Y3566668D03*
G01*
X6921500Y3316731D03*
G01*
X7003795Y759968D03*
G01*
X6813804Y759968D03*
G01*
X6908800Y510031D03*
G01*
X6876795Y4061968D03*
G01*
X6686804Y4061968D03*
G01*
X6781800Y3812031D03*
G01*
X6991095Y3109468D03*
G01*
X6801104Y3109468D03*
G01*
X6896100Y2859531D03*
G01*
X6991095Y2195068D03*
G01*
X6801104Y2195068D03*
G01*
X6896100Y1945131D03*
G01*
X6991095Y1255268D03*
G01*
X6801104Y1255268D03*
G01*
X6896100Y1005331D03*
G01*
X8356600Y1272031D03*
G01*
X8261604Y1521968D03*
G01*
X8451595Y1521968D03*
G01*
X9385300Y1284731D03*
G01*
X9290304Y1534668D03*
G01*
X9480295Y1534668D03*
D15*
G01*
X4205731Y1066800D03*
G01*
X4455668Y1161795D03*
G01*
X4455668Y971804D03*
D16*
G01*
X2431795Y1916988D03*
G01*
X2336800Y2147011D03*
G01*
X2241804Y1916988D03*
G01*
X2318004Y2909011D03*
G01*
X2413000Y2678988D03*
G01*
X2507995Y2908985D03*
G01*
X2940304Y2909011D03*
G01*
X3035300Y2678988D03*
G01*
X3130295Y2908985D03*
G01*
X3448304Y2921711D03*
G01*
X3543300Y2691688D03*
G01*
X3638295Y2921685D03*
G01*
X4299204Y4204411D03*
G01*
X4394200Y3974388D03*
G01*
X4489195Y4204385D03*
G01*
X4299204Y3823411D03*
G01*
X4394200Y3593388D03*
G01*
X4489195Y3823385D03*
G01*
X4299204Y3378911D03*
G01*
X4394200Y3148888D03*
G01*
X4489195Y3378885D03*
G01*
X4286504Y2947111D03*
G01*
X4381500Y2717088D03*
G01*
X4476495Y2947085D03*
G01*
X4286504Y2528011D03*
G01*
X4381500Y2297988D03*
G01*
X4476495Y2527985D03*
G01*
X4756404Y4166311D03*
G01*
X4851400Y3936288D03*
G01*
X4946395Y4166285D03*
G01*
X4756404Y3759911D03*
G01*
X4851400Y3529888D03*
G01*
X4946395Y3759885D03*
G01*
X4756404Y3378911D03*
G01*
X4851400Y3148888D03*
G01*
X4946395Y3378885D03*
G01*
X4769104Y2985211D03*
G01*
X4864100Y2755188D03*
G01*
X4959095Y2985185D03*
G01*
X4769104Y2591511D03*
G01*
X4864100Y2361488D03*
G01*
X4959095Y2591485D03*
D17*
G01*
X3892499Y7921193D03*
G01*
X3892499Y7471206D03*
G01*
X3092500Y7471206D03*
G01*
X3092500Y7921193D03*
D18*
G01*
X4825111Y6260312D03*
G01*
X4825111Y6133312D03*
G01*
X4825111Y6006312D03*
G01*
X4825111Y5879312D03*
G01*
X4825111Y5752312D03*
G01*
X4825111Y5625312D03*
G01*
X4825111Y5498312D03*
G01*
X4825111Y5371312D03*
G01*
X4825111Y5244312D03*
G01*
X4825111Y5117312D03*
G01*
X4825111Y4990312D03*
G01*
X4825111Y4863312D03*
G01*
X4825111Y4736312D03*
G01*
X4825111Y4609312D03*
D19*
G01*
X4546600Y4509287D03*
G01*
X4419600Y4509287D03*
G01*
X4292600Y4509287D03*
G01*
X4165600Y4509287D03*
G01*
X4038600Y4509287D03*
G01*
X3911600Y4509287D03*
G01*
X3784600Y4509287D03*
G01*
X3657600Y4509287D03*
G01*
X3530600Y4509287D03*
G01*
X3403600Y4509287D03*
D18*
G01*
X3125088Y4609312D03*
G01*
X3125088Y4736312D03*
G01*
X3125088Y4863312D03*
G01*
X3125088Y4990312D03*
G01*
X3125088Y5117312D03*
G01*
X3125088Y5244312D03*
G01*
X3125088Y5371312D03*
G01*
X3125088Y5498312D03*
G01*
X3125088Y5625312D03*
G01*
X3125088Y5752312D03*
G01*
X3125088Y5879312D03*
G01*
X3125088Y6006312D03*
G01*
X3125088Y6133312D03*
G01*
X3125088Y6260312D03*
D20*
G01*
X3825113Y5510301D03*
D21*
G01*
X7611399Y5180199D03*
G01*
X7611399Y5410200D03*
G01*
X7611399Y5640200D03*
D22*
G01*
X7044400Y5410200D03*
D23*
G01*
X7107105Y6654800D03*
D24*
G01*
X7701102Y6884796D03*
G01*
X7701102Y6654800D03*
G01*
X7701102Y6424803D03*
D23*
G01*
X5697405Y6629400D03*
D24*
G01*
X6291402Y6859396D03*
G01*
X6291402Y6629400D03*
G01*
X6291402Y6399403D03*
D25*
G01*
X8158099Y1987804D03*
G01*
X8158099Y2082800D03*
G01*
X8158099Y2177795D03*
G01*
X8428100Y2177795D03*
G01*
X8428100Y2082800D03*
G01*
X8428100Y1987804D03*
G01*
X7942199Y2673604D03*
G01*
X7942199Y2768600D03*
G01*
X7942199Y2863595D03*
G01*
X8212200Y2863595D03*
G01*
X8212200Y2768600D03*
G01*
X8212200Y2673604D03*
G01*
X7942199Y3448304D03*
G01*
X7942199Y3543300D03*
G01*
X7942199Y3638295D03*
G01*
X8212200Y3638295D03*
G01*
X8212200Y3543300D03*
G01*
X8212200Y3448304D03*
G01*
X7815199Y3930904D03*
G01*
X7815199Y4025900D03*
G01*
X7815199Y4120895D03*
G01*
X8085200Y4120895D03*
G01*
X8085200Y4025900D03*
G01*
X8085200Y3930904D03*
D26*
G01*
X3422904Y3386201D03*
G01*
X3517900Y3386201D03*
G01*
X3612895Y3386201D03*
G01*
X3612895Y3116198D03*
G01*
X3517900Y3116198D03*
G01*
X3422904Y3116198D03*
G01*
X2673604Y3360801D03*
G01*
X2768600Y3360801D03*
G01*
X2863595Y3360801D03*
G01*
X2863595Y3090798D03*
G01*
X2768600Y3090798D03*
G01*
X2673604Y3090798D03*
G01*
X1886204Y3373501D03*
G01*
X1981200Y3373501D03*
G01*
X2076195Y3373501D03*
G01*
X2076195Y3103498D03*
G01*
X1981200Y3103498D03*
G01*
X1886204Y3103498D03*
D25*
G01*
X3068700Y1898395D03*
G01*
X3068700Y1803400D03*
G01*
X3068700Y1708404D03*
G01*
X2798699Y1708404D03*
G01*
X2798699Y1803400D03*
G01*
X2798699Y1898395D03*
D27*
G01*
X1929790Y5782995D03*
G01*
X1929790Y5717997D03*
G01*
X1929790Y5652998D03*
G01*
X1929790Y5588000D03*
G01*
X1929790Y5523001D03*
G01*
X1929790Y5458002D03*
G01*
X1929790Y5393004D03*
G01*
X2489809Y5393004D03*
G01*
X2489809Y5458002D03*
G01*
X2489809Y5523001D03*
G01*
X2489809Y5588000D03*
G01*
X2489809Y5652998D03*
G01*
X2489809Y5717997D03*
G01*
X2489809Y5782995D03*
M02*
